<mxfile host="Electron" modified="2023-05-30T04:29:10.012Z" agent="Mozilla/5.0 (Windows NT 10.0; Win64; x64) AppleWebKit/537.36 (KHTML, like Gecko) draw.io/21.2.8 Chrome/112.0.5615.165 Electron/24.2.0 Safari/537.36" etag="IvS5vrsGS-zYJvnzXkQY" version="21.2.8" type="device" pages="3">
  <diagram name="PÃ¡gina-1" id="XWrmD0gJo0gAJ3TQ2Ldj">
    <mxGraphModel dx="1089" dy="1151" grid="1" gridSize="10" guides="1" tooltips="1" connect="1" arrows="1" fold="1" page="1" pageScale="1" pageWidth="827" pageHeight="1169" math="0" shadow="0">
      <root>
        <mxCell id="0" />
        <mxCell id="1" parent="0" />
        <mxCell id="n9-G5C4fC9kwNva9jvzh-1" value="" style="rounded=0;whiteSpace=wrap;html=1;fillColor=#707070;strokeColor=none;strokeWidth=2;" parent="1" vertex="1">
          <mxGeometry x="859" y="1050" width="1010" height="320" as="geometry" />
        </mxCell>
        <mxCell id="IoKVmjhm6yft1LunV9JG-1" style="edgeStyle=orthogonalEdgeStyle;rounded=0;orthogonalLoop=1;jettySize=auto;html=1;" edge="1" parent="1" source="n9-G5C4fC9kwNva9jvzh-2" target="n9-G5C4fC9kwNva9jvzh-7">
          <mxGeometry relative="1" as="geometry" />
        </mxCell>
        <mxCell id="n9-G5C4fC9kwNva9jvzh-2" value="" style="rounded=0;whiteSpace=wrap;html=1;strokeColor=#F08705;fillColor=#F08705;strokeWidth=2;" parent="1" vertex="1">
          <mxGeometry x="859" y="20" width="1010" height="125" as="geometry" />
        </mxCell>
        <mxCell id="n9-G5C4fC9kwNva9jvzh-3" value="&lt;div style=&quot;border-color: var(--border-color); font-family: Tahoma; font-size: 23px; text-align: justify;&quot;&gt;&lt;br&gt;&lt;/div&gt;" style="rounded=0;whiteSpace=wrap;html=1;fillColor=#B5B5B5;strokeColor=none;strokeWidth=2;fontColor=#ffffff;labelPosition=center;verticalLabelPosition=middle;align=center;verticalAlign=top;" parent="1" vertex="1">
          <mxGeometry x="859" y="145" width="1010" height="995" as="geometry" />
        </mxCell>
        <mxCell id="n9-G5C4fC9kwNva9jvzh-4" value="" style="shape=image;aspect=fixed;image=data:image/svg+xml,PD94bWwgdmVyc2lvbj0iMS4wIiBlbmNvZGluZz0iVVRGLTgiIHN0YW5kYWxvbmU9Im5vIj8+CjwhLS0gQ3JlYXRlZCB3aXRoIElua3NjYXBlIChodHRwOi8vd3d3Lmlua3NjYXBlLm9yZy8pIC0tPgoKPHN2ZwogICB3aWR0aD0iMjEwLjg3MjkxbW0iCiAgIGhlaWdodD0iMjE2LjE2NDU4bW0iCiAgIHZpZXdCb3g9IjAgMCAyMTAuODcyOTEgMjE2LjE2NDU4IgogICB2ZXJzaW9uPSIxLjEiCiAgIGlkPSJzdmc1IgogICB4bWw6c3BhY2U9InByZXNlcnZlIgogICBpbmtzY2FwZTp2ZXJzaW9uPSIxLjIuMiAoNzMyYTAxZGE2MywgMjAyMi0xMi0wOSkiCiAgIHNvZGlwb2RpOmRvY25hbWU9IkxvZ28uc3ZnIgogICB4bWxuczppbmtzY2FwZT0iaHR0cDovL3d3dy5pbmtzY2FwZS5vcmcvbmFtZXNwYWNlcy9pbmtzY2FwZSIKICAgeG1sbnM6c29kaXBvZGk9Imh0dHA6Ly9zb2RpcG9kaS5zb3VyY2Vmb3JnZS5uZXQvRFREL3NvZGlwb2RpLTAuZHRkIgogICB4bWxucz0iaHR0cDovL3d3dy53My5vcmcvMjAwMC9zdmciCiAgIHhtbG5zOnN2Zz0iaHR0cDovL3d3dy53My5vcmcvMjAwMC9zdmciPjxzb2RpcG9kaTpuYW1lZHZpZXcKICAgICBpZD0ibmFtZWR2aWV3NyIKICAgICBwYWdlY29sb3I9IiNmZmZmZmYiCiAgICAgYm9yZGVyY29sb3I9IiMwMDAwMDAiCiAgICAgYm9yZGVyb3BhY2l0eT0iMC4yNSIKICAgICBpbmtzY2FwZTpzaG93cGFnZXNoYWRvdz0iMiIKICAgICBpbmtzY2FwZTpwYWdlb3BhY2l0eT0iMC4wIgogICAgIGlua3NjYXBlOnBhZ2VjaGVja2VyYm9hcmQ9IjAiCiAgICAgaW5rc2NhcGU6ZGVza2NvbG9yPSIjZDFkMWQxIgogICAgIGlua3NjYXBlOmRvY3VtZW50LXVuaXRzPSJtbSIKICAgICBzaG93Z3JpZD0iZmFsc2UiCiAgICAgaW5rc2NhcGU6em9vbT0iMC42NjE0MjQ1OSIKICAgICBpbmtzY2FwZTpjeD0iNTE1LjU1Mzg2IgogICAgIGlua3NjYXBlOmN5PSI0NTguMTAyMTEiCiAgICAgaW5rc2NhcGU6d2luZG93LXdpZHRoPSIxMzY2IgogICAgIGlua3NjYXBlOndpbmRvdy1oZWlnaHQ9IjcwNSIKICAgICBpbmtzY2FwZTp3aW5kb3cteD0iLTgiCiAgICAgaW5rc2NhcGU6d2luZG93LXk9Ii04IgogICAgIGlua3NjYXBlOndpbmRvdy1tYXhpbWl6ZWQ9IjEiCiAgICAgaW5rc2NhcGU6Y3VycmVudC1sYXllcj0ibGF5ZXIxIiAvPjxkZWZzCiAgICAgaWQ9ImRlZnMyIiAvPjxnCiAgICAgaW5rc2NhcGU6bGFiZWw9IkNhcGEgMSIKICAgICBpbmtzY2FwZTpncm91cG1vZGU9ImxheWVyIgogICAgIGlkPSJsYXllcjEiCiAgICAgdHJhbnNmb3JtPSJ0cmFuc2xhdGUoMTIuNjU5MzEyLC0zNi43NDA1NjYpIj48cGF0aAogICAgICAgc3R5bGU9ImZpbGw6IzAwMDAwMDtzdHJva2Utd2lkdGg6MC4yNjQ1ODMiCiAgICAgICBkPSJtIDEwNi4xMDM2NywyMDguNjQyNDYgYyAtMi4wNTUyMiwtMC43MzI1OCAtMy41MTY1NiwtMi44NDg4IC0zLjI5NzY2LC00Ljc3NTQ2IDAuMDg3OSwtMC43NzMyOSAwLjEyMjk2LC0wLjc5MDU0IDEuNzY2MzksLTAuODY4MzMgMS44NTUwNywtMC4wODc4IDIuMjg4MDQsMC4xMjU2OCAyLjUxMDQ5LDEuMjM3OTQgMC4yNjcyLDEuMzM1OTkgMi41MDI2MiwxLjY4NjQ5IDMuMjYxNTQsMC41MTEzOSAwLjEyMzI4LC0wLjE5MDg4IDAuMjgzNjcsLTMuMzgzMTQgMC4zNTY0MywtNy4wOTM5MiBsIDAuMTMyMywtNi43NDY4OCBoIDEuOTg0MzcgMS45ODQzOCBsIDAuMDc5Miw2LjYxNDU5IGMgMC4wNTA4LDQuMjQzNDMgLTAuMDI0Niw2Ljk3MTgyIC0wLjIxMDM4LDcuNjExMTUgLTAuMzc5NTEsMS4zMDYxNSAtMS43MTY1MiwyLjgwMjgzIC0zLjA0MTU0LDMuNDA0NzggLTEuMjgxMzQsMC41ODIxIC00LjAzOTYyLDAuNjM0MzggLTUuNTI1NTEsMC4xMDQ3NCB6IG0gLTU1LjA3MzkyMiwtMC4xOTcwOSBjIC0wLjA3MjcyLC0wLjE4OTUxIC0wLjEwMDc2MywtNC4yMTMxMSAtMC4wNjIzMiwtOC45NDEzNiBsIDAuMDY5ODksLTguNTk2ODEgaCAxLjk4NDM3NSAxLjk4NDM3NSBsIDAuMDc0MjksMy4yNDExNSBjIDAuMDQwODYsMS43ODI2MyAwLjE1OTkyMiwzLjI0MTA4IDAuMjY0NTgzLDMuMjQxMDEgMC4xMDQ2NjIsLThlLTUgMS4wMTQ1ODIsLTEuMTAxNDEgMi4wMjIwNDQsLTIuNDQ3NCAzLjE4MTI5NCwtNC4yNTAyOCAzLjA2ODg3NiwtNC4xNjcwNSA1LjYyODQ4NiwtNC4xNjcwNSAxLjg1MjQwMSwwIDIuMTk3MDU1LDAuMDY3NSAyLjE5NzA1NSwwLjQzMDMgMCwwLjIzNjY2IC0xLjI1MDE1NiwyLjAyMTM3IC0yLjc3ODEyNSwzLjk2NiAtMS41Mjc5NjgsMS45NDQ2NCAtMi43NzgxMjQsMy41OTQ0MiAtMi43NzgxMjQsMy42NjYxNyAwLDAuMDcxOCAxLjMwOTY4NywyLjEzNzQ5IDIuOTEwNDE2LDQuNTkwNTEgMS42MDA3MjksMi40NTMwMiAyLjkxMDQxNyw0LjY1Nzc0IDIuOTEwNDE3LDQuODk5MzcgMCwwLjM3NDk2IC0wLjMyOTkyNSwwLjQzOTMyIC0yLjI1MjI0NSwwLjQzOTMyIGggLTIuMjUyMjQ0IGwgLTAuOTcwMDQ3LC0xLjUyMTM2IGMgLTAuNTMzNTI1LC0wLjgzNjc0IC0xLjQ5NDYzOSwtMi4zNDE5OSAtMi4xMzU4MDksLTMuMzQ0OTkgbCAtMS4xNjU3NjgsLTEuODIzNjQgLTAuNzA1MTczLDAuNzAzOTYgYyAtMC42NDMwMDMsMC42NDE5IC0wLjcxNjgzNSwwLjkzMDk3IC0wLjgzNzQ2NCwzLjI3ODg1IGwgLTAuMTMyMjkyLDIuNTc0ODkgLTEuOTIyMDU1LDAuMDc3OCBjIC0xLjM5MjY5NSwwLjA1NjQgLTEuOTU4NDY5LC0wLjAxNzEgLTIuMDU0MjcsLTAuMjY2NzMgeiBtIDE2LjY2ODc1LDAgYyAtMC4wNzI3MiwtMC4xODk1MSAtMC4xMDA3NjQsLTQuMjEzMTEgLTAuMDYyMzIsLTguOTQxMzYgbCAwLjA2OTg5LC04LjU5NjgxIGggMS45ODQzNzUgMS45ODQzNzUgbCAwLjEzMjI5MSwzLjQzOTU5IDAuMTMyMjkyLDMuNDM5NTggaCAzLjA0MjcwOCAzLjA0MjcwOSBsIDAuMTMyMjkxLC0zLjQzOTU4IDAuMTMyMjkyLC0zLjQzOTU5IGggMS45ODQzNzUgMS45ODQzNzUgdiA4Ljg2MzU0IDguODYzNTUgaCAtMS45ODQzNzUgLTEuOTg0Mzc1IGwgLTAuMTMyMjkyLC0zLjU3MTg4IC0wLjEzMjI5MSwtMy41NzE4NyBoIC0zLjA0MjcwOSAtMy4wNDI3MDggbCAtMC4xMzIyOTIsMy41NzE4NyAtMC4xMzIyOTEsMy41NzE4OCAtMS45MjIwNTUsMC4wNzc4IGMgLTEuMzkyNjk1LDAuMDU2NCAtMS45NTg0NywtMC4wMTcxIC0yLjA1NDI3LC0wLjI2NjczIHogbSAxNy4zNTY3ODgsLTAuMDUyOCBjIC0wLjI0NTAyLC0wLjI5NTIzIDAuMDQ4MSwtMS4zMzk3OSAxLjM5MjExMywtNC45NjA5NCAwLjkzNjM2NiwtMi41MjI4MiAyLjMzMDg3LC02LjMxMzM2IDMuMDk4ODk4LC04LjQyMzQyIDAuNzY4MDI3LC0yLjExMDA1IDEuNTEwNzk3LC0zLjk4NTI4IDEuNjUwNTk1LC00LjE2NzE4IDAuMTU1NDM1LC0wLjIwMjI1IDAuODk3MTMzLC0wLjMzMDczIDEuOTA5MTgsLTAuMzMwNzMgMS4wMDg3NzQsMCAxLjc1NjY0MywwLjEyOTEzIDEuOTE1MzE0LDAuMzMwNzMgMC40NjI2MTYsMC41ODc3NSA2LjQ0NzY3NCwxNi45MTk5MiA2LjM2MzEwNCwxNy4zNjM4IC0wLjA2NDIsMC4zMzcxMSAtMC40NzM3MiwwLjQ0NjQ0IC0xLjkwNDkyNiwwLjUwODU3IC0xLjA1MzY3NiwwLjA0NTcgLTEuOTQyODcyLC0wLjA0MDYgLTIuMTA2ODU4LC0wLjIwNDU5IC0wLjE1NjA1NywtMC4xNTYwNiAtMC41MjU1MzcsLTAuOTY1NTggLTAuODIxMDY2LC0xLjc5ODk0IGwgLTAuNTM3MzI2LC0xLjUxNTIgaCAtMi44ODQwODMgLTIuODg0MDggbCAtMC40ODM0NTIsMS40MjIzIGMgLTAuMjY1ODk4LDAuNzgyMjYgLTAuNjE5MjYyLDEuNTg1OTMgLTAuNzg1MjQ5LDEuNzg1OTMgLTAuNDE4OTgsMC41MDQ4NSAtMy41MDEzNDcsMC40OTY3MiAtMy45MjIxNjQsLTAuMDEwMyB6IG0gMzMuNDgwOTc0LC0wLjAzOTYgYyAtMC4yNDMzMywtMC42MzQxMSAtMC4xODc5OSwtMTYuODYzNjIgMC4wNTg4LC0xNy4yNTI1IDAuMTY0MjMsLTAuMjU4NzQgMS41NzY1OCwtMC4zMTk1MyA2LjE0NzUxLC0wLjI2NDU4IGwgNS45MzQzMSwwLjA3MTMgdiAxLjU4NzUgMS41ODc1IGwgLTMuOTAyNjEsMC4wNzMyIC0zLjkwMjYsMC4wNzMyIHYgMS44NDUwMSAxLjg0NTAxIGggMy4xNTkzOCBjIDMuNDEzNzYsMCAzLjQ3MjUxLDAuMDI0MyAzLjYzNTI1LDEuNTAxMDUgMC4xOTczOCwxLjc5MTA5IC0wLjA3ODYsMS45Mzg1MyAtMy42Mjg5NCwxLjkzODUzIGggLTMuMTY1NjkgdiAxLjk3NzMxIDEuOTc3MyBsIDMuOTAyNiwwLjA3MzIgMy45MDI2MSwwLjA3MzIgdiAxLjU4NzUgMS41ODc1IGwgLTUuOTg5MDksMC4wNzEgYyAtNS4yODgyMSwwLjA2MjcgLTYuMDA4MSwwLjAyMTUgLTYuMTUxNTYsLTAuMzUyMzcgeiBtIDE0Ljc4MzY3LC0wLjE4MTY5IGMgLTAuMDc5OCwtMC4zMjc0MiAtMC4xMTE4OCwtNC4zNDU3OCAtMC4wNzEyLC04LjkyOTY4IGwgMC4wNzQsLTguMzM0MzggaCA1Ljk1MzEyIDUuOTUzMTMgdiAxLjU4NzUgMS41ODc1IGwgLTMuNjkzMzksMC4wNzQgYyAtMi4wMzEzNiwwLjA0MDcgLTMuNzU3NzcsMC4xNzczMyAtMy44MzY0NiwwLjMwMzY1IC0wLjA3ODcsMC4xMjYzMiAtMC4xMDMxNCwxLjAxNTc2IC0wLjA1NDMsMS45NzY1NSBsIDAuMDg4NywxLjc0Njg3IGggMy4yODQ3MiBjIDIuNDQwNTksMCAzLjI4OTkyLDAuMDg1IDMuMzA0OTYsMC4zMzA3MyAwLjAxMTEsMC4xODE5IDAuMDcxNCwwLjU2ODg2IDAuMTMzODYsMC44NTk5IDAuMDYyNSwwLjI5MTA0IDAuMDQ4LDAuOTE2MTIgLTAuMDMyMiwxLjM4OTA2IGwgLTAuMTQ1ODQsMC44NTk5IGggLTMuMjk1MyAtMy4yOTUzMSBsIC0wLjAwNCwyLjk3NjU2IGMgLTAuMDA1LDQuMzA5NTkgMC4wNzI0LDQuMTY3MTkgLTIuMjcxMTcsNC4xNjcxOSAtMS44MDEyNCwwIC0xLjk1OTQ1LC0wLjA0NSAtMi4wOTM2NSwtMC41OTUzMiB6IE0gOTQuMTY0NDA1LDE3MS45NDE4NyBjIC0yLjAzNzI5MSwtMS4xNzk0MiAtNC4wNjEzNTQsLTIuMzUxOTIgLTQuNDk3OTE2LC0yLjYwNTU1IC02Ljk4MjcwOSwtNC4wNTY3IC0xMS4xNTQ1NDcsLTYuNDYyNjEgLTEzLjc1ODMzMywtNy45MzQ0NyAtMS43NDYyNSwtMC45ODcxIC0zLjg4OTM3NSwtMi4yMjAwNSAtNC43NjI1LC0yLjczOTg3IC0wLjg3MzEyNSwtMC41MTk4MSAtMi4wOTQzNDksLTEuMjQzNjkgLTIuNzEzODMxLC0xLjYwODYxIGwgLTEuMTI2MzI5LC0wLjY2MzUgMC4wNjgsLTE3LjkyNTk0IDAuMDY4LC0xNy45MjU5MyAzLjA0MjcwOCwtMS43NTI4NyBjIDEuNjczNDg5LC0wLjk2NDA4IDguMTAyODY0LC00LjY3NDg2IDE0LjI4NzQ5OSwtOC4yNDYxOSA2LjE4NDYzNiwtMy41NzEzMyAxMS43NDM1ODIsLTYuNzUxODcgMTIuMzUzMjEzLC03LjA2Nzg2IGwgMS4xMDg0MjUsLTAuNTc0NTIgNS4zNzM4NjksMy4wOTQ4NiBjIDIuOTU1NjMsMS43MDIxNyA4LjQ2OTUsNC44ODU2NCAxMi4yNTMwNCw3LjA3NDM2IDMuNzgzNTQsMi4xODg3NCA4LjI0ODM4LDQuNzcwNzMgOS45MjE4Nyw1LjczNzc4IGwgMy4wNDI3MSwxLjc1ODI2IDAuMDY4LDE3LjkwMzY1IDAuMDY4LDE3LjkwMzY1IC0wLjk5NDA0LDAuNjMxMiBjIC0yLjE3MTQ1LDEuMzc4ODQgLTI5LjY0MTI5MywxNy4xMDUyIC0yOS44NjIwODMsMTcuMDk1OSAtMC4xMjk4NjUsLTAuMDA1IC0xLjkwMjk5NCwtMC45NzQ5MiAtMy45NDAyODYsLTIuMTU0MzUgeiBtIDE3LjcyNzA4NSwtOS41OTQxMSAxMy40OTM3NSwtNy43ODc3NCAwLjA2NzcsLTE1Ljk1NzY2IDAuMDY3NywtMTUuOTU3NjYgLTMuNjM5NTUsLTIuMTQwNDIgYyAtMi4wMDE3NSwtMS4xNzcyMyAtNS4yNDY4OSwtMy4wNjggLTcuMjExNDMsLTQuMjAxNzEgLTEuOTY0NTMsLTEuMTMzNzEgLTQuOTQxMDksLTIuODU3NjQgLTYuNjE0NTgsLTMuODMwOTUgLTUuODMxODIsLTMuMzkxODMgLTkuNzE1MDE1LC01LjU2OTYzIC05LjkzMTEwMSwtNS41Njk2MyAtMC4xMTk2NzEsMCAtNi4zMjgwMzQsMy41MjUxOSAtMTMuNzk2MzY0LDcuODMzNzYgbCAtMTMuNTc4Nzg0LDcuODMzNzUgdiAxNS45NjMgMTUuOTYyOTkgbCAyLjA1MDUyMSwxLjE3MTA4IGMgMS45MjIwNSwxLjA5NzcgNS44NTI2MTUsMy4zNjI4MyAxMS43MDc4MTIsNi43NDcwNSAxLjM4MjQ0OCwwLjc5OTA0IDIuODExMTk4LDEuNjE2ODIgMy4xNzUsMS44MTcyOSAwLjM2MzgwMiwwLjIwMDQ3IDIuNzQ1MDUyLDEuNjAwMDUgNS4yOTE2NjYsMy4xMTAxNyAyLjU0NjYxNSwxLjUxMDExIDQuODA4ODAyLDIuNzU2NjQgNS4wMjcwODQsMi43NzAwNCAwLjIxODI4MSwwLjAxMzQgNi40NjkwNjYsLTMuNDgwMSAxMy44OTA2MjYsLTcuNzYzMzYgeiBtIC0xNS4wODEyNTEsLTkuMDUwNzQgYyAtMC40MzY1NjMsLTAuMjI4MjggLTEuNjg2NzE5LC0wLjkzMDU5IC0yLjc3ODEyNSwtMS41NjA3MSAtMy40NDIzNTksLTEuOTg3NDIgLTMuMzg2MzYzLC0xLjk2NzAzIC00LjMyNTY1MiwtMS41NzQ3MSAtMC43OTc1MjgsMC4zMzMxMSAtMC45NTQzMzEsMC4yODE2NSAtMy42MTE4NDgsLTEuMTg1MzMgLTEuNjE2MDkzLC0wLjg5MjEgLTIuOTE0ODMsLTEuNzk1IC0zLjEwNDk1NCwtMi4xNTg2IC0wLjM0NzQ4LC0wLjY2NDU0IC0wLjQ1MDY1MiwtNC4zNDQ0MSAtMC4xNjIyMzUsLTUuNzg2NSAwLjEyOTAxNiwtMC42NDUwOSAwLjQ1OTc3NywtMS4wMzYyIDEuMzE0NTU0LC0xLjU1NDQzIGwgMS4xNDIxNTgsLTAuNjkyNDUgMC4wMTE5OSwtMi41MTM1NSBjIDAuMDA2NiwtMS4zODI0NCAwLjA3OTMsLTIuNzY0MzMgMC4xNjE1NzUsLTMuMDcwODUgMC4wOTk1LC0wLjM3MDY5IDEuMjA1NzY4LC0xLjE1NTMxIDMuMzAzNjc4LC0yLjM0MzE0IGwgMy4xNTQwNzEsLTEuNzg1ODMgdiAtMS4xNDkxMiBjIDAsLTAuOTg5NTcgMC4xMTkzOTksLTEuMjM3NDUgMC44NTk4OTYsLTEuNzg1MjcgMS4zMDM2MSwtMC45NjQ0MSA0LjgzMzE3MywtMi44MzAzNyA1LjM1Mzc4OCwtMi44MzAzNyAwLjQyNTAxNiwwIDEuNzc0MDg3LDAuNjc5OTYgNC45NjQ5NjUsMi41MDI0MyAxLjIyOTUsMC43MDIyNCAxLjI1Njc3LDAuNzQ1ODIgMS4yNTY3NywyLjAwODc0IHYgMS4yOTA5MiBsIDIuOTAwOTksMS42MjQ1NSBjIDEuNTk1NTUsMC44OTM1MSAzLjA1NDA2LDEuODA5MTEgMy4yNDExNCwyLjAzNDY3IDAuMTg3MDksMC4yMjU1NiAwLjM0Nzc0LDAuODk3NzEgMC4zNTcsMS40OTM2NyAwLjAwOSwwLjU5NTk2IDAuMDM5LDEuODY3NTYgMC4wNjYxLDIuODI1NzggbCAwLjA0OTMsMS43NDIyMiAxLjI1Njc3LDAuNjM5MDMgMS4yNTY3NywwLjYzOTAzIDAuMDc0NCwyLjkzNzUxIGMgMC4wNDA5LDEuNjE1NjMgLTAuMDQxNCwzLjI0MjExIC0wLjE4MjkxLDMuNjE0NDEgLTAuMTc5OCwwLjQ3MjkzIC0xLjA1MTMxLDEuMTIyNTIgLTIuODkyMTgsMi4xNTU3MiAtMi42MzU1NiwxLjQ3OTI0IC0zLjM3NzU5LDEuNjk0NzMgLTQuMjQyMjUsMS4yMzE5OCAtMC4zNTMzOSwtMC4xODkxMyAtMS4yOTI3NiwwLjIxMjA2IC00LjAxNzUsMS43MTU4MiAtMS45NTU5NSwxLjA3OTQ2IC0zLjc5NDM4OSwxLjk1OTY4IC00LjA4NTQzMSwxLjk1NjA0IC0wLjI5MTA0MSwtMC4wMDQgLTAuODg2MzU0LC0wLjE5MzM5IC0xLjMyMjkxNiwtMC40MjE2NiB6IG0gNC4xMjc1ODEsLTMuMTUwNTUgYyAxLjQ0MDYxLC0wLjgwODU1IDIuNjE5MjksLTEuNTIxOTkgMi42MTkyOSwtMS41ODU0MSAwLC0wLjA2MzQgLTAuNDQzMjUsLTAuMzI0NjEgLTAuOTg1LC0wLjU4MDQyIC0wLjU0MTc1LC0wLjI1NTgxIC0xLjEzNTMsLTAuNzYyNzYgLTEuMzE5MDEsLTEuMTI2NTYgLTAuNDQyNCwtMC44NzYwOCAtMC40NDMxNywtNS40NzI4MSAtMC4wMDEsLTYuMzQ2NTkgMC4yMDEsLTAuMzk3MjcgMS4zMjY2MiwtMS4yMTI2NSAyLjg0MDM3LC0yLjA1NzUxIDIuMjE5MjgsLTEuMjM4NjMgMi42MzgwMywtMS4zODM4NCAzLjY0MzkyLC0xLjI2MzU5IGwgMS4xMzY0OSwwLjEzNTg2IC0wLjA3ODIsLTEuNzc1MDUgLTAuMDc4MiwtMS43NzUwNSAtMS45ODQzOCwtMS4xMTQzOSBjIC0xLjA5MTQxLC0wLjYxMjkxIC0yLjA3MzY4LC0xLjEyMjI5IC0yLjE4MjgyLC0xLjEzMTk1IC0wLjEwOTE0LC0wLjAxIC0wLjE5ODQzLDAuMzk3NjYgLTAuMTk4NDMsMC45MDUxNiAwLDEuMDM0NjcgLTAuMjI1NjcsMS4yMTYzOSAtNC4xMjQ1NiwzLjMyMTMzIGwgLTIuMTQwMTcsMS4xNTU0NSAtMy4wMTkyLC0xLjcxMjQgYyAtMi45Mzc5NTIsLTEuNjY2MzIgLTMuMDIxNDIyLC0xLjczODk4IC0zLjEwMTMzMiwtMi42OTk3NiAtMC4wNDUxNiwtMC41NDMwNCAtMC4xMTk4MzUsLTAuOTg3MzUgLTAuMTY1OTM2LC0wLjk4NzM1IC0wLjA0NjEsMCAtMS4wMjExNzgsMC41MTc3NiAtMi4xNjY4MzksMS4xNTA1OCBsIC0yLjA4MzAyMywxLjE1MDU3IC0wLjA3ODM1LDEuNzY0OTIgLTAuMDc4MzUsMS43NjQ5MyAxLjA2NTAzMiwtMC4xNzAzMSBjIDAuOTQ2OTI2LC0wLjE1MTQyIDEuMzM3MDU2LC0wLjAxOSAzLjUxNzkzNSwxLjE5NDI2IDEuMzQ5MDk0LDAuNzUwNTEgMi42MzE0OTMsMS40NjI1NyAyLjg0OTc3NCwxLjU4MjM2IDAuMzAyMTg2LDAuMTY1ODQgMC40MTU5MTQsMC44NDIzNyAwLjQ3NjY3LDIuODM1NTYgMC4xMTQ5MzUsMy43NzA0OCAtMC4wMDg0LDQuMjA5ODEgLTEuNDMwNDg4LDUuMDk0OTMgLTEuMjgxMDE3LDAuNzk3MzMgLTEuMjY0NDgxLDAuODkyNTIgMC4yOTIzNTksMS42ODI5MyAwLjQzNjU2MywwLjIyMTY0IDEuNDQ4NTk0LDAuNzczMTIgMi4yNDg5NTksMS4yMjU1IDAuODAwMzY0LDAuNDUyMzkgMS41NTY0NDgsMC44MjQ2OCAxLjY4MDE4NiwwLjgyNzMxIDAuMTIzNzM1LDAuMDAzIDEuNDAzNjU3LC0wLjY1Njc1IDIuODQ0MjczLC0xLjQ2NTMxIHogTSAtNy41Njc4ODM0LDUwLjgwNTA2MiBjIDAsLTAuMTA4NjggMC4yNjc4OTEsLTAuMjY5MzkxIDAuNTk1MzEyLC0wLjM1NzEzNyAxLjA3MjUxOSwtMC4yODc0MjQgMjA5Ljk2NzMxMTQsLTAuMTkwMTg2IDIxMC4xNDUzMTE0LDAuMDk3ODIgMC4xMDg4OSwwLjE3NjE5NyAtMzQuODY0NjksMC4yNzU4NjMgLTEwNC42OTMyNCwwLjI5ODM1IC01Ny42NzEyMTcsMC4wMTg1NyAtMTA1LjEyNDY0OTQsMC4wNjE4NSAtMTA1LjQ1MjA3MTQsMC4wOTYxNyAtMC4zMjc0MjEsMC4wMzQzMiAtMC41OTUzMTIsLTAuMDI2NTIgLTAuNTk1MzEyLC0wLjEzNTIgeiIKICAgICAgIGlkPSJwYXRoMTk1IiAvPjwvZz48L3N2Zz4K;clipPath=inset(29.33% 24.06% 34.67% 28.84%);" parent="1" vertex="1">
          <mxGeometry x="840" y="24" width="149.49" height="117" as="geometry" />
        </mxCell>
        <mxCell id="n9-G5C4fC9kwNva9jvzh-5" value="" style="shape=image;aspect=fixed;image=data:image/svg+xml,PD94bWwgdmVyc2lvbj0iMS4wIiBlbmNvZGluZz0iVVRGLTgiIHN0YW5kYWxvbmU9Im5vIj8+CjwhLS0gQ3JlYXRlZCB3aXRoIElua3NjYXBlIChodHRwOi8vd3d3Lmlua3NjYXBlLm9yZy8pIC0tPgoKPHN2ZwogICB3aWR0aD0iMjEwLjg3MjkxbW0iCiAgIGhlaWdodD0iMjE2LjE2NDU4bW0iCiAgIHZpZXdCb3g9IjAgMCAyMTAuODcyOTEgMjE2LjE2NDU4IgogICB2ZXJzaW9uPSIxLjEiCiAgIGlkPSJzdmc1IgogICB4bWw6c3BhY2U9InByZXNlcnZlIgogICBpbmtzY2FwZTp2ZXJzaW9uPSIxLjIuMiAoNzMyYTAxZGE2MywgMjAyMi0xMi0wOSkiCiAgIHNvZGlwb2RpOmRvY25hbWU9IkxvZ28uc3ZnIgogICB4bWxuczppbmtzY2FwZT0iaHR0cDovL3d3dy5pbmtzY2FwZS5vcmcvbmFtZXNwYWNlcy9pbmtzY2FwZSIKICAgeG1sbnM6c29kaXBvZGk9Imh0dHA6Ly9zb2RpcG9kaS5zb3VyY2Vmb3JnZS5uZXQvRFREL3NvZGlwb2RpLTAuZHRkIgogICB4bWxucz0iaHR0cDovL3d3dy53My5vcmcvMjAwMC9zdmciCiAgIHhtbG5zOnN2Zz0iaHR0cDovL3d3dy53My5vcmcvMjAwMC9zdmciPjxzb2RpcG9kaTpuYW1lZHZpZXcKICAgICBpZD0ibmFtZWR2aWV3NyIKICAgICBwYWdlY29sb3I9IiNmZmZmZmYiCiAgICAgYm9yZGVyY29sb3I9IiMwMDAwMDAiCiAgICAgYm9yZGVyb3BhY2l0eT0iMC4yNSIKICAgICBpbmtzY2FwZTpzaG93cGFnZXNoYWRvdz0iMiIKICAgICBpbmtzY2FwZTpwYWdlb3BhY2l0eT0iMC4wIgogICAgIGlua3NjYXBlOnBhZ2VjaGVja2VyYm9hcmQ9IjAiCiAgICAgaW5rc2NhcGU6ZGVza2NvbG9yPSIjZDFkMWQxIgogICAgIGlua3NjYXBlOmRvY3VtZW50LXVuaXRzPSJtbSIKICAgICBzaG93Z3JpZD0iZmFsc2UiCiAgICAgaW5rc2NhcGU6em9vbT0iMC42NjE0MjQ1OSIKICAgICBpbmtzY2FwZTpjeD0iNTE1LjU1Mzg2IgogICAgIGlua3NjYXBlOmN5PSI0NTguMTAyMTEiCiAgICAgaW5rc2NhcGU6d2luZG93LXdpZHRoPSIxMzY2IgogICAgIGlua3NjYXBlOndpbmRvdy1oZWlnaHQ9IjcwNSIKICAgICBpbmtzY2FwZTp3aW5kb3cteD0iLTgiCiAgICAgaW5rc2NhcGU6d2luZG93LXk9Ii04IgogICAgIGlua3NjYXBlOndpbmRvdy1tYXhpbWl6ZWQ9IjEiCiAgICAgaW5rc2NhcGU6Y3VycmVudC1sYXllcj0ibGF5ZXIxIiAvPjxkZWZzCiAgICAgaWQ9ImRlZnMyIiAvPjxnCiAgICAgaW5rc2NhcGU6bGFiZWw9IkNhcGEgMSIKICAgICBpbmtzY2FwZTpncm91cG1vZGU9ImxheWVyIgogICAgIGlkPSJsYXllcjEiCiAgICAgdHJhbnNmb3JtPSJ0cmFuc2xhdGUoMTIuNjU5MzEyLC0zNi43NDA1NjYpIj48cGF0aAogICAgICAgc3R5bGU9ImZpbGw6IzAwMDAwMDtzdHJva2Utd2lkdGg6MC4yNjQ1ODMiCiAgICAgICBkPSJtIDEwNi4xMDM2NywyMDguNjQyNDYgYyAtMi4wNTUyMiwtMC43MzI1OCAtMy41MTY1NiwtMi44NDg4IC0zLjI5NzY2LC00Ljc3NTQ2IDAuMDg3OSwtMC43NzMyOSAwLjEyMjk2LC0wLjc5MDU0IDEuNzY2MzksLTAuODY4MzMgMS44NTUwNywtMC4wODc4IDIuMjg4MDQsMC4xMjU2OCAyLjUxMDQ5LDEuMjM3OTQgMC4yNjcyLDEuMzM1OTkgMi41MDI2MiwxLjY4NjQ5IDMuMjYxNTQsMC41MTEzOSAwLjEyMzI4LC0wLjE5MDg4IDAuMjgzNjcsLTMuMzgzMTQgMC4zNTY0MywtNy4wOTM5MiBsIDAuMTMyMywtNi43NDY4OCBoIDEuOTg0MzcgMS45ODQzOCBsIDAuMDc5Miw2LjYxNDU5IGMgMC4wNTA4LDQuMjQzNDMgLTAuMDI0Niw2Ljk3MTgyIC0wLjIxMDM4LDcuNjExMTUgLTAuMzc5NTEsMS4zMDYxNSAtMS43MTY1MiwyLjgwMjgzIC0zLjA0MTU0LDMuNDA0NzggLTEuMjgxMzQsMC41ODIxIC00LjAzOTYyLDAuNjM0MzggLTUuNTI1NTEsMC4xMDQ3NCB6IG0gLTU1LjA3MzkyMiwtMC4xOTcwOSBjIC0wLjA3MjcyLC0wLjE4OTUxIC0wLjEwMDc2MywtNC4yMTMxMSAtMC4wNjIzMiwtOC45NDEzNiBsIDAuMDY5ODksLTguNTk2ODEgaCAxLjk4NDM3NSAxLjk4NDM3NSBsIDAuMDc0MjksMy4yNDExNSBjIDAuMDQwODYsMS43ODI2MyAwLjE1OTkyMiwzLjI0MTA4IDAuMjY0NTgzLDMuMjQxMDEgMC4xMDQ2NjIsLThlLTUgMS4wMTQ1ODIsLTEuMTAxNDEgMi4wMjIwNDQsLTIuNDQ3NCAzLjE4MTI5NCwtNC4yNTAyOCAzLjA2ODg3NiwtNC4xNjcwNSA1LjYyODQ4NiwtNC4xNjcwNSAxLjg1MjQwMSwwIDIuMTk3MDU1LDAuMDY3NSAyLjE5NzA1NSwwLjQzMDMgMCwwLjIzNjY2IC0xLjI1MDE1NiwyLjAyMTM3IC0yLjc3ODEyNSwzLjk2NiAtMS41Mjc5NjgsMS45NDQ2NCAtMi43NzgxMjQsMy41OTQ0MiAtMi43NzgxMjQsMy42NjYxNyAwLDAuMDcxOCAxLjMwOTY4NywyLjEzNzQ5IDIuOTEwNDE2LDQuNTkwNTEgMS42MDA3MjksMi40NTMwMiAyLjkxMDQxNyw0LjY1Nzc0IDIuOTEwNDE3LDQuODk5MzcgMCwwLjM3NDk2IC0wLjMyOTkyNSwwLjQzOTMyIC0yLjI1MjI0NSwwLjQzOTMyIGggLTIuMjUyMjQ0IGwgLTAuOTcwMDQ3LC0xLjUyMTM2IGMgLTAuNTMzNTI1LC0wLjgzNjc0IC0xLjQ5NDYzOSwtMi4zNDE5OSAtMi4xMzU4MDksLTMuMzQ0OTkgbCAtMS4xNjU3NjgsLTEuODIzNjQgLTAuNzA1MTczLDAuNzAzOTYgYyAtMC42NDMwMDMsMC42NDE5IC0wLjcxNjgzNSwwLjkzMDk3IC0wLjgzNzQ2NCwzLjI3ODg1IGwgLTAuMTMyMjkyLDIuNTc0ODkgLTEuOTIyMDU1LDAuMDc3OCBjIC0xLjM5MjY5NSwwLjA1NjQgLTEuOTU4NDY5LC0wLjAxNzEgLTIuMDU0MjcsLTAuMjY2NzMgeiBtIDE2LjY2ODc1LDAgYyAtMC4wNzI3MiwtMC4xODk1MSAtMC4xMDA3NjQsLTQuMjEzMTEgLTAuMDYyMzIsLTguOTQxMzYgbCAwLjA2OTg5LC04LjU5NjgxIGggMS45ODQzNzUgMS45ODQzNzUgbCAwLjEzMjI5MSwzLjQzOTU5IDAuMTMyMjkyLDMuNDM5NTggaCAzLjA0MjcwOCAzLjA0MjcwOSBsIDAuMTMyMjkxLC0zLjQzOTU4IDAuMTMyMjkyLC0zLjQzOTU5IGggMS45ODQzNzUgMS45ODQzNzUgdiA4Ljg2MzU0IDguODYzNTUgaCAtMS45ODQzNzUgLTEuOTg0Mzc1IGwgLTAuMTMyMjkyLC0zLjU3MTg4IC0wLjEzMjI5MSwtMy41NzE4NyBoIC0zLjA0MjcwOSAtMy4wNDI3MDggbCAtMC4xMzIyOTIsMy41NzE4NyAtMC4xMzIyOTEsMy41NzE4OCAtMS45MjIwNTUsMC4wNzc4IGMgLTEuMzkyNjk1LDAuMDU2NCAtMS45NTg0NywtMC4wMTcxIC0yLjA1NDI3LC0wLjI2NjczIHogbSAxNy4zNTY3ODgsLTAuMDUyOCBjIC0wLjI0NTAyLC0wLjI5NTIzIDAuMDQ4MSwtMS4zMzk3OSAxLjM5MjExMywtNC45NjA5NCAwLjkzNjM2NiwtMi41MjI4MiAyLjMzMDg3LC02LjMxMzM2IDMuMDk4ODk4LC04LjQyMzQyIDAuNzY4MDI3LC0yLjExMDA1IDEuNTEwNzk3LC0zLjk4NTI4IDEuNjUwNTk1LC00LjE2NzE4IDAuMTU1NDM1LC0wLjIwMjI1IDAuODk3MTMzLC0wLjMzMDczIDEuOTA5MTgsLTAuMzMwNzMgMS4wMDg3NzQsMCAxLjc1NjY0MywwLjEyOTEzIDEuOTE1MzE0LDAuMzMwNzMgMC40NjI2MTYsMC41ODc3NSA2LjQ0NzY3NCwxNi45MTk5MiA2LjM2MzEwNCwxNy4zNjM4IC0wLjA2NDIsMC4zMzcxMSAtMC40NzM3MiwwLjQ0NjQ0IC0xLjkwNDkyNiwwLjUwODU3IC0xLjA1MzY3NiwwLjA0NTcgLTEuOTQyODcyLC0wLjA0MDYgLTIuMTA2ODU4LC0wLjIwNDU5IC0wLjE1NjA1NywtMC4xNTYwNiAtMC41MjU1MzcsLTAuOTY1NTggLTAuODIxMDY2LC0xLjc5ODk0IGwgLTAuNTM3MzI2LC0xLjUxNTIgaCAtMi44ODQwODMgLTIuODg0MDggbCAtMC40ODM0NTIsMS40MjIzIGMgLTAuMjY1ODk4LDAuNzgyMjYgLTAuNjE5MjYyLDEuNTg1OTMgLTAuNzg1MjQ5LDEuNzg1OTMgLTAuNDE4OTgsMC41MDQ4NSAtMy41MDEzNDcsMC40OTY3MiAtMy45MjIxNjQsLTAuMDEwMyB6IG0gMzMuNDgwOTc0LC0wLjAzOTYgYyAtMC4yNDMzMywtMC42MzQxMSAtMC4xODc5OSwtMTYuODYzNjIgMC4wNTg4LC0xNy4yNTI1IDAuMTY0MjMsLTAuMjU4NzQgMS41NzY1OCwtMC4zMTk1MyA2LjE0NzUxLC0wLjI2NDU4IGwgNS45MzQzMSwwLjA3MTMgdiAxLjU4NzUgMS41ODc1IGwgLTMuOTAyNjEsMC4wNzMyIC0zLjkwMjYsMC4wNzMyIHYgMS44NDUwMSAxLjg0NTAxIGggMy4xNTkzOCBjIDMuNDEzNzYsMCAzLjQ3MjUxLDAuMDI0MyAzLjYzNTI1LDEuNTAxMDUgMC4xOTczOCwxLjc5MTA5IC0wLjA3ODYsMS45Mzg1MyAtMy42Mjg5NCwxLjkzODUzIGggLTMuMTY1NjkgdiAxLjk3NzMxIDEuOTc3MyBsIDMuOTAyNiwwLjA3MzIgMy45MDI2MSwwLjA3MzIgdiAxLjU4NzUgMS41ODc1IGwgLTUuOTg5MDksMC4wNzEgYyAtNS4yODgyMSwwLjA2MjcgLTYuMDA4MSwwLjAyMTUgLTYuMTUxNTYsLTAuMzUyMzcgeiBtIDE0Ljc4MzY3LC0wLjE4MTY5IGMgLTAuMDc5OCwtMC4zMjc0MiAtMC4xMTE4OCwtNC4zNDU3OCAtMC4wNzEyLC04LjkyOTY4IGwgMC4wNzQsLTguMzM0MzggaCA1Ljk1MzEyIDUuOTUzMTMgdiAxLjU4NzUgMS41ODc1IGwgLTMuNjkzMzksMC4wNzQgYyAtMi4wMzEzNiwwLjA0MDcgLTMuNzU3NzcsMC4xNzczMyAtMy44MzY0NiwwLjMwMzY1IC0wLjA3ODcsMC4xMjYzMiAtMC4xMDMxNCwxLjAxNTc2IC0wLjA1NDMsMS45NzY1NSBsIDAuMDg4NywxLjc0Njg3IGggMy4yODQ3MiBjIDIuNDQwNTksMCAzLjI4OTkyLDAuMDg1IDMuMzA0OTYsMC4zMzA3MyAwLjAxMTEsMC4xODE5IDAuMDcxNCwwLjU2ODg2IDAuMTMzODYsMC44NTk5IDAuMDYyNSwwLjI5MTA0IDAuMDQ4LDAuOTE2MTIgLTAuMDMyMiwxLjM4OTA2IGwgLTAuMTQ1ODQsMC44NTk5IGggLTMuMjk1MyAtMy4yOTUzMSBsIC0wLjAwNCwyLjk3NjU2IGMgLTAuMDA1LDQuMzA5NTkgMC4wNzI0LDQuMTY3MTkgLTIuMjcxMTcsNC4xNjcxOSAtMS44MDEyNCwwIC0xLjk1OTQ1LC0wLjA0NSAtMi4wOTM2NSwtMC41OTUzMiB6IE0gOTQuMTY0NDA1LDE3MS45NDE4NyBjIC0yLjAzNzI5MSwtMS4xNzk0MiAtNC4wNjEzNTQsLTIuMzUxOTIgLTQuNDk3OTE2LC0yLjYwNTU1IC02Ljk4MjcwOSwtNC4wNTY3IC0xMS4xNTQ1NDcsLTYuNDYyNjEgLTEzLjc1ODMzMywtNy45MzQ0NyAtMS43NDYyNSwtMC45ODcxIC0zLjg4OTM3NSwtMi4yMjAwNSAtNC43NjI1LC0yLjczOTg3IC0wLjg3MzEyNSwtMC41MTk4MSAtMi4wOTQzNDksLTEuMjQzNjkgLTIuNzEzODMxLC0xLjYwODYxIGwgLTEuMTI2MzI5LC0wLjY2MzUgMC4wNjgsLTE3LjkyNTk0IDAuMDY4LC0xNy45MjU5MyAzLjA0MjcwOCwtMS43NTI4NyBjIDEuNjczNDg5LC0wLjk2NDA4IDguMTAyODY0LC00LjY3NDg2IDE0LjI4NzQ5OSwtOC4yNDYxOSA2LjE4NDYzNiwtMy41NzEzMyAxMS43NDM1ODIsLTYuNzUxODcgMTIuMzUzMjEzLC03LjA2Nzg2IGwgMS4xMDg0MjUsLTAuNTc0NTIgNS4zNzM4NjksMy4wOTQ4NiBjIDIuOTU1NjMsMS43MDIxNyA4LjQ2OTUsNC44ODU2NCAxMi4yNTMwNCw3LjA3NDM2IDMuNzgzNTQsMi4xODg3NCA4LjI0ODM4LDQuNzcwNzMgOS45MjE4Nyw1LjczNzc4IGwgMy4wNDI3MSwxLjc1ODI2IDAuMDY4LDE3LjkwMzY1IDAuMDY4LDE3LjkwMzY1IC0wLjk5NDA0LDAuNjMxMiBjIC0yLjE3MTQ1LDEuMzc4ODQgLTI5LjY0MTI5MywxNy4xMDUyIC0yOS44NjIwODMsMTcuMDk1OSAtMC4xMjk4NjUsLTAuMDA1IC0xLjkwMjk5NCwtMC45NzQ5MiAtMy45NDAyODYsLTIuMTU0MzUgeiBtIDE3LjcyNzA4NSwtOS41OTQxMSAxMy40OTM3NSwtNy43ODc3NCAwLjA2NzcsLTE1Ljk1NzY2IDAuMDY3NywtMTUuOTU3NjYgLTMuNjM5NTUsLTIuMTQwNDIgYyAtMi4wMDE3NSwtMS4xNzcyMyAtNS4yNDY4OSwtMy4wNjggLTcuMjExNDMsLTQuMjAxNzEgLTEuOTY0NTMsLTEuMTMzNzEgLTQuOTQxMDksLTIuODU3NjQgLTYuNjE0NTgsLTMuODMwOTUgLTUuODMxODIsLTMuMzkxODMgLTkuNzE1MDE1LC01LjU2OTYzIC05LjkzMTEwMSwtNS41Njk2MyAtMC4xMTk2NzEsMCAtNi4zMjgwMzQsMy41MjUxOSAtMTMuNzk2MzY0LDcuODMzNzYgbCAtMTMuNTc4Nzg0LDcuODMzNzUgdiAxNS45NjMgMTUuOTYyOTkgbCAyLjA1MDUyMSwxLjE3MTA4IGMgMS45MjIwNSwxLjA5NzcgNS44NTI2MTUsMy4zNjI4MyAxMS43MDc4MTIsNi43NDcwNSAxLjM4MjQ0OCwwLjc5OTA0IDIuODExMTk4LDEuNjE2ODIgMy4xNzUsMS44MTcyOSAwLjM2MzgwMiwwLjIwMDQ3IDIuNzQ1MDUyLDEuNjAwMDUgNS4yOTE2NjYsMy4xMTAxNyAyLjU0NjYxNSwxLjUxMDExIDQuODA4ODAyLDIuNzU2NjQgNS4wMjcwODQsMi43NzAwNCAwLjIxODI4MSwwLjAxMzQgNi40NjkwNjYsLTMuNDgwMSAxMy44OTA2MjYsLTcuNzYzMzYgeiBtIC0xNS4wODEyNTEsLTkuMDUwNzQgYyAtMC40MzY1NjMsLTAuMjI4MjggLTEuNjg2NzE5LC0wLjkzMDU5IC0yLjc3ODEyNSwtMS41NjA3MSAtMy40NDIzNTksLTEuOTg3NDIgLTMuMzg2MzYzLC0xLjk2NzAzIC00LjMyNTY1MiwtMS41NzQ3MSAtMC43OTc1MjgsMC4zMzMxMSAtMC45NTQzMzEsMC4yODE2NSAtMy42MTE4NDgsLTEuMTg1MzMgLTEuNjE2MDkzLC0wLjg5MjEgLTIuOTE0ODMsLTEuNzk1IC0zLjEwNDk1NCwtMi4xNTg2IC0wLjM0NzQ4LC0wLjY2NDU0IC0wLjQ1MDY1MiwtNC4zNDQ0MSAtMC4xNjIyMzUsLTUuNzg2NSAwLjEyOTAxNiwtMC42NDUwOSAwLjQ1OTc3NywtMS4wMzYyIDEuMzE0NTU0LC0xLjU1NDQzIGwgMS4xNDIxNTgsLTAuNjkyNDUgMC4wMTE5OSwtMi41MTM1NSBjIDAuMDA2NiwtMS4zODI0NCAwLjA3OTMsLTIuNzY0MzMgMC4xNjE1NzUsLTMuMDcwODUgMC4wOTk1LC0wLjM3MDY5IDEuMjA1NzY4LC0xLjE1NTMxIDMuMzAzNjc4LC0yLjM0MzE0IGwgMy4xNTQwNzEsLTEuNzg1ODMgdiAtMS4xNDkxMiBjIDAsLTAuOTg5NTcgMC4xMTkzOTksLTEuMjM3NDUgMC44NTk4OTYsLTEuNzg1MjcgMS4zMDM2MSwtMC45NjQ0MSA0LjgzMzE3MywtMi44MzAzNyA1LjM1Mzc4OCwtMi44MzAzNyAwLjQyNTAxNiwwIDEuNzc0MDg3LDAuNjc5OTYgNC45NjQ5NjUsMi41MDI0MyAxLjIyOTUsMC43MDIyNCAxLjI1Njc3LDAuNzQ1ODIgMS4yNTY3NywyLjAwODc0IHYgMS4yOTA5MiBsIDIuOTAwOTksMS42MjQ1NSBjIDEuNTk1NTUsMC44OTM1MSAzLjA1NDA2LDEuODA5MTEgMy4yNDExNCwyLjAzNDY3IDAuMTg3MDksMC4yMjU1NiAwLjM0Nzc0LDAuODk3NzEgMC4zNTcsMS40OTM2NyAwLjAwOSwwLjU5NTk2IDAuMDM5LDEuODY3NTYgMC4wNjYxLDIuODI1NzggbCAwLjA0OTMsMS43NDIyMiAxLjI1Njc3LDAuNjM5MDMgMS4yNTY3NywwLjYzOTAzIDAuMDc0NCwyLjkzNzUxIGMgMC4wNDA5LDEuNjE1NjMgLTAuMDQxNCwzLjI0MjExIC0wLjE4MjkxLDMuNjE0NDEgLTAuMTc5OCwwLjQ3MjkzIC0xLjA1MTMxLDEuMTIyNTIgLTIuODkyMTgsMi4xNTU3MiAtMi42MzU1NiwxLjQ3OTI0IC0zLjM3NzU5LDEuNjk0NzMgLTQuMjQyMjUsMS4yMzE5OCAtMC4zNTMzOSwtMC4xODkxMyAtMS4yOTI3NiwwLjIxMjA2IC00LjAxNzUsMS43MTU4MiAtMS45NTU5NSwxLjA3OTQ2IC0zLjc5NDM4OSwxLjk1OTY4IC00LjA4NTQzMSwxLjk1NjA0IC0wLjI5MTA0MSwtMC4wMDQgLTAuODg2MzU0LC0wLjE5MzM5IC0xLjMyMjkxNiwtMC40MjE2NiB6IG0gNC4xMjc1ODEsLTMuMTUwNTUgYyAxLjQ0MDYxLC0wLjgwODU1IDIuNjE5MjksLTEuNTIxOTkgMi42MTkyOSwtMS41ODU0MSAwLC0wLjA2MzQgLTAuNDQzMjUsLTAuMzI0NjEgLTAuOTg1LC0wLjU4MDQyIC0wLjU0MTc1LC0wLjI1NTgxIC0xLjEzNTMsLTAuNzYyNzYgLTEuMzE5MDEsLTEuMTI2NTYgLTAuNDQyNCwtMC44NzYwOCAtMC40NDMxNywtNS40NzI4MSAtMC4wMDEsLTYuMzQ2NTkgMC4yMDEsLTAuMzk3MjcgMS4zMjY2MiwtMS4yMTI2NSAyLjg0MDM3LC0yLjA1NzUxIDIuMjE5MjgsLTEuMjM4NjMgMi42MzgwMywtMS4zODM4NCAzLjY0MzkyLC0xLjI2MzU5IGwgMS4xMzY0OSwwLjEzNTg2IC0wLjA3ODIsLTEuNzc1MDUgLTAuMDc4MiwtMS43NzUwNSAtMS45ODQzOCwtMS4xMTQzOSBjIC0xLjA5MTQxLC0wLjYxMjkxIC0yLjA3MzY4LC0xLjEyMjI5IC0yLjE4MjgyLC0xLjEzMTk1IC0wLjEwOTE0LC0wLjAxIC0wLjE5ODQzLDAuMzk3NjYgLTAuMTk4NDMsMC45MDUxNiAwLDEuMDM0NjcgLTAuMjI1NjcsMS4yMTYzOSAtNC4xMjQ1NiwzLjMyMTMzIGwgLTIuMTQwMTcsMS4xNTU0NSAtMy4wMTkyLC0xLjcxMjQgYyAtMi45Mzc5NTIsLTEuNjY2MzIgLTMuMDIxNDIyLC0xLjczODk4IC0zLjEwMTMzMiwtMi42OTk3NiAtMC4wNDUxNiwtMC41NDMwNCAtMC4xMTk4MzUsLTAuOTg3MzUgLTAuMTY1OTM2LC0wLjk4NzM1IC0wLjA0NjEsMCAtMS4wMjExNzgsMC41MTc3NiAtMi4xNjY4MzksMS4xNTA1OCBsIC0yLjA4MzAyMywxLjE1MDU3IC0wLjA3ODM1LDEuNzY0OTIgLTAuMDc4MzUsMS43NjQ5MyAxLjA2NTAzMiwtMC4xNzAzMSBjIDAuOTQ2OTI2LC0wLjE1MTQyIDEuMzM3MDU2LC0wLjAxOSAzLjUxNzkzNSwxLjE5NDI2IDEuMzQ5MDk0LDAuNzUwNTEgMi42MzE0OTMsMS40NjI1NyAyLjg0OTc3NCwxLjU4MjM2IDAuMzAyMTg2LDAuMTY1ODQgMC40MTU5MTQsMC44NDIzNyAwLjQ3NjY3LDIuODM1NTYgMC4xMTQ5MzUsMy43NzA0OCAtMC4wMDg0LDQuMjA5ODEgLTEuNDMwNDg4LDUuMDk0OTMgLTEuMjgxMDE3LDAuNzk3MzMgLTEuMjY0NDgxLDAuODkyNTIgMC4yOTIzNTksMS42ODI5MyAwLjQzNjU2MywwLjIyMTY0IDEuNDQ4NTk0LDAuNzczMTIgMi4yNDg5NTksMS4yMjU1IDAuODAwMzY0LDAuNDUyMzkgMS41NTY0NDgsMC44MjQ2OCAxLjY4MDE4NiwwLjgyNzMxIDAuMTIzNzM1LDAuMDAzIDEuNDAzNjU3LC0wLjY1Njc1IDIuODQ0MjczLC0xLjQ2NTMxIHogTSAtNy41Njc4ODM0LDUwLjgwNTA2MiBjIDAsLTAuMTA4NjggMC4yNjc4OTEsLTAuMjY5MzkxIDAuNTk1MzEyLC0wLjM1NzEzNyAxLjA3MjUxOSwtMC4yODc0MjQgMjA5Ljk2NzMxMTQsLTAuMTkwMTg2IDIxMC4xNDUzMTE0LDAuMDk3ODIgMC4xMDg4OSwwLjE3NjE5NyAtMzQuODY0NjksMC4yNzU4NjMgLTEwNC42OTMyNCwwLjI5ODM1IC01Ny42NzEyMTcsMC4wMTg1NyAtMTA1LjEyNDY0OTQsMC4wNjE4NSAtMTA1LjQ1MjA3MTQsMC4wOTYxNyAtMC4zMjc0MjEsMC4wMzQzMiAtMC41OTUzMTIsLTAuMDI2NTIgLTAuNTk1MzEyLC0wLjEzNTIgeiIKICAgICAgIGlkPSJwYXRoMTk1IiAvPjwvZz48L3N2Zz4K;clipPath=inset(69.33% 23.04% 19.33% 28.84%);" parent="1" vertex="1">
          <mxGeometry x="960" y="37.039999999999964" width="377" height="90.91" as="geometry" />
        </mxCell>
        <mxCell id="n9-G5C4fC9kwNva9jvzh-6" value="Proyecto. FabricaciÃ³n de Robot de Combate" style="text;html=1;align=center;verticalAlign=middle;resizable=0;points=[];autosize=1;strokeColor=none;fillColor=none;fontStyle=1;fontFamily=Tahoma;fontSize=23;" parent="1" vertex="1">
          <mxGeometry x="1325" y="101" width="530" height="40" as="geometry" />
        </mxCell>
        <mxCell id="n9-G5C4fC9kwNva9jvzh-7" value="&lt;div style=&quot;text-align: justify;&quot;&gt;&lt;span style=&quot;background-color: initial;&quot;&gt;&lt;b&gt;&lt;font style=&quot;font-size: 35px;&quot;&gt;PLAN DE ADQUISICIONES&lt;/font&gt;&lt;/b&gt;&lt;/span&gt;&lt;/div&gt;&lt;div style=&quot;text-align: justify;&quot;&gt;&lt;br&gt;&lt;/div&gt;&lt;div style=&quot;text-align: justify;&quot;&gt;&lt;br&gt;&lt;/div&gt;&lt;div style=&quot;text-align: justify;&quot;&gt;&lt;span style=&quot;background-color: initial;&quot;&gt;&lt;font style=&quot;font-size: 25px;&quot;&gt;&lt;b&gt;1. POLÃTICA DE ADQUISICIONES&lt;/b&gt;&lt;/font&gt;&lt;/span&gt;&lt;/div&gt;&lt;div style=&quot;text-align: justify;&quot;&gt;&lt;br&gt;&lt;/div&gt;&lt;div style=&quot;text-align: justify; font-size: 15px;&quot;&gt;&lt;span style=&quot;background-color: initial;&quot;&gt;&lt;font style=&quot;font-size: 15px;&quot;&gt;Se denomina PolÃ­tica de Compras a los criterios generados en cualquier proceso de adquisiciÃ³n que trasladan los valores, principios y pautas de conducta de KHAJEF en cualquier relaciÃ³n cliente y proveedor que se realice en la compaÃ±Ã­a.&lt;/font&gt;&lt;/span&gt;&lt;/div&gt;&lt;div style=&quot;text-align: justify; font-size: 15px;&quot;&gt;&lt;font style=&quot;font-size: 15px;&quot;&gt;&lt;br&gt;&lt;/font&gt;&lt;/div&gt;&lt;div style=&quot;text-align: justify; font-size: 15px;&quot;&gt;&lt;span style=&quot;background-color: initial;&quot;&gt;&lt;font style=&quot;font-size: 15px;&quot;&gt;Son&amp;nbsp;&amp;nbsp;planes o planteamientos generales que sitÃºan el pensamiento y la&amp;nbsp;acciÃ³n sobre los miembros de la empresa, para que estas contribuyan&amp;nbsp;directamente al logro sus metas u objetivos.&lt;/font&gt;&lt;/span&gt;&lt;/div&gt;&lt;div style=&quot;text-align: justify;&quot;&gt;&lt;br&gt;&lt;/div&gt;&lt;div style=&quot;text-align: justify;&quot;&gt;&lt;br&gt;&lt;/div&gt;&lt;div style=&quot;text-align: justify;&quot;&gt;&lt;span style=&quot;background-color: initial;&quot;&gt;&lt;font style=&quot;font-size: 25px;&quot;&gt;&lt;b&gt;2. OBJETIVO DEL PLAN&lt;/b&gt;&lt;/font&gt;&lt;/span&gt;&lt;/div&gt;&lt;div style=&quot;text-align: justify;&quot;&gt;&lt;br&gt;&lt;/div&gt;&lt;div style=&quot;text-align: justify; font-size: 15px;&quot;&gt;&lt;span style=&quot;background-color: initial;&quot;&gt;&lt;font style=&quot;font-size: 15px;&quot;&gt;El objetivo de la PolÃ­tica de adquisiciones de KHAJEF es entregar a sus colaboradores las bases bajo las cuales se debe ejecutar una acciÃ³n de compra (de productos y servicios), a modo de establecer un estilo de gestiÃ³n que garantice objetividad, transparencia y excelencia en el proceso de compra y lograr una Ã³ptima gestiÃ³n en tÃ©rminos de eficiencia para satisfacer el objetivo perseguido en la compra.&lt;/font&gt;&lt;/span&gt;&lt;/div&gt;&lt;div style=&quot;text-align: justify; font-size: 15px;&quot;&gt;&lt;font style=&quot;font-size: 15px;&quot;&gt;&lt;br&gt;&lt;/font&gt;&lt;/div&gt;&lt;div style=&quot;text-align: justify; font-size: 15px;&quot;&gt;&lt;span style=&quot;background-color: initial;&quot;&gt;&lt;font style=&quot;font-size: 15px;&quot;&gt;Se espera que todos los colaboradores guÃ­en sus conductas y decisiones de compra en las prÃ¡cticas y en los valores de KHAJEF.&lt;/font&gt;&lt;/span&gt;&lt;/div&gt;&lt;div style=&quot;text-align: justify;&quot;&gt;&lt;br&gt;&lt;/div&gt;&lt;div style=&quot;text-align: justify;&quot;&gt;&lt;br&gt;&lt;/div&gt;&lt;div style=&quot;text-align: justify;&quot;&gt;&lt;span style=&quot;background-color: initial;&quot;&gt;&lt;font style=&quot;font-size: 25px;&quot;&gt;&lt;b&gt;3. QUÃ ADQUIRIR EXTERNAMENTE&lt;/b&gt;&lt;/font&gt;&lt;/span&gt;&lt;/div&gt;&lt;div style=&quot;text-align: justify;&quot;&gt;&lt;br&gt;&lt;/div&gt;&lt;div style=&quot;text-align: justify; font-size: 15px;&quot;&gt;&lt;span style=&quot;background-color: initial;&quot;&gt;&lt;font style=&quot;font-size: 15px;&quot;&gt;SerÃ¡ responsabilidad de todos los gerentes involucrados directa o indirectamente en las actividades de compras y, particularmente del administrador de proyecto, resguardar en todo momento el buen nombre de KHAJEF, estableciendo y preservando relaciones adecuadas entre la compaÃ±Ã­a y sus proveedores corporativos y garantizando el uso de prÃ¡cticas de compras inobjetables.&lt;/font&gt;&lt;/span&gt;&lt;/div&gt;&lt;div style=&quot;text-align: justify; font-size: 15px;&quot;&gt;&lt;font style=&quot;font-size: 15px;&quot;&gt;&lt;br&gt;&lt;/font&gt;&lt;/div&gt;&lt;div style=&quot;text-align: justify; font-size: 15px;&quot;&gt;&lt;span style=&quot;background-color: initial;&quot;&gt;&lt;font style=&quot;font-size: 15px;&quot;&gt;Las siguientes prÃ¡cticas deben ser consideradas en toda acciÃ³n de compra:&lt;/font&gt;&lt;/span&gt;&lt;/div&gt;&lt;div style=&quot;text-align: justify; font-size: 15px;&quot;&gt;&lt;font style=&quot;font-size: 15px;&quot;&gt;&lt;br&gt;&lt;/font&gt;&lt;/div&gt;&lt;div style=&quot;text-align: justify; font-size: 15px;&quot;&gt;&lt;ul&gt;&lt;li&gt;&lt;span style=&quot;background-color: initial;&quot;&gt;&lt;font style=&quot;font-size: 15px;&quot;&gt;Considerar primero el interÃ©s de la compaÃ±Ã­a KHAJEF en todas las decisiones de compra, por sobre el interÃ©s particular de las Ã¡reas.&lt;/font&gt;&lt;/span&gt;&lt;/li&gt;&lt;/ul&gt;&lt;/div&gt;&lt;div style=&quot;text-align: justify; font-size: 15px;&quot;&gt;&lt;span style=&quot;background-color: initial;&quot;&gt;&lt;font style=&quot;font-size: 15px;&quot;&gt;&lt;br&gt;&lt;/font&gt;&lt;/span&gt;&lt;/div&gt;&lt;div style=&quot;text-align: justify; font-size: 15px;&quot;&gt;&lt;ul&gt;&lt;li&gt;&lt;span style=&quot;background-color: initial;&quot;&gt;&lt;font style=&quot;font-size: 15px;&quot;&gt;El personal encargado de interactuar en la adquisiciÃ³n de productos y servicios para KHAJEF, debe colocar Ã³rdenes de compra y preparar contratos con proveedores sin incurrir en favoritismos de ninguna Ã­ndole, privilegiando Ãºnicamente el interÃ©s global de la compaÃ±Ã­a.&lt;/font&gt;&lt;/span&gt;&lt;/li&gt;&lt;/ul&gt;&lt;/div&gt;	&lt;div style=&quot;text-align: justify; font-size: 15px;&quot;&gt;&lt;font style=&quot;font-size: 15px;&quot;&gt;&lt;br&gt;&lt;/font&gt;&lt;/div&gt;&lt;div style=&quot;text-align: justify; font-size: 15px;&quot;&gt;&lt;ul&gt;&lt;li&gt;&lt;span style=&quot;background-color: initial;&quot;&gt;&lt;font style=&quot;font-size: 15px;&quot;&gt;Toda compra o acuerdo con proveedores debe estar previamente autorizada por la instancia con las facultades o atribuciones de compra necesarias. No se debe comprometer recursos de la compaÃ±Ã­a ni celebrar contratos o generar Ã³rdenes de compras sin atribuciones para ello. La prÃ¡ctica de comprar primero y pedir autorizaciÃ³n despuÃ©s no es aceptable en KHAJEF.&lt;/font&gt;&lt;/span&gt;&lt;/li&gt;&lt;/ul&gt;&lt;/div&gt;	&lt;div style=&quot;text-align: justify; font-size: 15px;&quot;&gt;&lt;font style=&quot;font-size: 15px;&quot;&gt;&lt;br&gt;&lt;/font&gt;&lt;/div&gt;&lt;div style=&quot;text-align: justify; font-size: 15px;&quot;&gt;&lt;ul&gt;&lt;li&gt;&lt;span style=&quot;background-color: initial;&quot;&gt;&lt;font style=&quot;font-size: 15px;&quot;&gt;Tampoco se podrÃ¡n comprometer o adelantar dineros, sin las correspondientes garantÃ­as de fiel cumplimiento cuando corresponda.&lt;/font&gt;&lt;/span&gt;&lt;/li&gt;&lt;/ul&gt;&lt;/div&gt;	&lt;div style=&quot;text-align: justify; font-size: 15px;&quot;&gt;&lt;font style=&quot;font-size: 15px;&quot;&gt;&lt;br&gt;&lt;/font&gt;&lt;/div&gt;&lt;div style=&quot;text-align: justify; font-size: 15px;&quot;&gt;&lt;ul&gt;&lt;li&gt;&lt;span style=&quot;background-color: initial;&quot;&gt;&lt;font style=&quot;font-size: 15px;&quot;&gt;Promover una sana competencia entre los proveedores para obtener el mÃ¡ximo valor aÃ±adido para el negocio, sin perder de vista la misiÃ³n del KHAJEF en cuanto a desarrollar relaciones con proveedores, de mutuo beneficio, de largo plazo, con altos estÃ¡ndares de calidad, cumplimiento y de transparencia.&lt;/font&gt;&lt;/span&gt;&lt;/li&gt;&lt;/ul&gt;&lt;/div&gt;	&lt;div style=&quot;text-align: justify; font-size: 15px;&quot;&gt;&lt;font style=&quot;font-size: 15px;&quot;&gt;&lt;br&gt;&lt;/font&gt;&lt;/div&gt;&lt;div style=&quot;text-align: justify; font-size: 15px;&quot;&gt;&lt;ul&gt;&lt;li&gt;&lt;span style=&quot;background-color: initial;&quot;&gt;&lt;font style=&quot;font-size: 15px;&quot;&gt;Promover y fortalecer continuamente la transparencia, eficiencia y agilidad de los procesos de compra.&lt;/font&gt;&lt;/span&gt;&lt;/li&gt;&lt;/ul&gt;&lt;/div&gt;	&lt;div style=&quot;text-align: justify; font-size: 15px;&quot;&gt;&lt;font style=&quot;font-size: 15px;&quot;&gt;&lt;br&gt;&lt;/font&gt;&lt;/div&gt;&lt;div style=&quot;text-align: justify; font-size: 15px;&quot;&gt;&lt;ul&gt;&lt;li&gt;&lt;span style=&quot;background-color: initial;&quot;&gt;&lt;font style=&quot;font-size: 15px;&quot;&gt;No actuar con indiferencia o pasividad frente a prÃ¡cticas de compra observadas que sean impropias o reÃ±idas con el cÃ³digo de conducta de KHAJEF o con la polÃ­tica de compras.&lt;/font&gt;&lt;/span&gt;&lt;/li&gt;&lt;/ul&gt;&lt;/div&gt;" style="rounded=0;whiteSpace=wrap;fillColor=#B5B5B5;strokeColor=none;strokeWidth=2;labelPosition=center;verticalLabelPosition=middle;align=left;verticalAlign=top;spacing=0;html=1;" parent="1" vertex="1">
          <mxGeometry x="894" y="146" width="940" height="984" as="geometry" />
        </mxCell>
      </root>
    </mxGraphModel>
  </diagram>
  <diagram id="UJNcgpi3WuSoveYr3Upr" name="PÃ¡gina-3">
    <mxGraphModel dx="610" dy="863" grid="1" gridSize="10" guides="1" tooltips="1" connect="1" arrows="1" fold="1" page="1" pageScale="1" pageWidth="827" pageHeight="1169" math="0" shadow="0">
      <root>
        <mxCell id="0" />
        <mxCell id="1" parent="0" />
        <mxCell id="vjVRh_Uc5Gomx25ZACQK-1" value="" style="rounded=0;whiteSpace=wrap;html=1;fillColor=#707070;strokeColor=none;strokeWidth=2;" vertex="1" parent="1">
          <mxGeometry x="859" y="1050" width="1010" height="320" as="geometry" />
        </mxCell>
        <mxCell id="vjVRh_Uc5Gomx25ZACQK-2" style="edgeStyle=orthogonalEdgeStyle;rounded=0;orthogonalLoop=1;jettySize=auto;html=1;" edge="1" parent="1" source="vjVRh_Uc5Gomx25ZACQK-3" target="vjVRh_Uc5Gomx25ZACQK-8">
          <mxGeometry relative="1" as="geometry" />
        </mxCell>
        <mxCell id="vjVRh_Uc5Gomx25ZACQK-3" value="" style="rounded=0;whiteSpace=wrap;html=1;strokeColor=#F08705;fillColor=#F08705;strokeWidth=2;" vertex="1" parent="1">
          <mxGeometry x="859" y="20" width="1010" height="125" as="geometry" />
        </mxCell>
        <mxCell id="vjVRh_Uc5Gomx25ZACQK-4" value="&lt;div style=&quot;border-color: var(--border-color); font-family: Tahoma; font-size: 23px; text-align: justify;&quot;&gt;&lt;br&gt;&lt;/div&gt;" style="rounded=0;whiteSpace=wrap;html=1;fillColor=#B5B5B5;strokeColor=none;strokeWidth=2;fontColor=#ffffff;labelPosition=center;verticalLabelPosition=middle;align=center;verticalAlign=top;" vertex="1" parent="1">
          <mxGeometry x="859" y="145" width="1010" height="995" as="geometry" />
        </mxCell>
        <mxCell id="vjVRh_Uc5Gomx25ZACQK-5" value="" style="shape=image;aspect=fixed;image=data:image/svg+xml,PD94bWwgdmVyc2lvbj0iMS4wIiBlbmNvZGluZz0iVVRGLTgiIHN0YW5kYWxvbmU9Im5vIj8+CjwhLS0gQ3JlYXRlZCB3aXRoIElua3NjYXBlIChodHRwOi8vd3d3Lmlua3NjYXBlLm9yZy8pIC0tPgoKPHN2ZwogICB3aWR0aD0iMjEwLjg3MjkxbW0iCiAgIGhlaWdodD0iMjE2LjE2NDU4bW0iCiAgIHZpZXdCb3g9IjAgMCAyMTAuODcyOTEgMjE2LjE2NDU4IgogICB2ZXJzaW9uPSIxLjEiCiAgIGlkPSJzdmc1IgogICB4bWw6c3BhY2U9InByZXNlcnZlIgogICBpbmtzY2FwZTp2ZXJzaW9uPSIxLjIuMiAoNzMyYTAxZGE2MywgMjAyMi0xMi0wOSkiCiAgIHNvZGlwb2RpOmRvY25hbWU9IkxvZ28uc3ZnIgogICB4bWxuczppbmtzY2FwZT0iaHR0cDovL3d3dy5pbmtzY2FwZS5vcmcvbmFtZXNwYWNlcy9pbmtzY2FwZSIKICAgeG1sbnM6c29kaXBvZGk9Imh0dHA6Ly9zb2RpcG9kaS5zb3VyY2Vmb3JnZS5uZXQvRFREL3NvZGlwb2RpLTAuZHRkIgogICB4bWxucz0iaHR0cDovL3d3dy53My5vcmcvMjAwMC9zdmciCiAgIHhtbG5zOnN2Zz0iaHR0cDovL3d3dy53My5vcmcvMjAwMC9zdmciPjxzb2RpcG9kaTpuYW1lZHZpZXcKICAgICBpZD0ibmFtZWR2aWV3NyIKICAgICBwYWdlY29sb3I9IiNmZmZmZmYiCiAgICAgYm9yZGVyY29sb3I9IiMwMDAwMDAiCiAgICAgYm9yZGVyb3BhY2l0eT0iMC4yNSIKICAgICBpbmtzY2FwZTpzaG93cGFnZXNoYWRvdz0iMiIKICAgICBpbmtzY2FwZTpwYWdlb3BhY2l0eT0iMC4wIgogICAgIGlua3NjYXBlOnBhZ2VjaGVja2VyYm9hcmQ9IjAiCiAgICAgaW5rc2NhcGU6ZGVza2NvbG9yPSIjZDFkMWQxIgogICAgIGlua3NjYXBlOmRvY3VtZW50LXVuaXRzPSJtbSIKICAgICBzaG93Z3JpZD0iZmFsc2UiCiAgICAgaW5rc2NhcGU6em9vbT0iMC42NjE0MjQ1OSIKICAgICBpbmtzY2FwZTpjeD0iNTE1LjU1Mzg2IgogICAgIGlua3NjYXBlOmN5PSI0NTguMTAyMTEiCiAgICAgaW5rc2NhcGU6d2luZG93LXdpZHRoPSIxMzY2IgogICAgIGlua3NjYXBlOndpbmRvdy1oZWlnaHQ9IjcwNSIKICAgICBpbmtzY2FwZTp3aW5kb3cteD0iLTgiCiAgICAgaW5rc2NhcGU6d2luZG93LXk9Ii04IgogICAgIGlua3NjYXBlOndpbmRvdy1tYXhpbWl6ZWQ9IjEiCiAgICAgaW5rc2NhcGU6Y3VycmVudC1sYXllcj0ibGF5ZXIxIiAvPjxkZWZzCiAgICAgaWQ9ImRlZnMyIiAvPjxnCiAgICAgaW5rc2NhcGU6bGFiZWw9IkNhcGEgMSIKICAgICBpbmtzY2FwZTpncm91cG1vZGU9ImxheWVyIgogICAgIGlkPSJsYXllcjEiCiAgICAgdHJhbnNmb3JtPSJ0cmFuc2xhdGUoMTIuNjU5MzEyLC0zNi43NDA1NjYpIj48cGF0aAogICAgICAgc3R5bGU9ImZpbGw6IzAwMDAwMDtzdHJva2Utd2lkdGg6MC4yNjQ1ODMiCiAgICAgICBkPSJtIDEwNi4xMDM2NywyMDguNjQyNDYgYyAtMi4wNTUyMiwtMC43MzI1OCAtMy41MTY1NiwtMi44NDg4IC0zLjI5NzY2LC00Ljc3NTQ2IDAuMDg3OSwtMC43NzMyOSAwLjEyMjk2LC0wLjc5MDU0IDEuNzY2MzksLTAuODY4MzMgMS44NTUwNywtMC4wODc4IDIuMjg4MDQsMC4xMjU2OCAyLjUxMDQ5LDEuMjM3OTQgMC4yNjcyLDEuMzM1OTkgMi41MDI2MiwxLjY4NjQ5IDMuMjYxNTQsMC41MTEzOSAwLjEyMzI4LC0wLjE5MDg4IDAuMjgzNjcsLTMuMzgzMTQgMC4zNTY0MywtNy4wOTM5MiBsIDAuMTMyMywtNi43NDY4OCBoIDEuOTg0MzcgMS45ODQzOCBsIDAuMDc5Miw2LjYxNDU5IGMgMC4wNTA4LDQuMjQzNDMgLTAuMDI0Niw2Ljk3MTgyIC0wLjIxMDM4LDcuNjExMTUgLTAuMzc5NTEsMS4zMDYxNSAtMS43MTY1MiwyLjgwMjgzIC0zLjA0MTU0LDMuNDA0NzggLTEuMjgxMzQsMC41ODIxIC00LjAzOTYyLDAuNjM0MzggLTUuNTI1NTEsMC4xMDQ3NCB6IG0gLTU1LjA3MzkyMiwtMC4xOTcwOSBjIC0wLjA3MjcyLC0wLjE4OTUxIC0wLjEwMDc2MywtNC4yMTMxMSAtMC4wNjIzMiwtOC45NDEzNiBsIDAuMDY5ODksLTguNTk2ODEgaCAxLjk4NDM3NSAxLjk4NDM3NSBsIDAuMDc0MjksMy4yNDExNSBjIDAuMDQwODYsMS43ODI2MyAwLjE1OTkyMiwzLjI0MTA4IDAuMjY0NTgzLDMuMjQxMDEgMC4xMDQ2NjIsLThlLTUgMS4wMTQ1ODIsLTEuMTAxNDEgMi4wMjIwNDQsLTIuNDQ3NCAzLjE4MTI5NCwtNC4yNTAyOCAzLjA2ODg3NiwtNC4xNjcwNSA1LjYyODQ4NiwtNC4xNjcwNSAxLjg1MjQwMSwwIDIuMTk3MDU1LDAuMDY3NSAyLjE5NzA1NSwwLjQzMDMgMCwwLjIzNjY2IC0xLjI1MDE1NiwyLjAyMTM3IC0yLjc3ODEyNSwzLjk2NiAtMS41Mjc5NjgsMS45NDQ2NCAtMi43NzgxMjQsMy41OTQ0MiAtMi43NzgxMjQsMy42NjYxNyAwLDAuMDcxOCAxLjMwOTY4NywyLjEzNzQ5IDIuOTEwNDE2LDQuNTkwNTEgMS42MDA3MjksMi40NTMwMiAyLjkxMDQxNyw0LjY1Nzc0IDIuOTEwNDE3LDQuODk5MzcgMCwwLjM3NDk2IC0wLjMyOTkyNSwwLjQzOTMyIC0yLjI1MjI0NSwwLjQzOTMyIGggLTIuMjUyMjQ0IGwgLTAuOTcwMDQ3LC0xLjUyMTM2IGMgLTAuNTMzNTI1LC0wLjgzNjc0IC0xLjQ5NDYzOSwtMi4zNDE5OSAtMi4xMzU4MDksLTMuMzQ0OTkgbCAtMS4xNjU3NjgsLTEuODIzNjQgLTAuNzA1MTczLDAuNzAzOTYgYyAtMC42NDMwMDMsMC42NDE5IC0wLjcxNjgzNSwwLjkzMDk3IC0wLjgzNzQ2NCwzLjI3ODg1IGwgLTAuMTMyMjkyLDIuNTc0ODkgLTEuOTIyMDU1LDAuMDc3OCBjIC0xLjM5MjY5NSwwLjA1NjQgLTEuOTU4NDY5LC0wLjAxNzEgLTIuMDU0MjcsLTAuMjY2NzMgeiBtIDE2LjY2ODc1LDAgYyAtMC4wNzI3MiwtMC4xODk1MSAtMC4xMDA3NjQsLTQuMjEzMTEgLTAuMDYyMzIsLTguOTQxMzYgbCAwLjA2OTg5LC04LjU5NjgxIGggMS45ODQzNzUgMS45ODQzNzUgbCAwLjEzMjI5MSwzLjQzOTU5IDAuMTMyMjkyLDMuNDM5NTggaCAzLjA0MjcwOCAzLjA0MjcwOSBsIDAuMTMyMjkxLC0zLjQzOTU4IDAuMTMyMjkyLC0zLjQzOTU5IGggMS45ODQzNzUgMS45ODQzNzUgdiA4Ljg2MzU0IDguODYzNTUgaCAtMS45ODQzNzUgLTEuOTg0Mzc1IGwgLTAuMTMyMjkyLC0zLjU3MTg4IC0wLjEzMjI5MSwtMy41NzE4NyBoIC0zLjA0MjcwOSAtMy4wNDI3MDggbCAtMC4xMzIyOTIsMy41NzE4NyAtMC4xMzIyOTEsMy41NzE4OCAtMS45MjIwNTUsMC4wNzc4IGMgLTEuMzkyNjk1LDAuMDU2NCAtMS45NTg0NywtMC4wMTcxIC0yLjA1NDI3LC0wLjI2NjczIHogbSAxNy4zNTY3ODgsLTAuMDUyOCBjIC0wLjI0NTAyLC0wLjI5NTIzIDAuMDQ4MSwtMS4zMzk3OSAxLjM5MjExMywtNC45NjA5NCAwLjkzNjM2NiwtMi41MjI4MiAyLjMzMDg3LC02LjMxMzM2IDMuMDk4ODk4LC04LjQyMzQyIDAuNzY4MDI3LC0yLjExMDA1IDEuNTEwNzk3LC0zLjk4NTI4IDEuNjUwNTk1LC00LjE2NzE4IDAuMTU1NDM1LC0wLjIwMjI1IDAuODk3MTMzLC0wLjMzMDczIDEuOTA5MTgsLTAuMzMwNzMgMS4wMDg3NzQsMCAxLjc1NjY0MywwLjEyOTEzIDEuOTE1MzE0LDAuMzMwNzMgMC40NjI2MTYsMC41ODc3NSA2LjQ0NzY3NCwxNi45MTk5MiA2LjM2MzEwNCwxNy4zNjM4IC0wLjA2NDIsMC4zMzcxMSAtMC40NzM3MiwwLjQ0NjQ0IC0xLjkwNDkyNiwwLjUwODU3IC0xLjA1MzY3NiwwLjA0NTcgLTEuOTQyODcyLC0wLjA0MDYgLTIuMTA2ODU4LC0wLjIwNDU5IC0wLjE1NjA1NywtMC4xNTYwNiAtMC41MjU1MzcsLTAuOTY1NTggLTAuODIxMDY2LC0xLjc5ODk0IGwgLTAuNTM3MzI2LC0xLjUxNTIgaCAtMi44ODQwODMgLTIuODg0MDggbCAtMC40ODM0NTIsMS40MjIzIGMgLTAuMjY1ODk4LDAuNzgyMjYgLTAuNjE5MjYyLDEuNTg1OTMgLTAuNzg1MjQ5LDEuNzg1OTMgLTAuNDE4OTgsMC41MDQ4NSAtMy41MDEzNDcsMC40OTY3MiAtMy45MjIxNjQsLTAuMDEwMyB6IG0gMzMuNDgwOTc0LC0wLjAzOTYgYyAtMC4yNDMzMywtMC42MzQxMSAtMC4xODc5OSwtMTYuODYzNjIgMC4wNTg4LC0xNy4yNTI1IDAuMTY0MjMsLTAuMjU4NzQgMS41NzY1OCwtMC4zMTk1MyA2LjE0NzUxLC0wLjI2NDU4IGwgNS45MzQzMSwwLjA3MTMgdiAxLjU4NzUgMS41ODc1IGwgLTMuOTAyNjEsMC4wNzMyIC0zLjkwMjYsMC4wNzMyIHYgMS44NDUwMSAxLjg0NTAxIGggMy4xNTkzOCBjIDMuNDEzNzYsMCAzLjQ3MjUxLDAuMDI0MyAzLjYzNTI1LDEuNTAxMDUgMC4xOTczOCwxLjc5MTA5IC0wLjA3ODYsMS45Mzg1MyAtMy42Mjg5NCwxLjkzODUzIGggLTMuMTY1NjkgdiAxLjk3NzMxIDEuOTc3MyBsIDMuOTAyNiwwLjA3MzIgMy45MDI2MSwwLjA3MzIgdiAxLjU4NzUgMS41ODc1IGwgLTUuOTg5MDksMC4wNzEgYyAtNS4yODgyMSwwLjA2MjcgLTYuMDA4MSwwLjAyMTUgLTYuMTUxNTYsLTAuMzUyMzcgeiBtIDE0Ljc4MzY3LC0wLjE4MTY5IGMgLTAuMDc5OCwtMC4zMjc0MiAtMC4xMTE4OCwtNC4zNDU3OCAtMC4wNzEyLC04LjkyOTY4IGwgMC4wNzQsLTguMzM0MzggaCA1Ljk1MzEyIDUuOTUzMTMgdiAxLjU4NzUgMS41ODc1IGwgLTMuNjkzMzksMC4wNzQgYyAtMi4wMzEzNiwwLjA0MDcgLTMuNzU3NzcsMC4xNzczMyAtMy44MzY0NiwwLjMwMzY1IC0wLjA3ODcsMC4xMjYzMiAtMC4xMDMxNCwxLjAxNTc2IC0wLjA1NDMsMS45NzY1NSBsIDAuMDg4NywxLjc0Njg3IGggMy4yODQ3MiBjIDIuNDQwNTksMCAzLjI4OTkyLDAuMDg1IDMuMzA0OTYsMC4zMzA3MyAwLjAxMTEsMC4xODE5IDAuMDcxNCwwLjU2ODg2IDAuMTMzODYsMC44NTk5IDAuMDYyNSwwLjI5MTA0IDAuMDQ4LDAuOTE2MTIgLTAuMDMyMiwxLjM4OTA2IGwgLTAuMTQ1ODQsMC44NTk5IGggLTMuMjk1MyAtMy4yOTUzMSBsIC0wLjAwNCwyLjk3NjU2IGMgLTAuMDA1LDQuMzA5NTkgMC4wNzI0LDQuMTY3MTkgLTIuMjcxMTcsNC4xNjcxOSAtMS44MDEyNCwwIC0xLjk1OTQ1LC0wLjA0NSAtMi4wOTM2NSwtMC41OTUzMiB6IE0gOTQuMTY0NDA1LDE3MS45NDE4NyBjIC0yLjAzNzI5MSwtMS4xNzk0MiAtNC4wNjEzNTQsLTIuMzUxOTIgLTQuNDk3OTE2LC0yLjYwNTU1IC02Ljk4MjcwOSwtNC4wNTY3IC0xMS4xNTQ1NDcsLTYuNDYyNjEgLTEzLjc1ODMzMywtNy45MzQ0NyAtMS43NDYyNSwtMC45ODcxIC0zLjg4OTM3NSwtMi4yMjAwNSAtNC43NjI1LC0yLjczOTg3IC0wLjg3MzEyNSwtMC41MTk4MSAtMi4wOTQzNDksLTEuMjQzNjkgLTIuNzEzODMxLC0xLjYwODYxIGwgLTEuMTI2MzI5LC0wLjY2MzUgMC4wNjgsLTE3LjkyNTk0IDAuMDY4LC0xNy45MjU5MyAzLjA0MjcwOCwtMS43NTI4NyBjIDEuNjczNDg5LC0wLjk2NDA4IDguMTAyODY0LC00LjY3NDg2IDE0LjI4NzQ5OSwtOC4yNDYxOSA2LjE4NDYzNiwtMy41NzEzMyAxMS43NDM1ODIsLTYuNzUxODcgMTIuMzUzMjEzLC03LjA2Nzg2IGwgMS4xMDg0MjUsLTAuNTc0NTIgNS4zNzM4NjksMy4wOTQ4NiBjIDIuOTU1NjMsMS43MDIxNyA4LjQ2OTUsNC44ODU2NCAxMi4yNTMwNCw3LjA3NDM2IDMuNzgzNTQsMi4xODg3NCA4LjI0ODM4LDQuNzcwNzMgOS45MjE4Nyw1LjczNzc4IGwgMy4wNDI3MSwxLjc1ODI2IDAuMDY4LDE3LjkwMzY1IDAuMDY4LDE3LjkwMzY1IC0wLjk5NDA0LDAuNjMxMiBjIC0yLjE3MTQ1LDEuMzc4ODQgLTI5LjY0MTI5MywxNy4xMDUyIC0yOS44NjIwODMsMTcuMDk1OSAtMC4xMjk4NjUsLTAuMDA1IC0xLjkwMjk5NCwtMC45NzQ5MiAtMy45NDAyODYsLTIuMTU0MzUgeiBtIDE3LjcyNzA4NSwtOS41OTQxMSAxMy40OTM3NSwtNy43ODc3NCAwLjA2NzcsLTE1Ljk1NzY2IDAuMDY3NywtMTUuOTU3NjYgLTMuNjM5NTUsLTIuMTQwNDIgYyAtMi4wMDE3NSwtMS4xNzcyMyAtNS4yNDY4OSwtMy4wNjggLTcuMjExNDMsLTQuMjAxNzEgLTEuOTY0NTMsLTEuMTMzNzEgLTQuOTQxMDksLTIuODU3NjQgLTYuNjE0NTgsLTMuODMwOTUgLTUuODMxODIsLTMuMzkxODMgLTkuNzE1MDE1LC01LjU2OTYzIC05LjkzMTEwMSwtNS41Njk2MyAtMC4xMTk2NzEsMCAtNi4zMjgwMzQsMy41MjUxOSAtMTMuNzk2MzY0LDcuODMzNzYgbCAtMTMuNTc4Nzg0LDcuODMzNzUgdiAxNS45NjMgMTUuOTYyOTkgbCAyLjA1MDUyMSwxLjE3MTA4IGMgMS45MjIwNSwxLjA5NzcgNS44NTI2MTUsMy4zNjI4MyAxMS43MDc4MTIsNi43NDcwNSAxLjM4MjQ0OCwwLjc5OTA0IDIuODExMTk4LDEuNjE2ODIgMy4xNzUsMS44MTcyOSAwLjM2MzgwMiwwLjIwMDQ3IDIuNzQ1MDUyLDEuNjAwMDUgNS4yOTE2NjYsMy4xMTAxNyAyLjU0NjYxNSwxLjUxMDExIDQuODA4ODAyLDIuNzU2NjQgNS4wMjcwODQsMi43NzAwNCAwLjIxODI4MSwwLjAxMzQgNi40NjkwNjYsLTMuNDgwMSAxMy44OTA2MjYsLTcuNzYzMzYgeiBtIC0xNS4wODEyNTEsLTkuMDUwNzQgYyAtMC40MzY1NjMsLTAuMjI4MjggLTEuNjg2NzE5LC0wLjkzMDU5IC0yLjc3ODEyNSwtMS41NjA3MSAtMy40NDIzNTksLTEuOTg3NDIgLTMuMzg2MzYzLC0xLjk2NzAzIC00LjMyNTY1MiwtMS41NzQ3MSAtMC43OTc1MjgsMC4zMzMxMSAtMC45NTQzMzEsMC4yODE2NSAtMy42MTE4NDgsLTEuMTg1MzMgLTEuNjE2MDkzLC0wLjg5MjEgLTIuOTE0ODMsLTEuNzk1IC0zLjEwNDk1NCwtMi4xNTg2IC0wLjM0NzQ4LC0wLjY2NDU0IC0wLjQ1MDY1MiwtNC4zNDQ0MSAtMC4xNjIyMzUsLTUuNzg2NSAwLjEyOTAxNiwtMC42NDUwOSAwLjQ1OTc3NywtMS4wMzYyIDEuMzE0NTU0LC0xLjU1NDQzIGwgMS4xNDIxNTgsLTAuNjkyNDUgMC4wMTE5OSwtMi41MTM1NSBjIDAuMDA2NiwtMS4zODI0NCAwLjA3OTMsLTIuNzY0MzMgMC4xNjE1NzUsLTMuMDcwODUgMC4wOTk1LC0wLjM3MDY5IDEuMjA1NzY4LC0xLjE1NTMxIDMuMzAzNjc4LC0yLjM0MzE0IGwgMy4xNTQwNzEsLTEuNzg1ODMgdiAtMS4xNDkxMiBjIDAsLTAuOTg5NTcgMC4xMTkzOTksLTEuMjM3NDUgMC44NTk4OTYsLTEuNzg1MjcgMS4zMDM2MSwtMC45NjQ0MSA0LjgzMzE3MywtMi44MzAzNyA1LjM1Mzc4OCwtMi44MzAzNyAwLjQyNTAxNiwwIDEuNzc0MDg3LDAuNjc5OTYgNC45NjQ5NjUsMi41MDI0MyAxLjIyOTUsMC43MDIyNCAxLjI1Njc3LDAuNzQ1ODIgMS4yNTY3NywyLjAwODc0IHYgMS4yOTA5MiBsIDIuOTAwOTksMS42MjQ1NSBjIDEuNTk1NTUsMC44OTM1MSAzLjA1NDA2LDEuODA5MTEgMy4yNDExNCwyLjAzNDY3IDAuMTg3MDksMC4yMjU1NiAwLjM0Nzc0LDAuODk3NzEgMC4zNTcsMS40OTM2NyAwLjAwOSwwLjU5NTk2IDAuMDM5LDEuODY3NTYgMC4wNjYxLDIuODI1NzggbCAwLjA0OTMsMS43NDIyMiAxLjI1Njc3LDAuNjM5MDMgMS4yNTY3NywwLjYzOTAzIDAuMDc0NCwyLjkzNzUxIGMgMC4wNDA5LDEuNjE1NjMgLTAuMDQxNCwzLjI0MjExIC0wLjE4MjkxLDMuNjE0NDEgLTAuMTc5OCwwLjQ3MjkzIC0xLjA1MTMxLDEuMTIyNTIgLTIuODkyMTgsMi4xNTU3MiAtMi42MzU1NiwxLjQ3OTI0IC0zLjM3NzU5LDEuNjk0NzMgLTQuMjQyMjUsMS4yMzE5OCAtMC4zNTMzOSwtMC4xODkxMyAtMS4yOTI3NiwwLjIxMjA2IC00LjAxNzUsMS43MTU4MiAtMS45NTU5NSwxLjA3OTQ2IC0zLjc5NDM4OSwxLjk1OTY4IC00LjA4NTQzMSwxLjk1NjA0IC0wLjI5MTA0MSwtMC4wMDQgLTAuODg2MzU0LC0wLjE5MzM5IC0xLjMyMjkxNiwtMC40MjE2NiB6IG0gNC4xMjc1ODEsLTMuMTUwNTUgYyAxLjQ0MDYxLC0wLjgwODU1IDIuNjE5MjksLTEuNTIxOTkgMi42MTkyOSwtMS41ODU0MSAwLC0wLjA2MzQgLTAuNDQzMjUsLTAuMzI0NjEgLTAuOTg1LC0wLjU4MDQyIC0wLjU0MTc1LC0wLjI1NTgxIC0xLjEzNTMsLTAuNzYyNzYgLTEuMzE5MDEsLTEuMTI2NTYgLTAuNDQyNCwtMC44NzYwOCAtMC40NDMxNywtNS40NzI4MSAtMC4wMDEsLTYuMzQ2NTkgMC4yMDEsLTAuMzk3MjcgMS4zMjY2MiwtMS4yMTI2NSAyLjg0MDM3LC0yLjA1NzUxIDIuMjE5MjgsLTEuMjM4NjMgMi42MzgwMywtMS4zODM4NCAzLjY0MzkyLC0xLjI2MzU5IGwgMS4xMzY0OSwwLjEzNTg2IC0wLjA3ODIsLTEuNzc1MDUgLTAuMDc4MiwtMS43NzUwNSAtMS45ODQzOCwtMS4xMTQzOSBjIC0xLjA5MTQxLC0wLjYxMjkxIC0yLjA3MzY4LC0xLjEyMjI5IC0yLjE4MjgyLC0xLjEzMTk1IC0wLjEwOTE0LC0wLjAxIC0wLjE5ODQzLDAuMzk3NjYgLTAuMTk4NDMsMC45MDUxNiAwLDEuMDM0NjcgLTAuMjI1NjcsMS4yMTYzOSAtNC4xMjQ1NiwzLjMyMTMzIGwgLTIuMTQwMTcsMS4xNTU0NSAtMy4wMTkyLC0xLjcxMjQgYyAtMi45Mzc5NTIsLTEuNjY2MzIgLTMuMDIxNDIyLC0xLjczODk4IC0zLjEwMTMzMiwtMi42OTk3NiAtMC4wNDUxNiwtMC41NDMwNCAtMC4xMTk4MzUsLTAuOTg3MzUgLTAuMTY1OTM2LC0wLjk4NzM1IC0wLjA0NjEsMCAtMS4wMjExNzgsMC41MTc3NiAtMi4xNjY4MzksMS4xNTA1OCBsIC0yLjA4MzAyMywxLjE1MDU3IC0wLjA3ODM1LDEuNzY0OTIgLTAuMDc4MzUsMS43NjQ5MyAxLjA2NTAzMiwtMC4xNzAzMSBjIDAuOTQ2OTI2LC0wLjE1MTQyIDEuMzM3MDU2LC0wLjAxOSAzLjUxNzkzNSwxLjE5NDI2IDEuMzQ5MDk0LDAuNzUwNTEgMi42MzE0OTMsMS40NjI1NyAyLjg0OTc3NCwxLjU4MjM2IDAuMzAyMTg2LDAuMTY1ODQgMC40MTU5MTQsMC44NDIzNyAwLjQ3NjY3LDIuODM1NTYgMC4xMTQ5MzUsMy43NzA0OCAtMC4wMDg0LDQuMjA5ODEgLTEuNDMwNDg4LDUuMDk0OTMgLTEuMjgxMDE3LDAuNzk3MzMgLTEuMjY0NDgxLDAuODkyNTIgMC4yOTIzNTksMS42ODI5MyAwLjQzNjU2MywwLjIyMTY0IDEuNDQ4NTk0LDAuNzczMTIgMi4yNDg5NTksMS4yMjU1IDAuODAwMzY0LDAuNDUyMzkgMS41NTY0NDgsMC44MjQ2OCAxLjY4MDE4NiwwLjgyNzMxIDAuMTIzNzM1LDAuMDAzIDEuNDAzNjU3LC0wLjY1Njc1IDIuODQ0MjczLC0xLjQ2NTMxIHogTSAtNy41Njc4ODM0LDUwLjgwNTA2MiBjIDAsLTAuMTA4NjggMC4yNjc4OTEsLTAuMjY5MzkxIDAuNTk1MzEyLC0wLjM1NzEzNyAxLjA3MjUxOSwtMC4yODc0MjQgMjA5Ljk2NzMxMTQsLTAuMTkwMTg2IDIxMC4xNDUzMTE0LDAuMDk3ODIgMC4xMDg4OSwwLjE3NjE5NyAtMzQuODY0NjksMC4yNzU4NjMgLTEwNC42OTMyNCwwLjI5ODM1IC01Ny42NzEyMTcsMC4wMTg1NyAtMTA1LjEyNDY0OTQsMC4wNjE4NSAtMTA1LjQ1MjA3MTQsMC4wOTYxNyAtMC4zMjc0MjEsMC4wMzQzMiAtMC41OTUzMTIsLTAuMDI2NTIgLTAuNTk1MzEyLC0wLjEzNTIgeiIKICAgICAgIGlkPSJwYXRoMTk1IiAvPjwvZz48L3N2Zz4K;clipPath=inset(29.33% 24.06% 34.67% 28.84%);" vertex="1" parent="1">
          <mxGeometry x="840" y="24" width="149.49" height="117" as="geometry" />
        </mxCell>
        <mxCell id="vjVRh_Uc5Gomx25ZACQK-6" value="" style="shape=image;aspect=fixed;image=data:image/svg+xml,PD94bWwgdmVyc2lvbj0iMS4wIiBlbmNvZGluZz0iVVRGLTgiIHN0YW5kYWxvbmU9Im5vIj8+CjwhLS0gQ3JlYXRlZCB3aXRoIElua3NjYXBlIChodHRwOi8vd3d3Lmlua3NjYXBlLm9yZy8pIC0tPgoKPHN2ZwogICB3aWR0aD0iMjEwLjg3MjkxbW0iCiAgIGhlaWdodD0iMjE2LjE2NDU4bW0iCiAgIHZpZXdCb3g9IjAgMCAyMTAuODcyOTEgMjE2LjE2NDU4IgogICB2ZXJzaW9uPSIxLjEiCiAgIGlkPSJzdmc1IgogICB4bWw6c3BhY2U9InByZXNlcnZlIgogICBpbmtzY2FwZTp2ZXJzaW9uPSIxLjIuMiAoNzMyYTAxZGE2MywgMjAyMi0xMi0wOSkiCiAgIHNvZGlwb2RpOmRvY25hbWU9IkxvZ28uc3ZnIgogICB4bWxuczppbmtzY2FwZT0iaHR0cDovL3d3dy5pbmtzY2FwZS5vcmcvbmFtZXNwYWNlcy9pbmtzY2FwZSIKICAgeG1sbnM6c29kaXBvZGk9Imh0dHA6Ly9zb2RpcG9kaS5zb3VyY2Vmb3JnZS5uZXQvRFREL3NvZGlwb2RpLTAuZHRkIgogICB4bWxucz0iaHR0cDovL3d3dy53My5vcmcvMjAwMC9zdmciCiAgIHhtbG5zOnN2Zz0iaHR0cDovL3d3dy53My5vcmcvMjAwMC9zdmciPjxzb2RpcG9kaTpuYW1lZHZpZXcKICAgICBpZD0ibmFtZWR2aWV3NyIKICAgICBwYWdlY29sb3I9IiNmZmZmZmYiCiAgICAgYm9yZGVyY29sb3I9IiMwMDAwMDAiCiAgICAgYm9yZGVyb3BhY2l0eT0iMC4yNSIKICAgICBpbmtzY2FwZTpzaG93cGFnZXNoYWRvdz0iMiIKICAgICBpbmtzY2FwZTpwYWdlb3BhY2l0eT0iMC4wIgogICAgIGlua3NjYXBlOnBhZ2VjaGVja2VyYm9hcmQ9IjAiCiAgICAgaW5rc2NhcGU6ZGVza2NvbG9yPSIjZDFkMWQxIgogICAgIGlua3NjYXBlOmRvY3VtZW50LXVuaXRzPSJtbSIKICAgICBzaG93Z3JpZD0iZmFsc2UiCiAgICAgaW5rc2NhcGU6em9vbT0iMC42NjE0MjQ1OSIKICAgICBpbmtzY2FwZTpjeD0iNTE1LjU1Mzg2IgogICAgIGlua3NjYXBlOmN5PSI0NTguMTAyMTEiCiAgICAgaW5rc2NhcGU6d2luZG93LXdpZHRoPSIxMzY2IgogICAgIGlua3NjYXBlOndpbmRvdy1oZWlnaHQ9IjcwNSIKICAgICBpbmtzY2FwZTp3aW5kb3cteD0iLTgiCiAgICAgaW5rc2NhcGU6d2luZG93LXk9Ii04IgogICAgIGlua3NjYXBlOndpbmRvdy1tYXhpbWl6ZWQ9IjEiCiAgICAgaW5rc2NhcGU6Y3VycmVudC1sYXllcj0ibGF5ZXIxIiAvPjxkZWZzCiAgICAgaWQ9ImRlZnMyIiAvPjxnCiAgICAgaW5rc2NhcGU6bGFiZWw9IkNhcGEgMSIKICAgICBpbmtzY2FwZTpncm91cG1vZGU9ImxheWVyIgogICAgIGlkPSJsYXllcjEiCiAgICAgdHJhbnNmb3JtPSJ0cmFuc2xhdGUoMTIuNjU5MzEyLC0zNi43NDA1NjYpIj48cGF0aAogICAgICAgc3R5bGU9ImZpbGw6IzAwMDAwMDtzdHJva2Utd2lkdGg6MC4yNjQ1ODMiCiAgICAgICBkPSJtIDEwNi4xMDM2NywyMDguNjQyNDYgYyAtMi4wNTUyMiwtMC43MzI1OCAtMy41MTY1NiwtMi44NDg4IC0zLjI5NzY2LC00Ljc3NTQ2IDAuMDg3OSwtMC43NzMyOSAwLjEyMjk2LC0wLjc5MDU0IDEuNzY2MzksLTAuODY4MzMgMS44NTUwNywtMC4wODc4IDIuMjg4MDQsMC4xMjU2OCAyLjUxMDQ5LDEuMjM3OTQgMC4yNjcyLDEuMzM1OTkgMi41MDI2MiwxLjY4NjQ5IDMuMjYxNTQsMC41MTEzOSAwLjEyMzI4LC0wLjE5MDg4IDAuMjgzNjcsLTMuMzgzMTQgMC4zNTY0MywtNy4wOTM5MiBsIDAuMTMyMywtNi43NDY4OCBoIDEuOTg0MzcgMS45ODQzOCBsIDAuMDc5Miw2LjYxNDU5IGMgMC4wNTA4LDQuMjQzNDMgLTAuMDI0Niw2Ljk3MTgyIC0wLjIxMDM4LDcuNjExMTUgLTAuMzc5NTEsMS4zMDYxNSAtMS43MTY1MiwyLjgwMjgzIC0zLjA0MTU0LDMuNDA0NzggLTEuMjgxMzQsMC41ODIxIC00LjAzOTYyLDAuNjM0MzggLTUuNTI1NTEsMC4xMDQ3NCB6IG0gLTU1LjA3MzkyMiwtMC4xOTcwOSBjIC0wLjA3MjcyLC0wLjE4OTUxIC0wLjEwMDc2MywtNC4yMTMxMSAtMC4wNjIzMiwtOC45NDEzNiBsIDAuMDY5ODksLTguNTk2ODEgaCAxLjk4NDM3NSAxLjk4NDM3NSBsIDAuMDc0MjksMy4yNDExNSBjIDAuMDQwODYsMS43ODI2MyAwLjE1OTkyMiwzLjI0MTA4IDAuMjY0NTgzLDMuMjQxMDEgMC4xMDQ2NjIsLThlLTUgMS4wMTQ1ODIsLTEuMTAxNDEgMi4wMjIwNDQsLTIuNDQ3NCAzLjE4MTI5NCwtNC4yNTAyOCAzLjA2ODg3NiwtNC4xNjcwNSA1LjYyODQ4NiwtNC4xNjcwNSAxLjg1MjQwMSwwIDIuMTk3MDU1LDAuMDY3NSAyLjE5NzA1NSwwLjQzMDMgMCwwLjIzNjY2IC0xLjI1MDE1NiwyLjAyMTM3IC0yLjc3ODEyNSwzLjk2NiAtMS41Mjc5NjgsMS45NDQ2NCAtMi43NzgxMjQsMy41OTQ0MiAtMi43NzgxMjQsMy42NjYxNyAwLDAuMDcxOCAxLjMwOTY4NywyLjEzNzQ5IDIuOTEwNDE2LDQuNTkwNTEgMS42MDA3MjksMi40NTMwMiAyLjkxMDQxNyw0LjY1Nzc0IDIuOTEwNDE3LDQuODk5MzcgMCwwLjM3NDk2IC0wLjMyOTkyNSwwLjQzOTMyIC0yLjI1MjI0NSwwLjQzOTMyIGggLTIuMjUyMjQ0IGwgLTAuOTcwMDQ3LC0xLjUyMTM2IGMgLTAuNTMzNTI1LC0wLjgzNjc0IC0xLjQ5NDYzOSwtMi4zNDE5OSAtMi4xMzU4MDksLTMuMzQ0OTkgbCAtMS4xNjU3NjgsLTEuODIzNjQgLTAuNzA1MTczLDAuNzAzOTYgYyAtMC42NDMwMDMsMC42NDE5IC0wLjcxNjgzNSwwLjkzMDk3IC0wLjgzNzQ2NCwzLjI3ODg1IGwgLTAuMTMyMjkyLDIuNTc0ODkgLTEuOTIyMDU1LDAuMDc3OCBjIC0xLjM5MjY5NSwwLjA1NjQgLTEuOTU4NDY5LC0wLjAxNzEgLTIuMDU0MjcsLTAuMjY2NzMgeiBtIDE2LjY2ODc1LDAgYyAtMC4wNzI3MiwtMC4xODk1MSAtMC4xMDA3NjQsLTQuMjEzMTEgLTAuMDYyMzIsLTguOTQxMzYgbCAwLjA2OTg5LC04LjU5NjgxIGggMS45ODQzNzUgMS45ODQzNzUgbCAwLjEzMjI5MSwzLjQzOTU5IDAuMTMyMjkyLDMuNDM5NTggaCAzLjA0MjcwOCAzLjA0MjcwOSBsIDAuMTMyMjkxLC0zLjQzOTU4IDAuMTMyMjkyLC0zLjQzOTU5IGggMS45ODQzNzUgMS45ODQzNzUgdiA4Ljg2MzU0IDguODYzNTUgaCAtMS45ODQzNzUgLTEuOTg0Mzc1IGwgLTAuMTMyMjkyLC0zLjU3MTg4IC0wLjEzMjI5MSwtMy41NzE4NyBoIC0zLjA0MjcwOSAtMy4wNDI3MDggbCAtMC4xMzIyOTIsMy41NzE4NyAtMC4xMzIyOTEsMy41NzE4OCAtMS45MjIwNTUsMC4wNzc4IGMgLTEuMzkyNjk1LDAuMDU2NCAtMS45NTg0NywtMC4wMTcxIC0yLjA1NDI3LC0wLjI2NjczIHogbSAxNy4zNTY3ODgsLTAuMDUyOCBjIC0wLjI0NTAyLC0wLjI5NTIzIDAuMDQ4MSwtMS4zMzk3OSAxLjM5MjExMywtNC45NjA5NCAwLjkzNjM2NiwtMi41MjI4MiAyLjMzMDg3LC02LjMxMzM2IDMuMDk4ODk4LC04LjQyMzQyIDAuNzY4MDI3LC0yLjExMDA1IDEuNTEwNzk3LC0zLjk4NTI4IDEuNjUwNTk1LC00LjE2NzE4IDAuMTU1NDM1LC0wLjIwMjI1IDAuODk3MTMzLC0wLjMzMDczIDEuOTA5MTgsLTAuMzMwNzMgMS4wMDg3NzQsMCAxLjc1NjY0MywwLjEyOTEzIDEuOTE1MzE0LDAuMzMwNzMgMC40NjI2MTYsMC41ODc3NSA2LjQ0NzY3NCwxNi45MTk5MiA2LjM2MzEwNCwxNy4zNjM4IC0wLjA2NDIsMC4zMzcxMSAtMC40NzM3MiwwLjQ0NjQ0IC0xLjkwNDkyNiwwLjUwODU3IC0xLjA1MzY3NiwwLjA0NTcgLTEuOTQyODcyLC0wLjA0MDYgLTIuMTA2ODU4LC0wLjIwNDU5IC0wLjE1NjA1NywtMC4xNTYwNiAtMC41MjU1MzcsLTAuOTY1NTggLTAuODIxMDY2LC0xLjc5ODk0IGwgLTAuNTM3MzI2LC0xLjUxNTIgaCAtMi44ODQwODMgLTIuODg0MDggbCAtMC40ODM0NTIsMS40MjIzIGMgLTAuMjY1ODk4LDAuNzgyMjYgLTAuNjE5MjYyLDEuNTg1OTMgLTAuNzg1MjQ5LDEuNzg1OTMgLTAuNDE4OTgsMC41MDQ4NSAtMy41MDEzNDcsMC40OTY3MiAtMy45MjIxNjQsLTAuMDEwMyB6IG0gMzMuNDgwOTc0LC0wLjAzOTYgYyAtMC4yNDMzMywtMC42MzQxMSAtMC4xODc5OSwtMTYuODYzNjIgMC4wNTg4LC0xNy4yNTI1IDAuMTY0MjMsLTAuMjU4NzQgMS41NzY1OCwtMC4zMTk1MyA2LjE0NzUxLC0wLjI2NDU4IGwgNS45MzQzMSwwLjA3MTMgdiAxLjU4NzUgMS41ODc1IGwgLTMuOTAyNjEsMC4wNzMyIC0zLjkwMjYsMC4wNzMyIHYgMS44NDUwMSAxLjg0NTAxIGggMy4xNTkzOCBjIDMuNDEzNzYsMCAzLjQ3MjUxLDAuMDI0MyAzLjYzNTI1LDEuNTAxMDUgMC4xOTczOCwxLjc5MTA5IC0wLjA3ODYsMS45Mzg1MyAtMy42Mjg5NCwxLjkzODUzIGggLTMuMTY1NjkgdiAxLjk3NzMxIDEuOTc3MyBsIDMuOTAyNiwwLjA3MzIgMy45MDI2MSwwLjA3MzIgdiAxLjU4NzUgMS41ODc1IGwgLTUuOTg5MDksMC4wNzEgYyAtNS4yODgyMSwwLjA2MjcgLTYuMDA4MSwwLjAyMTUgLTYuMTUxNTYsLTAuMzUyMzcgeiBtIDE0Ljc4MzY3LC0wLjE4MTY5IGMgLTAuMDc5OCwtMC4zMjc0MiAtMC4xMTE4OCwtNC4zNDU3OCAtMC4wNzEyLC04LjkyOTY4IGwgMC4wNzQsLTguMzM0MzggaCA1Ljk1MzEyIDUuOTUzMTMgdiAxLjU4NzUgMS41ODc1IGwgLTMuNjkzMzksMC4wNzQgYyAtMi4wMzEzNiwwLjA0MDcgLTMuNzU3NzcsMC4xNzczMyAtMy44MzY0NiwwLjMwMzY1IC0wLjA3ODcsMC4xMjYzMiAtMC4xMDMxNCwxLjAxNTc2IC0wLjA1NDMsMS45NzY1NSBsIDAuMDg4NywxLjc0Njg3IGggMy4yODQ3MiBjIDIuNDQwNTksMCAzLjI4OTkyLDAuMDg1IDMuMzA0OTYsMC4zMzA3MyAwLjAxMTEsMC4xODE5IDAuMDcxNCwwLjU2ODg2IDAuMTMzODYsMC44NTk5IDAuMDYyNSwwLjI5MTA0IDAuMDQ4LDAuOTE2MTIgLTAuMDMyMiwxLjM4OTA2IGwgLTAuMTQ1ODQsMC44NTk5IGggLTMuMjk1MyAtMy4yOTUzMSBsIC0wLjAwNCwyLjk3NjU2IGMgLTAuMDA1LDQuMzA5NTkgMC4wNzI0LDQuMTY3MTkgLTIuMjcxMTcsNC4xNjcxOSAtMS44MDEyNCwwIC0xLjk1OTQ1LC0wLjA0NSAtMi4wOTM2NSwtMC41OTUzMiB6IE0gOTQuMTY0NDA1LDE3MS45NDE4NyBjIC0yLjAzNzI5MSwtMS4xNzk0MiAtNC4wNjEzNTQsLTIuMzUxOTIgLTQuNDk3OTE2LC0yLjYwNTU1IC02Ljk4MjcwOSwtNC4wNTY3IC0xMS4xNTQ1NDcsLTYuNDYyNjEgLTEzLjc1ODMzMywtNy45MzQ0NyAtMS43NDYyNSwtMC45ODcxIC0zLjg4OTM3NSwtMi4yMjAwNSAtNC43NjI1LC0yLjczOTg3IC0wLjg3MzEyNSwtMC41MTk4MSAtMi4wOTQzNDksLTEuMjQzNjkgLTIuNzEzODMxLC0xLjYwODYxIGwgLTEuMTI2MzI5LC0wLjY2MzUgMC4wNjgsLTE3LjkyNTk0IDAuMDY4LC0xNy45MjU5MyAzLjA0MjcwOCwtMS43NTI4NyBjIDEuNjczNDg5LC0wLjk2NDA4IDguMTAyODY0LC00LjY3NDg2IDE0LjI4NzQ5OSwtOC4yNDYxOSA2LjE4NDYzNiwtMy41NzEzMyAxMS43NDM1ODIsLTYuNzUxODcgMTIuMzUzMjEzLC03LjA2Nzg2IGwgMS4xMDg0MjUsLTAuNTc0NTIgNS4zNzM4NjksMy4wOTQ4NiBjIDIuOTU1NjMsMS43MDIxNyA4LjQ2OTUsNC44ODU2NCAxMi4yNTMwNCw3LjA3NDM2IDMuNzgzNTQsMi4xODg3NCA4LjI0ODM4LDQuNzcwNzMgOS45MjE4Nyw1LjczNzc4IGwgMy4wNDI3MSwxLjc1ODI2IDAuMDY4LDE3LjkwMzY1IDAuMDY4LDE3LjkwMzY1IC0wLjk5NDA0LDAuNjMxMiBjIC0yLjE3MTQ1LDEuMzc4ODQgLTI5LjY0MTI5MywxNy4xMDUyIC0yOS44NjIwODMsMTcuMDk1OSAtMC4xMjk4NjUsLTAuMDA1IC0xLjkwMjk5NCwtMC45NzQ5MiAtMy45NDAyODYsLTIuMTU0MzUgeiBtIDE3LjcyNzA4NSwtOS41OTQxMSAxMy40OTM3NSwtNy43ODc3NCAwLjA2NzcsLTE1Ljk1NzY2IDAuMDY3NywtMTUuOTU3NjYgLTMuNjM5NTUsLTIuMTQwNDIgYyAtMi4wMDE3NSwtMS4xNzcyMyAtNS4yNDY4OSwtMy4wNjggLTcuMjExNDMsLTQuMjAxNzEgLTEuOTY0NTMsLTEuMTMzNzEgLTQuOTQxMDksLTIuODU3NjQgLTYuNjE0NTgsLTMuODMwOTUgLTUuODMxODIsLTMuMzkxODMgLTkuNzE1MDE1LC01LjU2OTYzIC05LjkzMTEwMSwtNS41Njk2MyAtMC4xMTk2NzEsMCAtNi4zMjgwMzQsMy41MjUxOSAtMTMuNzk2MzY0LDcuODMzNzYgbCAtMTMuNTc4Nzg0LDcuODMzNzUgdiAxNS45NjMgMTUuOTYyOTkgbCAyLjA1MDUyMSwxLjE3MTA4IGMgMS45MjIwNSwxLjA5NzcgNS44NTI2MTUsMy4zNjI4MyAxMS43MDc4MTIsNi43NDcwNSAxLjM4MjQ0OCwwLjc5OTA0IDIuODExMTk4LDEuNjE2ODIgMy4xNzUsMS44MTcyOSAwLjM2MzgwMiwwLjIwMDQ3IDIuNzQ1MDUyLDEuNjAwMDUgNS4yOTE2NjYsMy4xMTAxNyAyLjU0NjYxNSwxLjUxMDExIDQuODA4ODAyLDIuNzU2NjQgNS4wMjcwODQsMi43NzAwNCAwLjIxODI4MSwwLjAxMzQgNi40NjkwNjYsLTMuNDgwMSAxMy44OTA2MjYsLTcuNzYzMzYgeiBtIC0xNS4wODEyNTEsLTkuMDUwNzQgYyAtMC40MzY1NjMsLTAuMjI4MjggLTEuNjg2NzE5LC0wLjkzMDU5IC0yLjc3ODEyNSwtMS41NjA3MSAtMy40NDIzNTksLTEuOTg3NDIgLTMuMzg2MzYzLC0xLjk2NzAzIC00LjMyNTY1MiwtMS41NzQ3MSAtMC43OTc1MjgsMC4zMzMxMSAtMC45NTQzMzEsMC4yODE2NSAtMy42MTE4NDgsLTEuMTg1MzMgLTEuNjE2MDkzLC0wLjg5MjEgLTIuOTE0ODMsLTEuNzk1IC0zLjEwNDk1NCwtMi4xNTg2IC0wLjM0NzQ4LC0wLjY2NDU0IC0wLjQ1MDY1MiwtNC4zNDQ0MSAtMC4xNjIyMzUsLTUuNzg2NSAwLjEyOTAxNiwtMC42NDUwOSAwLjQ1OTc3NywtMS4wMzYyIDEuMzE0NTU0LC0xLjU1NDQzIGwgMS4xNDIxNTgsLTAuNjkyNDUgMC4wMTE5OSwtMi41MTM1NSBjIDAuMDA2NiwtMS4zODI0NCAwLjA3OTMsLTIuNzY0MzMgMC4xNjE1NzUsLTMuMDcwODUgMC4wOTk1LC0wLjM3MDY5IDEuMjA1NzY4LC0xLjE1NTMxIDMuMzAzNjc4LC0yLjM0MzE0IGwgMy4xNTQwNzEsLTEuNzg1ODMgdiAtMS4xNDkxMiBjIDAsLTAuOTg5NTcgMC4xMTkzOTksLTEuMjM3NDUgMC44NTk4OTYsLTEuNzg1MjcgMS4zMDM2MSwtMC45NjQ0MSA0LjgzMzE3MywtMi44MzAzNyA1LjM1Mzc4OCwtMi44MzAzNyAwLjQyNTAxNiwwIDEuNzc0MDg3LDAuNjc5OTYgNC45NjQ5NjUsMi41MDI0MyAxLjIyOTUsMC43MDIyNCAxLjI1Njc3LDAuNzQ1ODIgMS4yNTY3NywyLjAwODc0IHYgMS4yOTA5MiBsIDIuOTAwOTksMS42MjQ1NSBjIDEuNTk1NTUsMC44OTM1MSAzLjA1NDA2LDEuODA5MTEgMy4yNDExNCwyLjAzNDY3IDAuMTg3MDksMC4yMjU1NiAwLjM0Nzc0LDAuODk3NzEgMC4zNTcsMS40OTM2NyAwLjAwOSwwLjU5NTk2IDAuMDM5LDEuODY3NTYgMC4wNjYxLDIuODI1NzggbCAwLjA0OTMsMS43NDIyMiAxLjI1Njc3LDAuNjM5MDMgMS4yNTY3NywwLjYzOTAzIDAuMDc0NCwyLjkzNzUxIGMgMC4wNDA5LDEuNjE1NjMgLTAuMDQxNCwzLjI0MjExIC0wLjE4MjkxLDMuNjE0NDEgLTAuMTc5OCwwLjQ3MjkzIC0xLjA1MTMxLDEuMTIyNTIgLTIuODkyMTgsMi4xNTU3MiAtMi42MzU1NiwxLjQ3OTI0IC0zLjM3NzU5LDEuNjk0NzMgLTQuMjQyMjUsMS4yMzE5OCAtMC4zNTMzOSwtMC4xODkxMyAtMS4yOTI3NiwwLjIxMjA2IC00LjAxNzUsMS43MTU4MiAtMS45NTU5NSwxLjA3OTQ2IC0zLjc5NDM4OSwxLjk1OTY4IC00LjA4NTQzMSwxLjk1NjA0IC0wLjI5MTA0MSwtMC4wMDQgLTAuODg2MzU0LC0wLjE5MzM5IC0xLjMyMjkxNiwtMC40MjE2NiB6IG0gNC4xMjc1ODEsLTMuMTUwNTUgYyAxLjQ0MDYxLC0wLjgwODU1IDIuNjE5MjksLTEuNTIxOTkgMi42MTkyOSwtMS41ODU0MSAwLC0wLjA2MzQgLTAuNDQzMjUsLTAuMzI0NjEgLTAuOTg1LC0wLjU4MDQyIC0wLjU0MTc1LC0wLjI1NTgxIC0xLjEzNTMsLTAuNzYyNzYgLTEuMzE5MDEsLTEuMTI2NTYgLTAuNDQyNCwtMC44NzYwOCAtMC40NDMxNywtNS40NzI4MSAtMC4wMDEsLTYuMzQ2NTkgMC4yMDEsLTAuMzk3MjcgMS4zMjY2MiwtMS4yMTI2NSAyLjg0MDM3LC0yLjA1NzUxIDIuMjE5MjgsLTEuMjM4NjMgMi42MzgwMywtMS4zODM4NCAzLjY0MzkyLC0xLjI2MzU5IGwgMS4xMzY0OSwwLjEzNTg2IC0wLjA3ODIsLTEuNzc1MDUgLTAuMDc4MiwtMS43NzUwNSAtMS45ODQzOCwtMS4xMTQzOSBjIC0xLjA5MTQxLC0wLjYxMjkxIC0yLjA3MzY4LC0xLjEyMjI5IC0yLjE4MjgyLC0xLjEzMTk1IC0wLjEwOTE0LC0wLjAxIC0wLjE5ODQzLDAuMzk3NjYgLTAuMTk4NDMsMC45MDUxNiAwLDEuMDM0NjcgLTAuMjI1NjcsMS4yMTYzOSAtNC4xMjQ1NiwzLjMyMTMzIGwgLTIuMTQwMTcsMS4xNTU0NSAtMy4wMTkyLC0xLjcxMjQgYyAtMi45Mzc5NTIsLTEuNjY2MzIgLTMuMDIxNDIyLC0xLjczODk4IC0zLjEwMTMzMiwtMi42OTk3NiAtMC4wNDUxNiwtMC41NDMwNCAtMC4xMTk4MzUsLTAuOTg3MzUgLTAuMTY1OTM2LC0wLjk4NzM1IC0wLjA0NjEsMCAtMS4wMjExNzgsMC41MTc3NiAtMi4xNjY4MzksMS4xNTA1OCBsIC0yLjA4MzAyMywxLjE1MDU3IC0wLjA3ODM1LDEuNzY0OTIgLTAuMDc4MzUsMS43NjQ5MyAxLjA2NTAzMiwtMC4xNzAzMSBjIDAuOTQ2OTI2LC0wLjE1MTQyIDEuMzM3MDU2LC0wLjAxOSAzLjUxNzkzNSwxLjE5NDI2IDEuMzQ5MDk0LDAuNzUwNTEgMi42MzE0OTMsMS40NjI1NyAyLjg0OTc3NCwxLjU4MjM2IDAuMzAyMTg2LDAuMTY1ODQgMC40MTU5MTQsMC44NDIzNyAwLjQ3NjY3LDIuODM1NTYgMC4xMTQ5MzUsMy43NzA0OCAtMC4wMDg0LDQuMjA5ODEgLTEuNDMwNDg4LDUuMDk0OTMgLTEuMjgxMDE3LDAuNzk3MzMgLTEuMjY0NDgxLDAuODkyNTIgMC4yOTIzNTksMS42ODI5MyAwLjQzNjU2MywwLjIyMTY0IDEuNDQ4NTk0LDAuNzczMTIgMi4yNDg5NTksMS4yMjU1IDAuODAwMzY0LDAuNDUyMzkgMS41NTY0NDgsMC44MjQ2OCAxLjY4MDE4NiwwLjgyNzMxIDAuMTIzNzM1LDAuMDAzIDEuNDAzNjU3LC0wLjY1Njc1IDIuODQ0MjczLC0xLjQ2NTMxIHogTSAtNy41Njc4ODM0LDUwLjgwNTA2MiBjIDAsLTAuMTA4NjggMC4yNjc4OTEsLTAuMjY5MzkxIDAuNTk1MzEyLC0wLjM1NzEzNyAxLjA3MjUxOSwtMC4yODc0MjQgMjA5Ljk2NzMxMTQsLTAuMTkwMTg2IDIxMC4xNDUzMTE0LDAuMDk3ODIgMC4xMDg4OSwwLjE3NjE5NyAtMzQuODY0NjksMC4yNzU4NjMgLTEwNC42OTMyNCwwLjI5ODM1IC01Ny42NzEyMTcsMC4wMTg1NyAtMTA1LjEyNDY0OTQsMC4wNjE4NSAtMTA1LjQ1MjA3MTQsMC4wOTYxNyAtMC4zMjc0MjEsMC4wMzQzMiAtMC41OTUzMTIsLTAuMDI2NTIgLTAuNTk1MzEyLC0wLjEzNTIgeiIKICAgICAgIGlkPSJwYXRoMTk1IiAvPjwvZz48L3N2Zz4K;clipPath=inset(69.33% 23.04% 19.33% 28.84%);" vertex="1" parent="1">
          <mxGeometry x="960" y="37.039999999999964" width="377" height="90.91" as="geometry" />
        </mxCell>
        <mxCell id="vjVRh_Uc5Gomx25ZACQK-7" value="Proyecto. FabricaciÃ³n de Robot de Combate" style="text;html=1;align=center;verticalAlign=middle;resizable=0;points=[];autosize=1;strokeColor=none;fillColor=none;fontStyle=1;fontFamily=Tahoma;fontSize=23;" vertex="1" parent="1">
          <mxGeometry x="1325" y="101" width="530" height="40" as="geometry" />
        </mxCell>
        <mxCell id="vjVRh_Uc5Gomx25ZACQK-8" value="&lt;div style=&quot;text-align: justify;&quot;&gt;&lt;br&gt;&lt;/div&gt;&lt;b&gt;&lt;div style=&quot;text-align: justify;&quot;&gt;&lt;b style=&quot;background-color: initial;&quot;&gt;&lt;font style=&quot;font-size: 25px;&quot;&gt;4. LISTADO DE POSIBLES PROVEEDORES&lt;/font&gt;&lt;/b&gt;&lt;/div&gt;&lt;/b&gt;&lt;div style=&quot;text-align: justify;&quot;&gt;&lt;br&gt;&lt;/div&gt;&lt;font style=&quot;font-size: 15px;&quot;&gt;&lt;div style=&quot;text-align: justify;&quot;&gt;&lt;span style=&quot;color: rgb(0, 127, 255); background-color: initial;&quot;&gt;https://www.ideaelectronica.mx/&lt;/span&gt;&lt;/div&gt;&lt;font style=&quot;font-size: 15px;&quot; color=&quot;#007fff&quot;&gt;&lt;div style=&quot;text-align: justify;&quot;&gt;&lt;span style=&quot;background-color: initial;&quot;&gt;https://mexico.newark.com/&lt;/span&gt;&lt;/div&gt;&lt;div style=&quot;text-align: justify;&quot;&gt;&lt;span style=&quot;background-color: initial;&quot;&gt;https://www.mouser.mx/&lt;/span&gt;&lt;/div&gt;&lt;div style=&quot;text-align: justify;&quot;&gt;&lt;span style=&quot;background-color: initial;&quot;&gt;https://uelectronics.com/&lt;/span&gt;&lt;/div&gt;&lt;div style=&quot;text-align: justify;&quot;&gt;&lt;span style=&quot;background-color: initial;&quot;&gt;https://www.digikey.com.mx/&lt;/span&gt;&lt;/div&gt;&lt;/font&gt;&lt;/font&gt;&lt;div style=&quot;text-align: justify;&quot;&gt;&lt;br&gt;&lt;/div&gt;&lt;b&gt;&lt;div style=&quot;text-align: justify;&quot;&gt;&lt;b style=&quot;background-color: initial;&quot;&gt;&lt;font style=&quot;font-size: 25px;&quot;&gt;5. TIPOS DE CONTRATOS A EMPLEAR&lt;/font&gt;&lt;/b&gt;&lt;/div&gt;&lt;/b&gt;&lt;div style=&quot;text-align: justify;&quot;&gt;&lt;br&gt;&lt;/div&gt;&lt;ul style=&quot;font-size: 15px;&quot;&gt;&lt;li style=&quot;text-align: justify;&quot;&gt;&lt;font style=&quot;font-size: 15px;&quot;&gt;	Contrato mercantil es un acuerdo privado, que puede ser verbal o escrito, en el cual se recoge la voluntad de las partes firmantes en relaciÃ³n con una determinada materia, la prestaciÃ³n de un servicio o la realizaciÃ³n de un determinado objeto u obra.&lt;/font&gt;&lt;/li&gt;&lt;li style=&quot;text-align: justify;&quot;&gt;&lt;font style=&quot;font-size: 15px;&quot;&gt;	Contratos de compraventa. Por medio de este contrato se realiza la compraventa de bienes muebles, comprometiÃ©ndose una de las partes a dar una determinada cosa y la otra a su pago, satisfaciendo el precio determinado en el tiempo y de la forma acordada.&lt;/font&gt;&lt;/li&gt;&lt;li style=&quot;text-align: justify;&quot;&gt;&lt;font style=&quot;font-size: 15px;&quot;&gt;	Contratos de suministro. Contrato por el cual una parte se obliga al suministro de bienes o servicios, de manera periÃ³dica o continua, a cambio de su pago.&lt;/font&gt;&lt;/li&gt;&lt;li style=&quot;text-align: justify;&quot;&gt;&lt;font style=&quot;font-size: 15px;&quot;&gt;	Contratos de obra. Una de las partes se compromete a la realizaciÃ³n de una determinada obra y la otra a su pago, siempre que se cumplan las condiciones previstas en el contrato.&lt;/font&gt;&lt;/li&gt;&lt;li style=&quot;text-align: justify;&quot;&gt;&lt;font style=&quot;font-size: 15px;&quot;&gt;	Contratos de agencia. Por medio de este contrato, el agente actÃºa como intermediario independiente en representaciÃ³n de una empresa, promoviendo y vendiendo sus productos a cambio de una remuneraciÃ³n. El agente no asume, salvo pacto en contrario, el riesgo y ventura de tales operaciones. El contrato de agencia suele ser un contrato estable referido a una determinada zona geogrÃ¡fica.&lt;/font&gt;&lt;/li&gt;&lt;/ul&gt;&lt;div style=&quot;text-align: justify; font-size: 15px;&quot;&gt;&lt;br&gt;&lt;/div&gt;&lt;b&gt;&lt;div style=&quot;text-align: justify;&quot;&gt;&lt;b style=&quot;background-color: initial;&quot;&gt;&lt;font style=&quot;font-size: 25px;&quot;&gt;6. PROGRAMA DE COMPRAS&lt;/font&gt;&lt;/b&gt;&lt;/div&gt;&lt;/b&gt;&lt;div style=&quot;text-align: justify;&quot;&gt;&lt;br&gt;&lt;/div&gt;&lt;ul style=&quot;font-size: 15px;&quot;&gt;&lt;li style=&quot;text-align: justify;&quot;&gt;&lt;font style=&quot;font-size: 15px;&quot;&gt;	Los pronÃ³sticos: Se trata de la actividad comercial que se reduce a las estrategias basadas en las diversas alternativas. Ya que el gerente de compras, debe opinar para determinar el curso a seguir.&lt;/font&gt;&lt;/li&gt;&lt;li style=&quot;text-align: justify;&quot;&gt;&lt;font style=&quot;font-size: 15px;&quot;&gt;	Los objetivos: Consiste en tener las partes necesarias para la integraciÃ³n de la producciÃ³n a una mejor calidad, condiciÃ³n de pago y precio.&lt;/font&gt;&lt;/li&gt;&lt;li style=&quot;text-align: justify;&quot;&gt;&lt;font style=&quot;font-size: 15px;&quot;&gt;	VolÃºmenes de compras: Son indispensables pues una insuficiencia en el programa puede provocar el peligro sobre su producciÃ³n son resultados no deseados en las ventas o compras.&lt;/font&gt;&lt;/li&gt;&lt;li style=&quot;text-align: justify;&quot;&gt;&lt;font style=&quot;font-size: 15px;&quot;&gt;	Control de inventarios: Es un sistema de registro donde se comprueba la existencia de los y sostenibilidad de los materiales en los almacenes donde se encuentren o en los cursos de fabricaciÃ³n.&lt;/font&gt;&lt;/li&gt;&lt;li style=&quot;text-align: justify;&quot;&gt;&lt;font style=&quot;font-size: 15px;&quot;&gt;	PolÃ­ticas de compras: Son planes o planteamientos generales que sitÃºan el pensamiento y la acciÃ³n sobre los miembros de la empresa, para que estas contribuyan directamente al logro sus metas u objetivos.&lt;/font&gt;&lt;/li&gt;&lt;li style=&quot;text-align: justify;&quot;&gt;&lt;font style=&quot;font-size: 15px;&quot;&gt;	Procedimientos: Se debe disponer de manera sistemÃ¡tica por el orden de lugar y fecha a ejecutarse. Deben diseÃ±ar programas que se adapten a sus problemas o condiciones de la empresa KHAJEF.&lt;/font&gt;&lt;/li&gt;&lt;li style=&quot;text-align: justify;&quot;&gt;&lt;font style=&quot;font-size: 15px;&quot;&gt;	Programa de compras: El programa de compras es el instrumento base del campo administrativo que contiene una mejora sobre las secuencias o los pasos a seguir de los materiales y fechas de inicio.&lt;/font&gt;&lt;/li&gt;&lt;li style=&quot;text-align: justify;&quot;&gt;&lt;font style=&quot;font-size: 15px;&quot;&gt;	Presupuesto de compras: Es la formulaciÃ³n sobre los planes a futuro de lo que se quiere y se puede comprar.&lt;/font&gt;&lt;/li&gt;&lt;/ul&gt;&lt;div style=&quot;text-align: justify; font-size: 15px;&quot;&gt;&lt;br&gt;&lt;/div&gt;&lt;b style=&quot;font-size: 25px;&quot;&gt;&lt;div style=&quot;text-align: justify;&quot;&gt;&lt;b style=&quot;background-color: initial;&quot;&gt;7. RESPONSABLES&lt;/b&gt;&lt;/div&gt;&lt;/b&gt;&lt;div style=&quot;text-align: justify;&quot;&gt;&lt;br&gt;&lt;/div&gt;&lt;font style=&quot;font-size: 15px;&quot;&gt;&lt;div style=&quot;text-align: justify;&quot;&gt;&lt;span style=&quot;background-color: initial;&quot;&gt;El administrador del proyecto como jefe es el encargado de los movimientos y cambios que vayan ocurriendo en el transcurso de la elaboraciÃ³n del robot de combate, Ã©l darÃ¡ los vistos buenos y autorizaciones de lo que ocurra en cada uno de los departamentos, cada gerente se dirigirÃ¡ al administrador del proyecto para avances, cambios o propuestas, siempre y cuando sea autorizado por el administrador del proyecto.&lt;/span&gt;&lt;/div&gt;&lt;div style=&quot;text-align: justify;&quot;&gt;&lt;br&gt;&lt;/div&gt;&lt;/font&gt;&lt;ul style=&quot;font-size: 15px;&quot;&gt;&lt;li style=&quot;text-align: justify;&quot;&gt;&lt;font style=&quot;font-size: 15px;&quot;&gt;Administrador de proyecto de la empresa Ing. Eduardo GarcÃ­a Espinosa.&lt;/font&gt;&lt;/li&gt;&lt;li style=&quot;text-align: justify;&quot;&gt;&lt;font style=&quot;font-size: 15px;&quot;&gt;	Gerente del departamento de programaciÃ³n Ing. Kenai Haiden JimÃ©nez Serrano.&lt;/font&gt;&lt;/li&gt;&lt;li style=&quot;text-align: justify;&quot;&gt;&lt;font style=&quot;font-size: 15px;&quot;&gt;	Gerente del departamento de diseÃ±o Ing. Michelle Fernanda GutiÃ©rrez Lira.&lt;/font&gt;&lt;/li&gt;&lt;li style=&quot;text-align: justify;&quot;&gt;&lt;font style=&quot;font-size: 15px;&quot;&gt;Gerente del departamento de ventas, Ing. Karla VÃ¡zquez Espino.&lt;/font&gt;&lt;/li&gt;&lt;li style=&quot;text-align: justify;&quot;&gt;&lt;font style=&quot;font-size: 15px;&quot;&gt;	Gerente del departamento de compras Ing. Jonathan Preza DomÃ­nguez.&lt;/font&gt;&lt;/li&gt;&lt;li style=&quot;text-align: justify;&quot;&gt;&lt;font style=&quot;font-size: 15px;&quot;&gt;	Gerente de los departamentos de fabricaciÃ³n y mantenimiento, Ing. JosÃ© Alexis Aguilar HernÃ¡ndez&lt;/font&gt;&lt;/li&gt;&lt;/ul&gt;" style="rounded=0;whiteSpace=wrap;fillColor=#B5B5B5;strokeColor=none;strokeWidth=2;labelPosition=center;verticalLabelPosition=middle;align=left;verticalAlign=top;spacing=0;html=1;" vertex="1" parent="1">
          <mxGeometry x="880" y="145" width="960" height="984" as="geometry" />
        </mxCell>
      </root>
    </mxGraphModel>
  </diagram>
  <diagram id="Pe2guHZE5-P_dSK6ODL4" name="PÃ¡gina-4">
    <mxGraphModel dx="404" dy="740" grid="1" gridSize="10" guides="1" tooltips="1" connect="1" arrows="1" fold="1" page="1" pageScale="1" pageWidth="827" pageHeight="1169" math="0" shadow="0">
      <root>
        <mxCell id="0" />
        <mxCell id="1" parent="0" />
        <mxCell id="p_nPCDUxPSeStgnrJduY-1" value="" style="rounded=0;whiteSpace=wrap;html=1;fillColor=#707070;strokeColor=none;strokeWidth=2;" vertex="1" parent="1">
          <mxGeometry x="859" y="1050" width="1010" height="400" as="geometry" />
        </mxCell>
        <mxCell id="p_nPCDUxPSeStgnrJduY-2" style="edgeStyle=orthogonalEdgeStyle;rounded=0;orthogonalLoop=1;jettySize=auto;html=1;" edge="1" parent="1" source="p_nPCDUxPSeStgnrJduY-3" target="p_nPCDUxPSeStgnrJduY-8">
          <mxGeometry relative="1" as="geometry" />
        </mxCell>
        <mxCell id="p_nPCDUxPSeStgnrJduY-3" value="" style="rounded=0;whiteSpace=wrap;html=1;strokeColor=#F08705;fillColor=#F08705;strokeWidth=2;" vertex="1" parent="1">
          <mxGeometry x="859" y="20" width="1010" height="125" as="geometry" />
        </mxCell>
        <mxCell id="p_nPCDUxPSeStgnrJduY-4" value="&lt;div style=&quot;border-color: var(--border-color); font-family: Tahoma; font-size: 23px; text-align: justify;&quot;&gt;&lt;br&gt;&lt;/div&gt;" style="rounded=0;whiteSpace=wrap;html=1;fillColor=#B5B5B5;strokeColor=none;strokeWidth=2;fontColor=#ffffff;labelPosition=center;verticalLabelPosition=middle;align=center;verticalAlign=top;" vertex="1" parent="1">
          <mxGeometry x="859" y="145" width="1010" height="995" as="geometry" />
        </mxCell>
        <mxCell id="p_nPCDUxPSeStgnrJduY-5" value="" style="shape=image;aspect=fixed;image=data:image/svg+xml,PD94bWwgdmVyc2lvbj0iMS4wIiBlbmNvZGluZz0iVVRGLTgiIHN0YW5kYWxvbmU9Im5vIj8+CjwhLS0gQ3JlYXRlZCB3aXRoIElua3NjYXBlIChodHRwOi8vd3d3Lmlua3NjYXBlLm9yZy8pIC0tPgoKPHN2ZwogICB3aWR0aD0iMjEwLjg3MjkxbW0iCiAgIGhlaWdodD0iMjE2LjE2NDU4bW0iCiAgIHZpZXdCb3g9IjAgMCAyMTAuODcyOTEgMjE2LjE2NDU4IgogICB2ZXJzaW9uPSIxLjEiCiAgIGlkPSJzdmc1IgogICB4bWw6c3BhY2U9InByZXNlcnZlIgogICBpbmtzY2FwZTp2ZXJzaW9uPSIxLjIuMiAoNzMyYTAxZGE2MywgMjAyMi0xMi0wOSkiCiAgIHNvZGlwb2RpOmRvY25hbWU9IkxvZ28uc3ZnIgogICB4bWxuczppbmtzY2FwZT0iaHR0cDovL3d3dy5pbmtzY2FwZS5vcmcvbmFtZXNwYWNlcy9pbmtzY2FwZSIKICAgeG1sbnM6c29kaXBvZGk9Imh0dHA6Ly9zb2RpcG9kaS5zb3VyY2Vmb3JnZS5uZXQvRFREL3NvZGlwb2RpLTAuZHRkIgogICB4bWxucz0iaHR0cDovL3d3dy53My5vcmcvMjAwMC9zdmciCiAgIHhtbG5zOnN2Zz0iaHR0cDovL3d3dy53My5vcmcvMjAwMC9zdmciPjxzb2RpcG9kaTpuYW1lZHZpZXcKICAgICBpZD0ibmFtZWR2aWV3NyIKICAgICBwYWdlY29sb3I9IiNmZmZmZmYiCiAgICAgYm9yZGVyY29sb3I9IiMwMDAwMDAiCiAgICAgYm9yZGVyb3BhY2l0eT0iMC4yNSIKICAgICBpbmtzY2FwZTpzaG93cGFnZXNoYWRvdz0iMiIKICAgICBpbmtzY2FwZTpwYWdlb3BhY2l0eT0iMC4wIgogICAgIGlua3NjYXBlOnBhZ2VjaGVja2VyYm9hcmQ9IjAiCiAgICAgaW5rc2NhcGU6ZGVza2NvbG9yPSIjZDFkMWQxIgogICAgIGlua3NjYXBlOmRvY3VtZW50LXVuaXRzPSJtbSIKICAgICBzaG93Z3JpZD0iZmFsc2UiCiAgICAgaW5rc2NhcGU6em9vbT0iMC42NjE0MjQ1OSIKICAgICBpbmtzY2FwZTpjeD0iNTE1LjU1Mzg2IgogICAgIGlua3NjYXBlOmN5PSI0NTguMTAyMTEiCiAgICAgaW5rc2NhcGU6d2luZG93LXdpZHRoPSIxMzY2IgogICAgIGlua3NjYXBlOndpbmRvdy1oZWlnaHQ9IjcwNSIKICAgICBpbmtzY2FwZTp3aW5kb3cteD0iLTgiCiAgICAgaW5rc2NhcGU6d2luZG93LXk9Ii04IgogICAgIGlua3NjYXBlOndpbmRvdy1tYXhpbWl6ZWQ9IjEiCiAgICAgaW5rc2NhcGU6Y3VycmVudC1sYXllcj0ibGF5ZXIxIiAvPjxkZWZzCiAgICAgaWQ9ImRlZnMyIiAvPjxnCiAgICAgaW5rc2NhcGU6bGFiZWw9IkNhcGEgMSIKICAgICBpbmtzY2FwZTpncm91cG1vZGU9ImxheWVyIgogICAgIGlkPSJsYXllcjEiCiAgICAgdHJhbnNmb3JtPSJ0cmFuc2xhdGUoMTIuNjU5MzEyLC0zNi43NDA1NjYpIj48cGF0aAogICAgICAgc3R5bGU9ImZpbGw6IzAwMDAwMDtzdHJva2Utd2lkdGg6MC4yNjQ1ODMiCiAgICAgICBkPSJtIDEwNi4xMDM2NywyMDguNjQyNDYgYyAtMi4wNTUyMiwtMC43MzI1OCAtMy41MTY1NiwtMi44NDg4IC0zLjI5NzY2LC00Ljc3NTQ2IDAuMDg3OSwtMC43NzMyOSAwLjEyMjk2LC0wLjc5MDU0IDEuNzY2MzksLTAuODY4MzMgMS44NTUwNywtMC4wODc4IDIuMjg4MDQsMC4xMjU2OCAyLjUxMDQ5LDEuMjM3OTQgMC4yNjcyLDEuMzM1OTkgMi41MDI2MiwxLjY4NjQ5IDMuMjYxNTQsMC41MTEzOSAwLjEyMzI4LC0wLjE5MDg4IDAuMjgzNjcsLTMuMzgzMTQgMC4zNTY0MywtNy4wOTM5MiBsIDAuMTMyMywtNi43NDY4OCBoIDEuOTg0MzcgMS45ODQzOCBsIDAuMDc5Miw2LjYxNDU5IGMgMC4wNTA4LDQuMjQzNDMgLTAuMDI0Niw2Ljk3MTgyIC0wLjIxMDM4LDcuNjExMTUgLTAuMzc5NTEsMS4zMDYxNSAtMS43MTY1MiwyLjgwMjgzIC0zLjA0MTU0LDMuNDA0NzggLTEuMjgxMzQsMC41ODIxIC00LjAzOTYyLDAuNjM0MzggLTUuNTI1NTEsMC4xMDQ3NCB6IG0gLTU1LjA3MzkyMiwtMC4xOTcwOSBjIC0wLjA3MjcyLC0wLjE4OTUxIC0wLjEwMDc2MywtNC4yMTMxMSAtMC4wNjIzMiwtOC45NDEzNiBsIDAuMDY5ODksLTguNTk2ODEgaCAxLjk4NDM3NSAxLjk4NDM3NSBsIDAuMDc0MjksMy4yNDExNSBjIDAuMDQwODYsMS43ODI2MyAwLjE1OTkyMiwzLjI0MTA4IDAuMjY0NTgzLDMuMjQxMDEgMC4xMDQ2NjIsLThlLTUgMS4wMTQ1ODIsLTEuMTAxNDEgMi4wMjIwNDQsLTIuNDQ3NCAzLjE4MTI5NCwtNC4yNTAyOCAzLjA2ODg3NiwtNC4xNjcwNSA1LjYyODQ4NiwtNC4xNjcwNSAxLjg1MjQwMSwwIDIuMTk3MDU1LDAuMDY3NSAyLjE5NzA1NSwwLjQzMDMgMCwwLjIzNjY2IC0xLjI1MDE1NiwyLjAyMTM3IC0yLjc3ODEyNSwzLjk2NiAtMS41Mjc5NjgsMS45NDQ2NCAtMi43NzgxMjQsMy41OTQ0MiAtMi43NzgxMjQsMy42NjYxNyAwLDAuMDcxOCAxLjMwOTY4NywyLjEzNzQ5IDIuOTEwNDE2LDQuNTkwNTEgMS42MDA3MjksMi40NTMwMiAyLjkxMDQxNyw0LjY1Nzc0IDIuOTEwNDE3LDQuODk5MzcgMCwwLjM3NDk2IC0wLjMyOTkyNSwwLjQzOTMyIC0yLjI1MjI0NSwwLjQzOTMyIGggLTIuMjUyMjQ0IGwgLTAuOTcwMDQ3LC0xLjUyMTM2IGMgLTAuNTMzNTI1LC0wLjgzNjc0IC0xLjQ5NDYzOSwtMi4zNDE5OSAtMi4xMzU4MDksLTMuMzQ0OTkgbCAtMS4xNjU3NjgsLTEuODIzNjQgLTAuNzA1MTczLDAuNzAzOTYgYyAtMC42NDMwMDMsMC42NDE5IC0wLjcxNjgzNSwwLjkzMDk3IC0wLjgzNzQ2NCwzLjI3ODg1IGwgLTAuMTMyMjkyLDIuNTc0ODkgLTEuOTIyMDU1LDAuMDc3OCBjIC0xLjM5MjY5NSwwLjA1NjQgLTEuOTU4NDY5LC0wLjAxNzEgLTIuMDU0MjcsLTAuMjY2NzMgeiBtIDE2LjY2ODc1LDAgYyAtMC4wNzI3MiwtMC4xODk1MSAtMC4xMDA3NjQsLTQuMjEzMTEgLTAuMDYyMzIsLTguOTQxMzYgbCAwLjA2OTg5LC04LjU5NjgxIGggMS45ODQzNzUgMS45ODQzNzUgbCAwLjEzMjI5MSwzLjQzOTU5IDAuMTMyMjkyLDMuNDM5NTggaCAzLjA0MjcwOCAzLjA0MjcwOSBsIDAuMTMyMjkxLC0zLjQzOTU4IDAuMTMyMjkyLC0zLjQzOTU5IGggMS45ODQzNzUgMS45ODQzNzUgdiA4Ljg2MzU0IDguODYzNTUgaCAtMS45ODQzNzUgLTEuOTg0Mzc1IGwgLTAuMTMyMjkyLC0zLjU3MTg4IC0wLjEzMjI5MSwtMy41NzE4NyBoIC0zLjA0MjcwOSAtMy4wNDI3MDggbCAtMC4xMzIyOTIsMy41NzE4NyAtMC4xMzIyOTEsMy41NzE4OCAtMS45MjIwNTUsMC4wNzc4IGMgLTEuMzkyNjk1LDAuMDU2NCAtMS45NTg0NywtMC4wMTcxIC0yLjA1NDI3LC0wLjI2NjczIHogbSAxNy4zNTY3ODgsLTAuMDUyOCBjIC0wLjI0NTAyLC0wLjI5NTIzIDAuMDQ4MSwtMS4zMzk3OSAxLjM5MjExMywtNC45NjA5NCAwLjkzNjM2NiwtMi41MjI4MiAyLjMzMDg3LC02LjMxMzM2IDMuMDk4ODk4LC04LjQyMzQyIDAuNzY4MDI3LC0yLjExMDA1IDEuNTEwNzk3LC0zLjk4NTI4IDEuNjUwNTk1LC00LjE2NzE4IDAuMTU1NDM1LC0wLjIwMjI1IDAuODk3MTMzLC0wLjMzMDczIDEuOTA5MTgsLTAuMzMwNzMgMS4wMDg3NzQsMCAxLjc1NjY0MywwLjEyOTEzIDEuOTE1MzE0LDAuMzMwNzMgMC40NjI2MTYsMC41ODc3NSA2LjQ0NzY3NCwxNi45MTk5MiA2LjM2MzEwNCwxNy4zNjM4IC0wLjA2NDIsMC4zMzcxMSAtMC40NzM3MiwwLjQ0NjQ0IC0xLjkwNDkyNiwwLjUwODU3IC0xLjA1MzY3NiwwLjA0NTcgLTEuOTQyODcyLC0wLjA0MDYgLTIuMTA2ODU4LC0wLjIwNDU5IC0wLjE1NjA1NywtMC4xNTYwNiAtMC41MjU1MzcsLTAuOTY1NTggLTAuODIxMDY2LC0xLjc5ODk0IGwgLTAuNTM3MzI2LC0xLjUxNTIgaCAtMi44ODQwODMgLTIuODg0MDggbCAtMC40ODM0NTIsMS40MjIzIGMgLTAuMjY1ODk4LDAuNzgyMjYgLTAuNjE5MjYyLDEuNTg1OTMgLTAuNzg1MjQ5LDEuNzg1OTMgLTAuNDE4OTgsMC41MDQ4NSAtMy41MDEzNDcsMC40OTY3MiAtMy45MjIxNjQsLTAuMDEwMyB6IG0gMzMuNDgwOTc0LC0wLjAzOTYgYyAtMC4yNDMzMywtMC42MzQxMSAtMC4xODc5OSwtMTYuODYzNjIgMC4wNTg4LC0xNy4yNTI1IDAuMTY0MjMsLTAuMjU4NzQgMS41NzY1OCwtMC4zMTk1MyA2LjE0NzUxLC0wLjI2NDU4IGwgNS45MzQzMSwwLjA3MTMgdiAxLjU4NzUgMS41ODc1IGwgLTMuOTAyNjEsMC4wNzMyIC0zLjkwMjYsMC4wNzMyIHYgMS44NDUwMSAxLjg0NTAxIGggMy4xNTkzOCBjIDMuNDEzNzYsMCAzLjQ3MjUxLDAuMDI0MyAzLjYzNTI1LDEuNTAxMDUgMC4xOTczOCwxLjc5MTA5IC0wLjA3ODYsMS45Mzg1MyAtMy42Mjg5NCwxLjkzODUzIGggLTMuMTY1NjkgdiAxLjk3NzMxIDEuOTc3MyBsIDMuOTAyNiwwLjA3MzIgMy45MDI2MSwwLjA3MzIgdiAxLjU4NzUgMS41ODc1IGwgLTUuOTg5MDksMC4wNzEgYyAtNS4yODgyMSwwLjA2MjcgLTYuMDA4MSwwLjAyMTUgLTYuMTUxNTYsLTAuMzUyMzcgeiBtIDE0Ljc4MzY3LC0wLjE4MTY5IGMgLTAuMDc5OCwtMC4zMjc0MiAtMC4xMTE4OCwtNC4zNDU3OCAtMC4wNzEyLC04LjkyOTY4IGwgMC4wNzQsLTguMzM0MzggaCA1Ljk1MzEyIDUuOTUzMTMgdiAxLjU4NzUgMS41ODc1IGwgLTMuNjkzMzksMC4wNzQgYyAtMi4wMzEzNiwwLjA0MDcgLTMuNzU3NzcsMC4xNzczMyAtMy44MzY0NiwwLjMwMzY1IC0wLjA3ODcsMC4xMjYzMiAtMC4xMDMxNCwxLjAxNTc2IC0wLjA1NDMsMS45NzY1NSBsIDAuMDg4NywxLjc0Njg3IGggMy4yODQ3MiBjIDIuNDQwNTksMCAzLjI4OTkyLDAuMDg1IDMuMzA0OTYsMC4zMzA3MyAwLjAxMTEsMC4xODE5IDAuMDcxNCwwLjU2ODg2IDAuMTMzODYsMC44NTk5IDAuMDYyNSwwLjI5MTA0IDAuMDQ4LDAuOTE2MTIgLTAuMDMyMiwxLjM4OTA2IGwgLTAuMTQ1ODQsMC44NTk5IGggLTMuMjk1MyAtMy4yOTUzMSBsIC0wLjAwNCwyLjk3NjU2IGMgLTAuMDA1LDQuMzA5NTkgMC4wNzI0LDQuMTY3MTkgLTIuMjcxMTcsNC4xNjcxOSAtMS44MDEyNCwwIC0xLjk1OTQ1LC0wLjA0NSAtMi4wOTM2NSwtMC41OTUzMiB6IE0gOTQuMTY0NDA1LDE3MS45NDE4NyBjIC0yLjAzNzI5MSwtMS4xNzk0MiAtNC4wNjEzNTQsLTIuMzUxOTIgLTQuNDk3OTE2LC0yLjYwNTU1IC02Ljk4MjcwOSwtNC4wNTY3IC0xMS4xNTQ1NDcsLTYuNDYyNjEgLTEzLjc1ODMzMywtNy45MzQ0NyAtMS43NDYyNSwtMC45ODcxIC0zLjg4OTM3NSwtMi4yMjAwNSAtNC43NjI1LC0yLjczOTg3IC0wLjg3MzEyNSwtMC41MTk4MSAtMi4wOTQzNDksLTEuMjQzNjkgLTIuNzEzODMxLC0xLjYwODYxIGwgLTEuMTI2MzI5LC0wLjY2MzUgMC4wNjgsLTE3LjkyNTk0IDAuMDY4LC0xNy45MjU5MyAzLjA0MjcwOCwtMS43NTI4NyBjIDEuNjczNDg5LC0wLjk2NDA4IDguMTAyODY0LC00LjY3NDg2IDE0LjI4NzQ5OSwtOC4yNDYxOSA2LjE4NDYzNiwtMy41NzEzMyAxMS43NDM1ODIsLTYuNzUxODcgMTIuMzUzMjEzLC03LjA2Nzg2IGwgMS4xMDg0MjUsLTAuNTc0NTIgNS4zNzM4NjksMy4wOTQ4NiBjIDIuOTU1NjMsMS43MDIxNyA4LjQ2OTUsNC44ODU2NCAxMi4yNTMwNCw3LjA3NDM2IDMuNzgzNTQsMi4xODg3NCA4LjI0ODM4LDQuNzcwNzMgOS45MjE4Nyw1LjczNzc4IGwgMy4wNDI3MSwxLjc1ODI2IDAuMDY4LDE3LjkwMzY1IDAuMDY4LDE3LjkwMzY1IC0wLjk5NDA0LDAuNjMxMiBjIC0yLjE3MTQ1LDEuMzc4ODQgLTI5LjY0MTI5MywxNy4xMDUyIC0yOS44NjIwODMsMTcuMDk1OSAtMC4xMjk4NjUsLTAuMDA1IC0xLjkwMjk5NCwtMC45NzQ5MiAtMy45NDAyODYsLTIuMTU0MzUgeiBtIDE3LjcyNzA4NSwtOS41OTQxMSAxMy40OTM3NSwtNy43ODc3NCAwLjA2NzcsLTE1Ljk1NzY2IDAuMDY3NywtMTUuOTU3NjYgLTMuNjM5NTUsLTIuMTQwNDIgYyAtMi4wMDE3NSwtMS4xNzcyMyAtNS4yNDY4OSwtMy4wNjggLTcuMjExNDMsLTQuMjAxNzEgLTEuOTY0NTMsLTEuMTMzNzEgLTQuOTQxMDksLTIuODU3NjQgLTYuNjE0NTgsLTMuODMwOTUgLTUuODMxODIsLTMuMzkxODMgLTkuNzE1MDE1LC01LjU2OTYzIC05LjkzMTEwMSwtNS41Njk2MyAtMC4xMTk2NzEsMCAtNi4zMjgwMzQsMy41MjUxOSAtMTMuNzk2MzY0LDcuODMzNzYgbCAtMTMuNTc4Nzg0LDcuODMzNzUgdiAxNS45NjMgMTUuOTYyOTkgbCAyLjA1MDUyMSwxLjE3MTA4IGMgMS45MjIwNSwxLjA5NzcgNS44NTI2MTUsMy4zNjI4MyAxMS43MDc4MTIsNi43NDcwNSAxLjM4MjQ0OCwwLjc5OTA0IDIuODExMTk4LDEuNjE2ODIgMy4xNzUsMS44MTcyOSAwLjM2MzgwMiwwLjIwMDQ3IDIuNzQ1MDUyLDEuNjAwMDUgNS4yOTE2NjYsMy4xMTAxNyAyLjU0NjYxNSwxLjUxMDExIDQuODA4ODAyLDIuNzU2NjQgNS4wMjcwODQsMi43NzAwNCAwLjIxODI4MSwwLjAxMzQgNi40NjkwNjYsLTMuNDgwMSAxMy44OTA2MjYsLTcuNzYzMzYgeiBtIC0xNS4wODEyNTEsLTkuMDUwNzQgYyAtMC40MzY1NjMsLTAuMjI4MjggLTEuNjg2NzE5LC0wLjkzMDU5IC0yLjc3ODEyNSwtMS41NjA3MSAtMy40NDIzNTksLTEuOTg3NDIgLTMuMzg2MzYzLC0xLjk2NzAzIC00LjMyNTY1MiwtMS41NzQ3MSAtMC43OTc1MjgsMC4zMzMxMSAtMC45NTQzMzEsMC4yODE2NSAtMy42MTE4NDgsLTEuMTg1MzMgLTEuNjE2MDkzLC0wLjg5MjEgLTIuOTE0ODMsLTEuNzk1IC0zLjEwNDk1NCwtMi4xNTg2IC0wLjM0NzQ4LC0wLjY2NDU0IC0wLjQ1MDY1MiwtNC4zNDQ0MSAtMC4xNjIyMzUsLTUuNzg2NSAwLjEyOTAxNiwtMC42NDUwOSAwLjQ1OTc3NywtMS4wMzYyIDEuMzE0NTU0LC0xLjU1NDQzIGwgMS4xNDIxNTgsLTAuNjkyNDUgMC4wMTE5OSwtMi41MTM1NSBjIDAuMDA2NiwtMS4zODI0NCAwLjA3OTMsLTIuNzY0MzMgMC4xNjE1NzUsLTMuMDcwODUgMC4wOTk1LC0wLjM3MDY5IDEuMjA1NzY4LC0xLjE1NTMxIDMuMzAzNjc4LC0yLjM0MzE0IGwgMy4xNTQwNzEsLTEuNzg1ODMgdiAtMS4xNDkxMiBjIDAsLTAuOTg5NTcgMC4xMTkzOTksLTEuMjM3NDUgMC44NTk4OTYsLTEuNzg1MjcgMS4zMDM2MSwtMC45NjQ0MSA0LjgzMzE3MywtMi44MzAzNyA1LjM1Mzc4OCwtMi44MzAzNyAwLjQyNTAxNiwwIDEuNzc0MDg3LDAuNjc5OTYgNC45NjQ5NjUsMi41MDI0MyAxLjIyOTUsMC43MDIyNCAxLjI1Njc3LDAuNzQ1ODIgMS4yNTY3NywyLjAwODc0IHYgMS4yOTA5MiBsIDIuOTAwOTksMS42MjQ1NSBjIDEuNTk1NTUsMC44OTM1MSAzLjA1NDA2LDEuODA5MTEgMy4yNDExNCwyLjAzNDY3IDAuMTg3MDksMC4yMjU1NiAwLjM0Nzc0LDAuODk3NzEgMC4zNTcsMS40OTM2NyAwLjAwOSwwLjU5NTk2IDAuMDM5LDEuODY3NTYgMC4wNjYxLDIuODI1NzggbCAwLjA0OTMsMS43NDIyMiAxLjI1Njc3LDAuNjM5MDMgMS4yNTY3NywwLjYzOTAzIDAuMDc0NCwyLjkzNzUxIGMgMC4wNDA5LDEuNjE1NjMgLTAuMDQxNCwzLjI0MjExIC0wLjE4MjkxLDMuNjE0NDEgLTAuMTc5OCwwLjQ3MjkzIC0xLjA1MTMxLDEuMTIyNTIgLTIuODkyMTgsMi4xNTU3MiAtMi42MzU1NiwxLjQ3OTI0IC0zLjM3NzU5LDEuNjk0NzMgLTQuMjQyMjUsMS4yMzE5OCAtMC4zNTMzOSwtMC4xODkxMyAtMS4yOTI3NiwwLjIxMjA2IC00LjAxNzUsMS43MTU4MiAtMS45NTU5NSwxLjA3OTQ2IC0zLjc5NDM4OSwxLjk1OTY4IC00LjA4NTQzMSwxLjk1NjA0IC0wLjI5MTA0MSwtMC4wMDQgLTAuODg2MzU0LC0wLjE5MzM5IC0xLjMyMjkxNiwtMC40MjE2NiB6IG0gNC4xMjc1ODEsLTMuMTUwNTUgYyAxLjQ0MDYxLC0wLjgwODU1IDIuNjE5MjksLTEuNTIxOTkgMi42MTkyOSwtMS41ODU0MSAwLC0wLjA2MzQgLTAuNDQzMjUsLTAuMzI0NjEgLTAuOTg1LC0wLjU4MDQyIC0wLjU0MTc1LC0wLjI1NTgxIC0xLjEzNTMsLTAuNzYyNzYgLTEuMzE5MDEsLTEuMTI2NTYgLTAuNDQyNCwtMC44NzYwOCAtMC40NDMxNywtNS40NzI4MSAtMC4wMDEsLTYuMzQ2NTkgMC4yMDEsLTAuMzk3MjcgMS4zMjY2MiwtMS4yMTI2NSAyLjg0MDM3LC0yLjA1NzUxIDIuMjE5MjgsLTEuMjM4NjMgMi42MzgwMywtMS4zODM4NCAzLjY0MzkyLC0xLjI2MzU5IGwgMS4xMzY0OSwwLjEzNTg2IC0wLjA3ODIsLTEuNzc1MDUgLTAuMDc4MiwtMS43NzUwNSAtMS45ODQzOCwtMS4xMTQzOSBjIC0xLjA5MTQxLC0wLjYxMjkxIC0yLjA3MzY4LC0xLjEyMjI5IC0yLjE4MjgyLC0xLjEzMTk1IC0wLjEwOTE0LC0wLjAxIC0wLjE5ODQzLDAuMzk3NjYgLTAuMTk4NDMsMC45MDUxNiAwLDEuMDM0NjcgLTAuMjI1NjcsMS4yMTYzOSAtNC4xMjQ1NiwzLjMyMTMzIGwgLTIuMTQwMTcsMS4xNTU0NSAtMy4wMTkyLC0xLjcxMjQgYyAtMi45Mzc5NTIsLTEuNjY2MzIgLTMuMDIxNDIyLC0xLjczODk4IC0zLjEwMTMzMiwtMi42OTk3NiAtMC4wNDUxNiwtMC41NDMwNCAtMC4xMTk4MzUsLTAuOTg3MzUgLTAuMTY1OTM2LC0wLjk4NzM1IC0wLjA0NjEsMCAtMS4wMjExNzgsMC41MTc3NiAtMi4xNjY4MzksMS4xNTA1OCBsIC0yLjA4MzAyMywxLjE1MDU3IC0wLjA3ODM1LDEuNzY0OTIgLTAuMDc4MzUsMS43NjQ5MyAxLjA2NTAzMiwtMC4xNzAzMSBjIDAuOTQ2OTI2LC0wLjE1MTQyIDEuMzM3MDU2LC0wLjAxOSAzLjUxNzkzNSwxLjE5NDI2IDEuMzQ5MDk0LDAuNzUwNTEgMi42MzE0OTMsMS40NjI1NyAyLjg0OTc3NCwxLjU4MjM2IDAuMzAyMTg2LDAuMTY1ODQgMC40MTU5MTQsMC44NDIzNyAwLjQ3NjY3LDIuODM1NTYgMC4xMTQ5MzUsMy43NzA0OCAtMC4wMDg0LDQuMjA5ODEgLTEuNDMwNDg4LDUuMDk0OTMgLTEuMjgxMDE3LDAuNzk3MzMgLTEuMjY0NDgxLDAuODkyNTIgMC4yOTIzNTksMS42ODI5MyAwLjQzNjU2MywwLjIyMTY0IDEuNDQ4NTk0LDAuNzczMTIgMi4yNDg5NTksMS4yMjU1IDAuODAwMzY0LDAuNDUyMzkgMS41NTY0NDgsMC44MjQ2OCAxLjY4MDE4NiwwLjgyNzMxIDAuMTIzNzM1LDAuMDAzIDEuNDAzNjU3LC0wLjY1Njc1IDIuODQ0MjczLC0xLjQ2NTMxIHogTSAtNy41Njc4ODM0LDUwLjgwNTA2MiBjIDAsLTAuMTA4NjggMC4yNjc4OTEsLTAuMjY5MzkxIDAuNTk1MzEyLC0wLjM1NzEzNyAxLjA3MjUxOSwtMC4yODc0MjQgMjA5Ljk2NzMxMTQsLTAuMTkwMTg2IDIxMC4xNDUzMTE0LDAuMDk3ODIgMC4xMDg4OSwwLjE3NjE5NyAtMzQuODY0NjksMC4yNzU4NjMgLTEwNC42OTMyNCwwLjI5ODM1IC01Ny42NzEyMTcsMC4wMTg1NyAtMTA1LjEyNDY0OTQsMC4wNjE4NSAtMTA1LjQ1MjA3MTQsMC4wOTYxNyAtMC4zMjc0MjEsMC4wMzQzMiAtMC41OTUzMTIsLTAuMDI2NTIgLTAuNTk1MzEyLC0wLjEzNTIgeiIKICAgICAgIGlkPSJwYXRoMTk1IiAvPjwvZz48L3N2Zz4K;clipPath=inset(29.33% 24.06% 34.67% 28.84%);" vertex="1" parent="1">
          <mxGeometry x="840" y="24" width="149.49" height="117" as="geometry" />
        </mxCell>
        <mxCell id="p_nPCDUxPSeStgnrJduY-6" value="" style="shape=image;aspect=fixed;image=data:image/svg+xml,PD94bWwgdmVyc2lvbj0iMS4wIiBlbmNvZGluZz0iVVRGLTgiIHN0YW5kYWxvbmU9Im5vIj8+CjwhLS0gQ3JlYXRlZCB3aXRoIElua3NjYXBlIChodHRwOi8vd3d3Lmlua3NjYXBlLm9yZy8pIC0tPgoKPHN2ZwogICB3aWR0aD0iMjEwLjg3MjkxbW0iCiAgIGhlaWdodD0iMjE2LjE2NDU4bW0iCiAgIHZpZXdCb3g9IjAgMCAyMTAuODcyOTEgMjE2LjE2NDU4IgogICB2ZXJzaW9uPSIxLjEiCiAgIGlkPSJzdmc1IgogICB4bWw6c3BhY2U9InByZXNlcnZlIgogICBpbmtzY2FwZTp2ZXJzaW9uPSIxLjIuMiAoNzMyYTAxZGE2MywgMjAyMi0xMi0wOSkiCiAgIHNvZGlwb2RpOmRvY25hbWU9IkxvZ28uc3ZnIgogICB4bWxuczppbmtzY2FwZT0iaHR0cDovL3d3dy5pbmtzY2FwZS5vcmcvbmFtZXNwYWNlcy9pbmtzY2FwZSIKICAgeG1sbnM6c29kaXBvZGk9Imh0dHA6Ly9zb2RpcG9kaS5zb3VyY2Vmb3JnZS5uZXQvRFREL3NvZGlwb2RpLTAuZHRkIgogICB4bWxucz0iaHR0cDovL3d3dy53My5vcmcvMjAwMC9zdmciCiAgIHhtbG5zOnN2Zz0iaHR0cDovL3d3dy53My5vcmcvMjAwMC9zdmciPjxzb2RpcG9kaTpuYW1lZHZpZXcKICAgICBpZD0ibmFtZWR2aWV3NyIKICAgICBwYWdlY29sb3I9IiNmZmZmZmYiCiAgICAgYm9yZGVyY29sb3I9IiMwMDAwMDAiCiAgICAgYm9yZGVyb3BhY2l0eT0iMC4yNSIKICAgICBpbmtzY2FwZTpzaG93cGFnZXNoYWRvdz0iMiIKICAgICBpbmtzY2FwZTpwYWdlb3BhY2l0eT0iMC4wIgogICAgIGlua3NjYXBlOnBhZ2VjaGVja2VyYm9hcmQ9IjAiCiAgICAgaW5rc2NhcGU6ZGVza2NvbG9yPSIjZDFkMWQxIgogICAgIGlua3NjYXBlOmRvY3VtZW50LXVuaXRzPSJtbSIKICAgICBzaG93Z3JpZD0iZmFsc2UiCiAgICAgaW5rc2NhcGU6em9vbT0iMC42NjE0MjQ1OSIKICAgICBpbmtzY2FwZTpjeD0iNTE1LjU1Mzg2IgogICAgIGlua3NjYXBlOmN5PSI0NTguMTAyMTEiCiAgICAgaW5rc2NhcGU6d2luZG93LXdpZHRoPSIxMzY2IgogICAgIGlua3NjYXBlOndpbmRvdy1oZWlnaHQ9IjcwNSIKICAgICBpbmtzY2FwZTp3aW5kb3cteD0iLTgiCiAgICAgaW5rc2NhcGU6d2luZG93LXk9Ii04IgogICAgIGlua3NjYXBlOndpbmRvdy1tYXhpbWl6ZWQ9IjEiCiAgICAgaW5rc2NhcGU6Y3VycmVudC1sYXllcj0ibGF5ZXIxIiAvPjxkZWZzCiAgICAgaWQ9ImRlZnMyIiAvPjxnCiAgICAgaW5rc2NhcGU6bGFiZWw9IkNhcGEgMSIKICAgICBpbmtzY2FwZTpncm91cG1vZGU9ImxheWVyIgogICAgIGlkPSJsYXllcjEiCiAgICAgdHJhbnNmb3JtPSJ0cmFuc2xhdGUoMTIuNjU5MzEyLC0zNi43NDA1NjYpIj48cGF0aAogICAgICAgc3R5bGU9ImZpbGw6IzAwMDAwMDtzdHJva2Utd2lkdGg6MC4yNjQ1ODMiCiAgICAgICBkPSJtIDEwNi4xMDM2NywyMDguNjQyNDYgYyAtMi4wNTUyMiwtMC43MzI1OCAtMy41MTY1NiwtMi44NDg4IC0zLjI5NzY2LC00Ljc3NTQ2IDAuMDg3OSwtMC43NzMyOSAwLjEyMjk2LC0wLjc5MDU0IDEuNzY2MzksLTAuODY4MzMgMS44NTUwNywtMC4wODc4IDIuMjg4MDQsMC4xMjU2OCAyLjUxMDQ5LDEuMjM3OTQgMC4yNjcyLDEuMzM1OTkgMi41MDI2MiwxLjY4NjQ5IDMuMjYxNTQsMC41MTEzOSAwLjEyMzI4LC0wLjE5MDg4IDAuMjgzNjcsLTMuMzgzMTQgMC4zNTY0MywtNy4wOTM5MiBsIDAuMTMyMywtNi43NDY4OCBoIDEuOTg0MzcgMS45ODQzOCBsIDAuMDc5Miw2LjYxNDU5IGMgMC4wNTA4LDQuMjQzNDMgLTAuMDI0Niw2Ljk3MTgyIC0wLjIxMDM4LDcuNjExMTUgLTAuMzc5NTEsMS4zMDYxNSAtMS43MTY1MiwyLjgwMjgzIC0zLjA0MTU0LDMuNDA0NzggLTEuMjgxMzQsMC41ODIxIC00LjAzOTYyLDAuNjM0MzggLTUuNTI1NTEsMC4xMDQ3NCB6IG0gLTU1LjA3MzkyMiwtMC4xOTcwOSBjIC0wLjA3MjcyLC0wLjE4OTUxIC0wLjEwMDc2MywtNC4yMTMxMSAtMC4wNjIzMiwtOC45NDEzNiBsIDAuMDY5ODksLTguNTk2ODEgaCAxLjk4NDM3NSAxLjk4NDM3NSBsIDAuMDc0MjksMy4yNDExNSBjIDAuMDQwODYsMS43ODI2MyAwLjE1OTkyMiwzLjI0MTA4IDAuMjY0NTgzLDMuMjQxMDEgMC4xMDQ2NjIsLThlLTUgMS4wMTQ1ODIsLTEuMTAxNDEgMi4wMjIwNDQsLTIuNDQ3NCAzLjE4MTI5NCwtNC4yNTAyOCAzLjA2ODg3NiwtNC4xNjcwNSA1LjYyODQ4NiwtNC4xNjcwNSAxLjg1MjQwMSwwIDIuMTk3MDU1LDAuMDY3NSAyLjE5NzA1NSwwLjQzMDMgMCwwLjIzNjY2IC0xLjI1MDE1NiwyLjAyMTM3IC0yLjc3ODEyNSwzLjk2NiAtMS41Mjc5NjgsMS45NDQ2NCAtMi43NzgxMjQsMy41OTQ0MiAtMi43NzgxMjQsMy42NjYxNyAwLDAuMDcxOCAxLjMwOTY4NywyLjEzNzQ5IDIuOTEwNDE2LDQuNTkwNTEgMS42MDA3MjksMi40NTMwMiAyLjkxMDQxNyw0LjY1Nzc0IDIuOTEwNDE3LDQuODk5MzcgMCwwLjM3NDk2IC0wLjMyOTkyNSwwLjQzOTMyIC0yLjI1MjI0NSwwLjQzOTMyIGggLTIuMjUyMjQ0IGwgLTAuOTcwMDQ3LC0xLjUyMTM2IGMgLTAuNTMzNTI1LC0wLjgzNjc0IC0xLjQ5NDYzOSwtMi4zNDE5OSAtMi4xMzU4MDksLTMuMzQ0OTkgbCAtMS4xNjU3NjgsLTEuODIzNjQgLTAuNzA1MTczLDAuNzAzOTYgYyAtMC42NDMwMDMsMC42NDE5IC0wLjcxNjgzNSwwLjkzMDk3IC0wLjgzNzQ2NCwzLjI3ODg1IGwgLTAuMTMyMjkyLDIuNTc0ODkgLTEuOTIyMDU1LDAuMDc3OCBjIC0xLjM5MjY5NSwwLjA1NjQgLTEuOTU4NDY5LC0wLjAxNzEgLTIuMDU0MjcsLTAuMjY2NzMgeiBtIDE2LjY2ODc1LDAgYyAtMC4wNzI3MiwtMC4xODk1MSAtMC4xMDA3NjQsLTQuMjEzMTEgLTAuMDYyMzIsLTguOTQxMzYgbCAwLjA2OTg5LC04LjU5NjgxIGggMS45ODQzNzUgMS45ODQzNzUgbCAwLjEzMjI5MSwzLjQzOTU5IDAuMTMyMjkyLDMuNDM5NTggaCAzLjA0MjcwOCAzLjA0MjcwOSBsIDAuMTMyMjkxLC0zLjQzOTU4IDAuMTMyMjkyLC0zLjQzOTU5IGggMS45ODQzNzUgMS45ODQzNzUgdiA4Ljg2MzU0IDguODYzNTUgaCAtMS45ODQzNzUgLTEuOTg0Mzc1IGwgLTAuMTMyMjkyLC0zLjU3MTg4IC0wLjEzMjI5MSwtMy41NzE4NyBoIC0zLjA0MjcwOSAtMy4wNDI3MDggbCAtMC4xMzIyOTIsMy41NzE4NyAtMC4xMzIyOTEsMy41NzE4OCAtMS45MjIwNTUsMC4wNzc4IGMgLTEuMzkyNjk1LDAuMDU2NCAtMS45NTg0NywtMC4wMTcxIC0yLjA1NDI3LC0wLjI2NjczIHogbSAxNy4zNTY3ODgsLTAuMDUyOCBjIC0wLjI0NTAyLC0wLjI5NTIzIDAuMDQ4MSwtMS4zMzk3OSAxLjM5MjExMywtNC45NjA5NCAwLjkzNjM2NiwtMi41MjI4MiAyLjMzMDg3LC02LjMxMzM2IDMuMDk4ODk4LC04LjQyMzQyIDAuNzY4MDI3LC0yLjExMDA1IDEuNTEwNzk3LC0zLjk4NTI4IDEuNjUwNTk1LC00LjE2NzE4IDAuMTU1NDM1LC0wLjIwMjI1IDAuODk3MTMzLC0wLjMzMDczIDEuOTA5MTgsLTAuMzMwNzMgMS4wMDg3NzQsMCAxLjc1NjY0MywwLjEyOTEzIDEuOTE1MzE0LDAuMzMwNzMgMC40NjI2MTYsMC41ODc3NSA2LjQ0NzY3NCwxNi45MTk5MiA2LjM2MzEwNCwxNy4zNjM4IC0wLjA2NDIsMC4zMzcxMSAtMC40NzM3MiwwLjQ0NjQ0IC0xLjkwNDkyNiwwLjUwODU3IC0xLjA1MzY3NiwwLjA0NTcgLTEuOTQyODcyLC0wLjA0MDYgLTIuMTA2ODU4LC0wLjIwNDU5IC0wLjE1NjA1NywtMC4xNTYwNiAtMC41MjU1MzcsLTAuOTY1NTggLTAuODIxMDY2LC0xLjc5ODk0IGwgLTAuNTM3MzI2LC0xLjUxNTIgaCAtMi44ODQwODMgLTIuODg0MDggbCAtMC40ODM0NTIsMS40MjIzIGMgLTAuMjY1ODk4LDAuNzgyMjYgLTAuNjE5MjYyLDEuNTg1OTMgLTAuNzg1MjQ5LDEuNzg1OTMgLTAuNDE4OTgsMC41MDQ4NSAtMy41MDEzNDcsMC40OTY3MiAtMy45MjIxNjQsLTAuMDEwMyB6IG0gMzMuNDgwOTc0LC0wLjAzOTYgYyAtMC4yNDMzMywtMC42MzQxMSAtMC4xODc5OSwtMTYuODYzNjIgMC4wNTg4LC0xNy4yNTI1IDAuMTY0MjMsLTAuMjU4NzQgMS41NzY1OCwtMC4zMTk1MyA2LjE0NzUxLC0wLjI2NDU4IGwgNS45MzQzMSwwLjA3MTMgdiAxLjU4NzUgMS41ODc1IGwgLTMuOTAyNjEsMC4wNzMyIC0zLjkwMjYsMC4wNzMyIHYgMS44NDUwMSAxLjg0NTAxIGggMy4xNTkzOCBjIDMuNDEzNzYsMCAzLjQ3MjUxLDAuMDI0MyAzLjYzNTI1LDEuNTAxMDUgMC4xOTczOCwxLjc5MTA5IC0wLjA3ODYsMS45Mzg1MyAtMy42Mjg5NCwxLjkzODUzIGggLTMuMTY1NjkgdiAxLjk3NzMxIDEuOTc3MyBsIDMuOTAyNiwwLjA3MzIgMy45MDI2MSwwLjA3MzIgdiAxLjU4NzUgMS41ODc1IGwgLTUuOTg5MDksMC4wNzEgYyAtNS4yODgyMSwwLjA2MjcgLTYuMDA4MSwwLjAyMTUgLTYuMTUxNTYsLTAuMzUyMzcgeiBtIDE0Ljc4MzY3LC0wLjE4MTY5IGMgLTAuMDc5OCwtMC4zMjc0MiAtMC4xMTE4OCwtNC4zNDU3OCAtMC4wNzEyLC04LjkyOTY4IGwgMC4wNzQsLTguMzM0MzggaCA1Ljk1MzEyIDUuOTUzMTMgdiAxLjU4NzUgMS41ODc1IGwgLTMuNjkzMzksMC4wNzQgYyAtMi4wMzEzNiwwLjA0MDcgLTMuNzU3NzcsMC4xNzczMyAtMy44MzY0NiwwLjMwMzY1IC0wLjA3ODcsMC4xMjYzMiAtMC4xMDMxNCwxLjAxNTc2IC0wLjA1NDMsMS45NzY1NSBsIDAuMDg4NywxLjc0Njg3IGggMy4yODQ3MiBjIDIuNDQwNTksMCAzLjI4OTkyLDAuMDg1IDMuMzA0OTYsMC4zMzA3MyAwLjAxMTEsMC4xODE5IDAuMDcxNCwwLjU2ODg2IDAuMTMzODYsMC44NTk5IDAuMDYyNSwwLjI5MTA0IDAuMDQ4LDAuOTE2MTIgLTAuMDMyMiwxLjM4OTA2IGwgLTAuMTQ1ODQsMC44NTk5IGggLTMuMjk1MyAtMy4yOTUzMSBsIC0wLjAwNCwyLjk3NjU2IGMgLTAuMDA1LDQuMzA5NTkgMC4wNzI0LDQuMTY3MTkgLTIuMjcxMTcsNC4xNjcxOSAtMS44MDEyNCwwIC0xLjk1OTQ1LC0wLjA0NSAtMi4wOTM2NSwtMC41OTUzMiB6IE0gOTQuMTY0NDA1LDE3MS45NDE4NyBjIC0yLjAzNzI5MSwtMS4xNzk0MiAtNC4wNjEzNTQsLTIuMzUxOTIgLTQuNDk3OTE2LC0yLjYwNTU1IC02Ljk4MjcwOSwtNC4wNTY3IC0xMS4xNTQ1NDcsLTYuNDYyNjEgLTEzLjc1ODMzMywtNy45MzQ0NyAtMS43NDYyNSwtMC45ODcxIC0zLjg4OTM3NSwtMi4yMjAwNSAtNC43NjI1LC0yLjczOTg3IC0wLjg3MzEyNSwtMC41MTk4MSAtMi4wOTQzNDksLTEuMjQzNjkgLTIuNzEzODMxLC0xLjYwODYxIGwgLTEuMTI2MzI5LC0wLjY2MzUgMC4wNjgsLTE3LjkyNTk0IDAuMDY4LC0xNy45MjU5MyAzLjA0MjcwOCwtMS43NTI4NyBjIDEuNjczNDg5LC0wLjk2NDA4IDguMTAyODY0LC00LjY3NDg2IDE0LjI4NzQ5OSwtOC4yNDYxOSA2LjE4NDYzNiwtMy41NzEzMyAxMS43NDM1ODIsLTYuNzUxODcgMTIuMzUzMjEzLC03LjA2Nzg2IGwgMS4xMDg0MjUsLTAuNTc0NTIgNS4zNzM4NjksMy4wOTQ4NiBjIDIuOTU1NjMsMS43MDIxNyA4LjQ2OTUsNC44ODU2NCAxMi4yNTMwNCw3LjA3NDM2IDMuNzgzNTQsMi4xODg3NCA4LjI0ODM4LDQuNzcwNzMgOS45MjE4Nyw1LjczNzc4IGwgMy4wNDI3MSwxLjc1ODI2IDAuMDY4LDE3LjkwMzY1IDAuMDY4LDE3LjkwMzY1IC0wLjk5NDA0LDAuNjMxMiBjIC0yLjE3MTQ1LDEuMzc4ODQgLTI5LjY0MTI5MywxNy4xMDUyIC0yOS44NjIwODMsMTcuMDk1OSAtMC4xMjk4NjUsLTAuMDA1IC0xLjkwMjk5NCwtMC45NzQ5MiAtMy45NDAyODYsLTIuMTU0MzUgeiBtIDE3LjcyNzA4NSwtOS41OTQxMSAxMy40OTM3NSwtNy43ODc3NCAwLjA2NzcsLTE1Ljk1NzY2IDAuMDY3NywtMTUuOTU3NjYgLTMuNjM5NTUsLTIuMTQwNDIgYyAtMi4wMDE3NSwtMS4xNzcyMyAtNS4yNDY4OSwtMy4wNjggLTcuMjExNDMsLTQuMjAxNzEgLTEuOTY0NTMsLTEuMTMzNzEgLTQuOTQxMDksLTIuODU3NjQgLTYuNjE0NTgsLTMuODMwOTUgLTUuODMxODIsLTMuMzkxODMgLTkuNzE1MDE1LC01LjU2OTYzIC05LjkzMTEwMSwtNS41Njk2MyAtMC4xMTk2NzEsMCAtNi4zMjgwMzQsMy41MjUxOSAtMTMuNzk2MzY0LDcuODMzNzYgbCAtMTMuNTc4Nzg0LDcuODMzNzUgdiAxNS45NjMgMTUuOTYyOTkgbCAyLjA1MDUyMSwxLjE3MTA4IGMgMS45MjIwNSwxLjA5NzcgNS44NTI2MTUsMy4zNjI4MyAxMS43MDc4MTIsNi43NDcwNSAxLjM4MjQ0OCwwLjc5OTA0IDIuODExMTk4LDEuNjE2ODIgMy4xNzUsMS44MTcyOSAwLjM2MzgwMiwwLjIwMDQ3IDIuNzQ1MDUyLDEuNjAwMDUgNS4yOTE2NjYsMy4xMTAxNyAyLjU0NjYxNSwxLjUxMDExIDQuODA4ODAyLDIuNzU2NjQgNS4wMjcwODQsMi43NzAwNCAwLjIxODI4MSwwLjAxMzQgNi40NjkwNjYsLTMuNDgwMSAxMy44OTA2MjYsLTcuNzYzMzYgeiBtIC0xNS4wODEyNTEsLTkuMDUwNzQgYyAtMC40MzY1NjMsLTAuMjI4MjggLTEuNjg2NzE5LC0wLjkzMDU5IC0yLjc3ODEyNSwtMS41NjA3MSAtMy40NDIzNTksLTEuOTg3NDIgLTMuMzg2MzYzLC0xLjk2NzAzIC00LjMyNTY1MiwtMS41NzQ3MSAtMC43OTc1MjgsMC4zMzMxMSAtMC45NTQzMzEsMC4yODE2NSAtMy42MTE4NDgsLTEuMTg1MzMgLTEuNjE2MDkzLC0wLjg5MjEgLTIuOTE0ODMsLTEuNzk1IC0zLjEwNDk1NCwtMi4xNTg2IC0wLjM0NzQ4LC0wLjY2NDU0IC0wLjQ1MDY1MiwtNC4zNDQ0MSAtMC4xNjIyMzUsLTUuNzg2NSAwLjEyOTAxNiwtMC42NDUwOSAwLjQ1OTc3NywtMS4wMzYyIDEuMzE0NTU0LC0xLjU1NDQzIGwgMS4xNDIxNTgsLTAuNjkyNDUgMC4wMTE5OSwtMi41MTM1NSBjIDAuMDA2NiwtMS4zODI0NCAwLjA3OTMsLTIuNzY0MzMgMC4xNjE1NzUsLTMuMDcwODUgMC4wOTk1LC0wLjM3MDY5IDEuMjA1NzY4LC0xLjE1NTMxIDMuMzAzNjc4LC0yLjM0MzE0IGwgMy4xNTQwNzEsLTEuNzg1ODMgdiAtMS4xNDkxMiBjIDAsLTAuOTg5NTcgMC4xMTkzOTksLTEuMjM3NDUgMC44NTk4OTYsLTEuNzg1MjcgMS4zMDM2MSwtMC45NjQ0MSA0LjgzMzE3MywtMi44MzAzNyA1LjM1Mzc4OCwtMi44MzAzNyAwLjQyNTAxNiwwIDEuNzc0MDg3LDAuNjc5OTYgNC45NjQ5NjUsMi41MDI0MyAxLjIyOTUsMC43MDIyNCAxLjI1Njc3LDAuNzQ1ODIgMS4yNTY3NywyLjAwODc0IHYgMS4yOTA5MiBsIDIuOTAwOTksMS42MjQ1NSBjIDEuNTk1NTUsMC44OTM1MSAzLjA1NDA2LDEuODA5MTEgMy4yNDExNCwyLjAzNDY3IDAuMTg3MDksMC4yMjU1NiAwLjM0Nzc0LDAuODk3NzEgMC4zNTcsMS40OTM2NyAwLjAwOSwwLjU5NTk2IDAuMDM5LDEuODY3NTYgMC4wNjYxLDIuODI1NzggbCAwLjA0OTMsMS43NDIyMiAxLjI1Njc3LDAuNjM5MDMgMS4yNTY3NywwLjYzOTAzIDAuMDc0NCwyLjkzNzUxIGMgMC4wNDA5LDEuNjE1NjMgLTAuMDQxNCwzLjI0MjExIC0wLjE4MjkxLDMuNjE0NDEgLTAuMTc5OCwwLjQ3MjkzIC0xLjA1MTMxLDEuMTIyNTIgLTIuODkyMTgsMi4xNTU3MiAtMi42MzU1NiwxLjQ3OTI0IC0zLjM3NzU5LDEuNjk0NzMgLTQuMjQyMjUsMS4yMzE5OCAtMC4zNTMzOSwtMC4xODkxMyAtMS4yOTI3NiwwLjIxMjA2IC00LjAxNzUsMS43MTU4MiAtMS45NTU5NSwxLjA3OTQ2IC0zLjc5NDM4OSwxLjk1OTY4IC00LjA4NTQzMSwxLjk1NjA0IC0wLjI5MTA0MSwtMC4wMDQgLTAuODg2MzU0LC0wLjE5MzM5IC0xLjMyMjkxNiwtMC40MjE2NiB6IG0gNC4xMjc1ODEsLTMuMTUwNTUgYyAxLjQ0MDYxLC0wLjgwODU1IDIuNjE5MjksLTEuNTIxOTkgMi42MTkyOSwtMS41ODU0MSAwLC0wLjA2MzQgLTAuNDQzMjUsLTAuMzI0NjEgLTAuOTg1LC0wLjU4MDQyIC0wLjU0MTc1LC0wLjI1NTgxIC0xLjEzNTMsLTAuNzYyNzYgLTEuMzE5MDEsLTEuMTI2NTYgLTAuNDQyNCwtMC44NzYwOCAtMC40NDMxNywtNS40NzI4MSAtMC4wMDEsLTYuMzQ2NTkgMC4yMDEsLTAuMzk3MjcgMS4zMjY2MiwtMS4yMTI2NSAyLjg0MDM3LC0yLjA1NzUxIDIuMjE5MjgsLTEuMjM4NjMgMi42MzgwMywtMS4zODM4NCAzLjY0MzkyLC0xLjI2MzU5IGwgMS4xMzY0OSwwLjEzNTg2IC0wLjA3ODIsLTEuNzc1MDUgLTAuMDc4MiwtMS43NzUwNSAtMS45ODQzOCwtMS4xMTQzOSBjIC0xLjA5MTQxLC0wLjYxMjkxIC0yLjA3MzY4LC0xLjEyMjI5IC0yLjE4MjgyLC0xLjEzMTk1IC0wLjEwOTE0LC0wLjAxIC0wLjE5ODQzLDAuMzk3NjYgLTAuMTk4NDMsMC45MDUxNiAwLDEuMDM0NjcgLTAuMjI1NjcsMS4yMTYzOSAtNC4xMjQ1NiwzLjMyMTMzIGwgLTIuMTQwMTcsMS4xNTU0NSAtMy4wMTkyLC0xLjcxMjQgYyAtMi45Mzc5NTIsLTEuNjY2MzIgLTMuMDIxNDIyLC0xLjczODk4IC0zLjEwMTMzMiwtMi42OTk3NiAtMC4wNDUxNiwtMC41NDMwNCAtMC4xMTk4MzUsLTAuOTg3MzUgLTAuMTY1OTM2LC0wLjk4NzM1IC0wLjA0NjEsMCAtMS4wMjExNzgsMC41MTc3NiAtMi4xNjY4MzksMS4xNTA1OCBsIC0yLjA4MzAyMywxLjE1MDU3IC0wLjA3ODM1LDEuNzY0OTIgLTAuMDc4MzUsMS43NjQ5MyAxLjA2NTAzMiwtMC4xNzAzMSBjIDAuOTQ2OTI2LC0wLjE1MTQyIDEuMzM3MDU2LC0wLjAxOSAzLjUxNzkzNSwxLjE5NDI2IDEuMzQ5MDk0LDAuNzUwNTEgMi42MzE0OTMsMS40NjI1NyAyLjg0OTc3NCwxLjU4MjM2IDAuMzAyMTg2LDAuMTY1ODQgMC40MTU5MTQsMC44NDIzNyAwLjQ3NjY3LDIuODM1NTYgMC4xMTQ5MzUsMy43NzA0OCAtMC4wMDg0LDQuMjA5ODEgLTEuNDMwNDg4LDUuMDk0OTMgLTEuMjgxMDE3LDAuNzk3MzMgLTEuMjY0NDgxLDAuODkyNTIgMC4yOTIzNTksMS42ODI5MyAwLjQzNjU2MywwLjIyMTY0IDEuNDQ4NTk0LDAuNzczMTIgMi4yNDg5NTksMS4yMjU1IDAuODAwMzY0LDAuNDUyMzkgMS41NTY0NDgsMC44MjQ2OCAxLjY4MDE4NiwwLjgyNzMxIDAuMTIzNzM1LDAuMDAzIDEuNDAzNjU3LC0wLjY1Njc1IDIuODQ0MjczLC0xLjQ2NTMxIHogTSAtNy41Njc4ODM0LDUwLjgwNTA2MiBjIDAsLTAuMTA4NjggMC4yNjc4OTEsLTAuMjY5MzkxIDAuNTk1MzEyLC0wLjM1NzEzNyAxLjA3MjUxOSwtMC4yODc0MjQgMjA5Ljk2NzMxMTQsLTAuMTkwMTg2IDIxMC4xNDUzMTE0LDAuMDk3ODIgMC4xMDg4OSwwLjE3NjE5NyAtMzQuODY0NjksMC4yNzU4NjMgLTEwNC42OTMyNCwwLjI5ODM1IC01Ny42NzEyMTcsMC4wMTg1NyAtMTA1LjEyNDY0OTQsMC4wNjE4NSAtMTA1LjQ1MjA3MTQsMC4wOTYxNyAtMC4zMjc0MjEsMC4wMzQzMiAtMC41OTUzMTIsLTAuMDI2NTIgLTAuNTk1MzEyLC0wLjEzNTIgeiIKICAgICAgIGlkPSJwYXRoMTk1IiAvPjwvZz48L3N2Zz4K;clipPath=inset(69.33% 23.04% 19.33% 28.84%);" vertex="1" parent="1">
          <mxGeometry x="960" y="37.039999999999964" width="377" height="90.91" as="geometry" />
        </mxCell>
        <mxCell id="p_nPCDUxPSeStgnrJduY-7" value="Proyecto. FabricaciÃ³n de Robot de Combate" style="text;html=1;align=center;verticalAlign=middle;resizable=0;points=[];autosize=1;strokeColor=none;fillColor=none;fontStyle=1;fontFamily=Tahoma;fontSize=23;" vertex="1" parent="1">
          <mxGeometry x="1325" y="101" width="530" height="40" as="geometry" />
        </mxCell>
        <mxCell id="p_nPCDUxPSeStgnrJduY-8" value="&lt;br&gt;&lt;b&gt;&lt;font style=&quot;font-size: 35px;&quot;&gt;Plan de comunicaciÃ³n&lt;br&gt;&lt;/font&gt;&lt;br&gt;&lt;/b&gt;&lt;font style=&quot;font-size: 25px;&quot;&gt;&lt;b&gt;1. PolÃ­ticas de comunicaciÃ³n &lt;/b&gt;&lt;br&gt;&lt;/font&gt;&lt;br&gt;&lt;ul style=&quot;font-size: 15px;&quot;&gt;&lt;li&gt;	Plan de comunicaciÃ³n interna: estÃ¡ dirigido a quienes laboran, proveen servicios o materias primas a la empresa; y tambiÃ©n a sus accionistas o inversores; es decir se dirige a quienes participan en la operaciÃ³n y funcionamiento del negocio.&lt;/li&gt;&lt;li&gt;Plan de comunicaciÃ³n externa: consiste en todos los mensajes diseÃ±ados para que los reciban personas externas a la compaÃ±Ã­a, es decir clientes, medios de comunicaciÃ³n y otras empresas del sector.&lt;/li&gt;&lt;li&gt;Plan de comunicaciÃ³n formal: se trata de un mensaje institucional que busca simplemente informar.&lt;/li&gt;&lt;li&gt;Plan de comunicaciÃ³n informal: es un documento con un tono mÃ¡s casual y que busca generar cierta interacciÃ³n con el pÃºblico.&lt;/li&gt;&lt;li&gt;Todos los planes de comunicaciÃ³n de la organizaciÃ³n deben incluir estrategias para llegar a los pÃºblicos principales, que son: instituciones donantes, gobierno estatal y Congreso del Estado, directivos de los medios de comunicaciÃ³n y autoridades educativas.&lt;/li&gt;&lt;/ul&gt;&lt;br&gt;&lt;font style=&quot;font-size: 25px;&quot;&gt;&lt;b&gt;2. Objetivos de la comunicaciÃ³n&lt;/b&gt;&lt;/font&gt;&lt;br&gt;&lt;br&gt;&lt;ul style=&quot;font-size: 15px;&quot;&gt;&lt;li&gt;	El objetivo principal de un plan de comunicaciÃ³n es organizar todo lo relacionado con la comunicaciÃ³n de una organizaciÃ³n. Planear garantiza que haya mejores resultados porque se tienen objetivos claros que cumplir.&lt;/li&gt;&lt;li&gt;Con el plan de comunicaciÃ³n puedes reforzar la comunicaciÃ³n interna de la organizaciÃ³n y asÃ­ optimizar las relaciones con colaboradores, clientes y otras empresas.&lt;/li&gt;&lt;li&gt;Brindar mensajes adecuados y oportunos para una audiencia especÃ­fica es una gran forma de generar una percepciÃ³n positiva sobre las acciones y operaciones del negocio; lo cual ayuda a fortalecer a una marca en su mercado y entre la competencia.&lt;/li&gt;&lt;li&gt;Todos los programas de trabajo de comunicaciÃ³n de la organizaciÃ³n deberÃ¡n alinearse a los objetivos, estrategias y metas de nuestro plan operativo anual.&lt;/li&gt;&lt;/ul&gt;&lt;br&gt;&lt;font style=&quot;font-size: 25px;&quot;&gt;&lt;b&gt;3. Mensajes a enviar y recibir&lt;/b&gt;&lt;/font&gt;&lt;br&gt;&lt;br&gt;&lt;ul style=&quot;font-size: 15px;&quot;&gt;&lt;li&gt;	Todas las publicaciones institucionales (informe, trÃ­pticos, presentaciones multimedia, boletÃ­n, videos, entre otros) deberÃ¡n ser revisadas y aprobadas por el comitÃ© de comunicaciÃ³n.&lt;/li&gt;&lt;li&gt;Los canales escritos (como las encuestas, los manuales o los comunicados internos).&lt;/li&gt;&lt;li&gt;Los canales orales (como las reuniones, las llamadas telefÃ³nicas o las conversaciones personales).&lt;/li&gt;&lt;li&gt;Los canales tecnolÃ³gicos o digitales (como el chat, las redes sociales, o los correos).&lt;/li&gt;&lt;li&gt;Redes Sociales Corporativas.&lt;/li&gt;&lt;/ul&gt;&lt;br&gt;&lt;font style=&quot;font-size: 25px;&quot;&gt;&lt;b&gt;4. Grupos de involucrados previamente definidos&lt;/b&gt;&lt;/font&gt;&lt;br&gt;&lt;br&gt;&lt;ul style=&quot;font-size: 15px;&quot;&gt;&lt;li&gt;	El comitÃ© de comunicaciÃ³n estarÃ¡ integrado por la persona que ocupe el puesto de administrador de proyecto en la organizaciÃ³n, por cinco gerentes directivos encargados de diferentes Ã¡reas. Los expertos participan con voz, pero sin voto.&lt;/li&gt;&lt;li&gt;	Administrador de proyecto de la empresa Ing. Eduardo GarcÃ­a Espinosa.&lt;/li&gt;&lt;li&gt;	Gerente del departamento de programaciÃ³n Ing. Kenai Haiden JimÃ©nez Serrano.&lt;/li&gt;&lt;li&gt;	Gerente del departamento de diseÃ±o Ing. Michelle Fernanda GutiÃ©rrez Lira.&lt;/li&gt;&lt;li&gt;	Gerente del departamento de ventas, Ing. Karla VÃ¡zquez Espino.&lt;/li&gt;&lt;li&gt;	Gerente del departamento de compras Ing. Jonathan Preza DomÃ­nguez.&lt;/li&gt;&lt;li&gt;	Gerente de los departamentos de fabricaciÃ³n y mantenimiento, Ing. JosÃ© Alexis Aguilar HernÃ¡ndez&lt;/li&gt;&lt;/ul&gt;&lt;br&gt;&lt;font style=&quot;font-size: 25px;&quot;&gt;&lt;b&gt;5. TecnologÃ­as o medios a emplear para comunicarse&lt;/b&gt;&lt;/font&gt;&lt;br&gt;&lt;br&gt;&lt;ul style=&quot;font-size: 15px;&quot;&gt;&lt;li&gt;	Los diseÃ±os de cada uno de estos materiales serÃ¡n enviados vÃ­a correo electrÃ³nico a los integrantes del ComitÃ© de ComunicaciÃ³n para que realicen sus observaciones. En caso de no haber recibido respuesta en 48 horas posteriores al envÃ­o el diseÃ±o se considerarÃ¡ como aprobado.&lt;/li&gt;&lt;li&gt;El comitÃ© de comunicaciÃ³n se reunirÃ¡ una vez al mes en el horario y fecha que determine el mismo por consenso. PodrÃ¡ realizar reuniones extraordinarias cuando asÃ­ lo determinen sus integrantes.&lt;/li&gt;&lt;li&gt;VÃ­deo Conferencias.&lt;/li&gt;&lt;/ul&gt;&lt;br&gt;&lt;font style=&quot;font-size: 25px;&quot;&gt;&lt;b&gt;6. Programa de comunicaciÃ³n&lt;/b&gt;&lt;/font&gt;&lt;br&gt;&lt;font style=&quot;font-size: 15px;&quot;&gt;&lt;br&gt;Se solicitarÃ¡ una reuniÃ³n por el administrador del proyecto cada mes, o si se llegarÃ¡ a presentar algÃºn inconveniente en cualquiera de las gerencias, se harÃ¡n reuniones antes o despuÃ©s de las reuniones ya programadas para los vistos buenos del avance que se vaya haciendo a lo largo de la elaboraciÃ³n del proyecto del robot de pelea. Cada departamento responsable del avance en la realizaciÃ³n de la primera parte del producto cumple satisfactoriamente con los objetivos propuestos por el administrador del proyecto.&lt;/font&gt;" style="rounded=0;whiteSpace=wrap;fillColor=#B5B5B5;strokeColor=none;strokeWidth=2;labelPosition=center;verticalLabelPosition=middle;align=left;verticalAlign=top;spacing=0;html=1;" vertex="1" parent="1">
          <mxGeometry x="894" y="146" width="940" height="984" as="geometry" />
        </mxCell>
      </root>
    </mxGraphModel>
  </diagram>
</mxfile>
